CooperHewitt-Medium.ufo
<glyph name="exclam" format="1">
  <advance width="234"/>
  <unicode hex="0021"/>
  <outline>
    <contour>
      <point x="55" y="780" type="line"/>
      <point x="82" y="203" type="line"/>
      <point x="152" y="203" type="line"/>
      <point x="179" y="780" type="line"/>
    </contour>
    <contour>
      <point x="174" y="114" type="line"/>
      <point x="60" y="114" type="line"/>
      <point x="60" y="0" type="line"/>
      <point x="174" y="0" type="line"/>
    </contour>
  </outline>
</glyph>
<glyph name="quotedbl" format="1">
  <advance width="377"/>
  <unicode hex="0022"/>
  <outline>
    <contour>
      <point x="61" y="780" type="line"/>
      <point x="79" y="492" type="line"/>
      <point x="155" y="492" type="line"/>
      <point x="164" y="780" type="line"/>
    </contour>
    <contour>
      <point x="212" y="780" type="line"/>
      <point x="222" y="492" type="line"/>
      <point x="297" y="492" type="line"/>
      <point x="316" y="780" type="line"/>
    </contour>
  </outline>
</glyph>
<glyph name="numbersign" format="1">
  <advance width="600"/>
  <unicode hex="0023"/>
  <outline>
    <contour>
      <point x="83" y="469" type="line"/>
      <point x="163" y="469" type="line"/>
      <point x="130" y="311" type="line"/>
      <point x="30" y="311" type="line"/>
      <point x="30" y="220" type="line"/>
      <point x="111" y="220" type="line"/>
      <point x="65" y="0" type="line"/>
      <point x="156" y="0" type="line"/>
      <point x="202" y="220" type="line"/>
      <point x="327" y="220" type="line"/>
      <point x="281" y="0" type="line"/>
      <point x="372" y="0" type="line"/>
      <point x="418" y="220" type="line"/>
      <point x="517" y="220" type="line"/>
      <point x="517" y="311" type="line"/>
      <point x="437" y="311" type="line"/>
      <point x="470" y="469" type="line"/>
      <point x="570" y="469" type="line"/>
      <point x="570" y="560" type="line"/>
      <point x="489" y="560" type="line"/>
      <point x="535" y="780" type="line"/>
      <point x="444" y="780" type="line"/>
      <point x="398" y="560" type="line"/>
      <point x="273" y="560" type="line"/>
      <point x="319" y="780" type="line"/>
      <point x="228" y="780" type="line"/>
      <point x="182" y="560" type="line"/>
      <point x="83" y="560" type="line"/>
    </contour>
    <contour>
      <point x="254" y="469" type="line"/>
      <point x="379" y="469" type="line"/>
      <point x="346" y="311" type="line"/>
      <point x="221" y="311" type="line"/>
    </contour>
  </outline>
</glyph>
<glyph name="dollar" format="1">
  <advance width="600"/>
  <unicode hex="0024"/>
  <outline>
    <contour>
      <point x="448" y="840" type="line"/>
      <point x="365" y="840" type="line"/>
      <point x="338" y="727" type="line"/>
      <point x="326" y="728"/>
      <point x="313" y="729"/>
      <point x="300" y="729" type="curve" smooth="yes"/>
      <point x="158" y="729"/>
      <point x="63" y="658"/>
      <point x="63" y="540" type="curve" smooth="yes"/>
      <point x="63" y="532" type="line" smooth="yes"/>
      <point x="63" y="438"/>
      <point x="118" y="383"/>
      <point x="250" y="361" type="curve"/>
      <point x="204" y="168" type="line"/>
      <point x="174" y="191"/>
      <point x="158" y="228"/>
      <point x="158" y="276" type="curve"/>
      <point x="56" y="276" type="line"/>
      <point x="56" y="270" type="line" smooth="yes"/>
      <point x="56" y="177"/>
      <point x="99" y="107"/>
      <point x="182" y="73" type="curve"/>
      <point x="150" y="-60" type="line"/>
      <point x="233" y="-60" type="line"/>
      <point x="260" y="54" type="line"/>
      <point x="275" y="53"/>
      <point x="290" y="52"/>
      <point x="306" y="52" type="curve" smooth="yes"/>
      <point x="458" y="52"/>
      <point x="545" y="126"/>
      <point x="545" y="247" type="curve" smooth="yes"/>
      <point x="545" y="255" type="line" smooth="yes"/>
      <point x="545" y="361"/>
      <point x="478" y="411"/>
      <point x="350" y="431" type="curve"/>
      <point x="394" y="614" type="line"/>
      <point x="422" y="590"/>
      <point x="436" y="550"/>
      <point x="436" y="495" type="curve"/>
      <point x="538" y="495" type="line"/>
      <point x="538" y="510" type="line" smooth="yes"/>
      <point x="538" y="609"/>
      <point x="499" y="679"/>
      <point x="417" y="710" type="curve"/>
    </contour>
    <contour>
      <point x="308" y="138" type="curve" smooth="yes"/>
      <point x="304" y="138" type="line" smooth="yes"/>
      <point x="296" y="138"/>
      <point x="288" y="138"/>
      <point x="280" y="139" type="curve"/>
      <point x="330" y="349" type="line"/>
      <point x="406" y="334"/>
      <point x="440" y="304"/>
      <point x="440" y="247" type="curve" smooth="yes"/>
      <point x="440" y="242" type="line" smooth="yes"/>
      <point x="440" y="176"/>
      <point x="386" y="138"/>
    </contour>
    <contour>
      <point x="167" y="541" type="curve" smooth="yes"/>
      <point x="167" y="546" type="line" smooth="yes"/>
      <point x="167" y="607"/>
      <point x="224" y="642"/>
      <point x="297" y="642" type="curve" smooth="yes"/>
      <point x="301" y="642" type="line" smooth="yes"/>
      <point x="306" y="642"/>
      <point x="312" y="642"/>
      <point x="317" y="641" type="curve"/>
      <point x="270" y="443" type="line"/>
      <point x="193" y="458"/>
      <point x="167" y="490"/>
    </contour>
  </outline>
</glyph>
<glyph name="percent" format="1">
  <advance width="943"/>
  <unicode hex="0025"/>
  <outline>
    <contour>
      <point x="558" y="177" type="curve" smooth="yes"/>
      <point x="558" y="166" type="line" smooth="yes"/>
      <point x="558" y="49"/>
      <point x="634" y="-12"/>
      <point x="733" y="-12" type="curve" smooth="yes"/>
      <point x="832" y="-12"/>
      <point x="908" y="49"/>
      <point x="908" y="166" type="curve" smooth="yes"/>
      <point x="908" y="177" type="line" smooth="yes"/>
      <point x="908" y="293"/>
      <point x="832" y="354"/>
      <point x="733" y="354" type="curve" smooth="yes"/>
      <point x="634" y="354"/>
      <point x="558" y="293"/>
    </contour>
    <contour>
      <point x="306" y="617" type="curve" smooth="yes"/>
      <point x="306" y="601" type="line" smooth="yes"/>
      <point x="306" y="541"/>
      <point x="265" y="506"/>
      <point x="213" y="506" type="curve" smooth="yes"/>
      <point x="207" y="506" type="line" smooth="yes"/>
      <point x="154" y="506"/>
      <point x="114" y="541"/>
      <point x="114" y="601" type="curve" smooth="yes"/>
      <point x="114" y="617" type="line" smooth="yes"/>
      <point x="114" y="677"/>
      <point x="154" y="712"/>
      <point x="207" y="712" type="curve" smooth="yes"/>
      <point x="213" y="712" type="line" smooth="yes"/>
      <point x="265" y="712"/>
      <point x="306" y="677"/>
    </contour>
    <contour>
      <point x="637" y="163" type="curve" smooth="yes"/>
      <point x="637" y="179" type="line" smooth="yes"/>
      <point x="637" y="239"/>
      <point x="678" y="274"/>
      <point x="730" y="274" type="curve" smooth="yes"/>
      <point x="736" y="274" type="line" smooth="yes"/>
      <point x="788" y="274"/>
      <point x="829" y="239"/>
      <point x="829" y="179" type="curve" smooth="yes"/>
      <point x="829" y="163" type="line" smooth="yes"/>
      <point x="829" y="103"/>
      <point x="788" y="68"/>
      <point x="736" y="68" type="curve" smooth="yes"/>
      <point x="730" y="68" type="line" smooth="yes"/>
      <point x="678" y="68"/>
      <point x="637" y="103"/>
    </contour>
    <contour>
      <point x="355" y="0" type="line"/>
      <point x="656" y="725" type="line"/>
      <point x="656" y="782" type="line"/>
      <point x="628" y="770"/>
      <point x="538" y="750"/>
      <point x="461" y="750" type="curve" smooth="yes"/>
      <point x="396" y="750"/>
      <point x="342" y="754"/>
      <point x="289" y="776" type="curve" smooth="yes"/>
      <point x="265" y="786"/>
      <point x="239" y="792"/>
      <point x="210" y="792" type="curve" smooth="yes"/>
      <point x="111" y="792"/>
      <point x="34" y="731"/>
      <point x="34" y="614" type="curve" smooth="yes"/>
      <point x="34" y="603" type="line" smooth="yes"/>
      <point x="34" y="487"/>
      <point x="111" y="426"/>
      <point x="210" y="426" type="curve" smooth="yes"/>
      <point x="309" y="426"/>
      <point x="385" y="487"/>
      <point x="385" y="603" type="curve" smooth="yes"/>
      <point x="385" y="614" type="line" smooth="yes"/>
      <point x="385" y="635"/>
      <point x="382" y="654"/>
      <point x="378" y="671" type="curve"/>
      <point x="399" y="668"/>
      <point x="422" y="666"/>
      <point x="446" y="666" type="curve" smooth="yes"/>
      <point x="497" y="666"/>
      <point x="537" y="677"/>
      <point x="545" y="678" type="curve"/>
      <point x="263" y="0" type="line"/>
    </contour>
  </outline>
</glyph>
<glyph name="ampersand" format="1">
  <advance width="671"/>
  <unicode hex="0026"/>
  <outline>
    <contour>
      <point x="260" y="-12" type="curve" smooth="yes"/>
      <point x="347" y="-12"/>
      <point x="422" y="13"/>
      <point x="480" y="60" type="curve"/>
      <point x="534" y="0" type="line"/>
      <point x="660" y="0" type="line"/>
      <point x="545" y="129" type="line"/>
      <point x="593" y="197"/>
      <point x="620" y="287"/>
      <point x="620" y="393" type="curve" smooth="yes"/>
      <point x="620" y="395" type="line"/>
      <point x="514" y="395" type="line"/>
      <point x="514" y="391" type="line" smooth="yes"/>
      <point x="514" y="315"/>
      <point x="500" y="254"/>
      <point x="476" y="206" type="curve"/>
      <point x="295" y="408" type="line"/>
      <point x="377" y="458"/>
      <point x="460" y="510"/>
      <point x="460" y="613" type="curve" smooth="yes"/>
      <point x="460" y="624" type="line" smooth="yes"/>
      <point x="460" y="717"/>
      <point x="396" y="792"/>
      <point x="264" y="792" type="curve" smooth="yes"/>
      <point x="131" y="792"/>
      <point x="67" y="717"/>
      <point x="67" y="624" type="curve" smooth="yes"/>
      <point x="67" y="613" type="line" smooth="yes"/>
      <point x="67" y="534"/>
      <point x="99" y="487"/>
      <point x="155" y="423" type="curve"/>
      <point x="90" y="376"/>
      <point x="34" y="316"/>
      <point x="34" y="216" type="curve" smooth="yes"/>
      <point x="34" y="206" type="line" smooth="yes"/>
      <point x="34" y="71"/>
      <point x="118" y="-12"/>
    </contour>
    <contour>
      <point x="272" y="79" type="line" smooth="yes"/>
      <point x="180" y="79"/>
      <point x="137" y="132"/>
      <point x="137" y="213" type="curve" smooth="yes"/>
      <point x="137" y="221" type="line" smooth="yes"/>
      <point x="137" y="280"/>
      <point x="170" y="321"/>
      <point x="215" y="355" type="curve"/>
      <point x="418" y="129" type="line"/>
      <point x="378" y="96"/>
      <point x="330" y="79"/>
      <point x="277" y="79" type="curve" smooth="yes"/>
    </contour>
    <contour>
      <point x="171" y="621" type="line" smooth="yes"/>
      <point x="171" y="666"/>
      <point x="202" y="704"/>
      <point x="260" y="704" type="curve" smooth="yes"/>
      <point x="267" y="704" type="line" smooth="yes"/>
      <point x="326" y="704"/>
      <point x="357" y="666"/>
      <point x="357" y="621" type="curve" smooth="yes"/>
      <point x="357" y="613" type="line" smooth="yes"/>
      <point x="357" y="552"/>
      <point x="300" y="515"/>
      <point x="234" y="475" type="curve"/>
      <point x="199" y="516"/>
      <point x="171" y="560"/>
      <point x="171" y="613" type="curve" smooth="yes"/>
    </contour>
  </outline>
</glyph>
<glyph name="quotesingle" format="1">
  <advance width="234"/>
  <unicode hex="0027"/>
  <outline>
    <contour>
      <point x="61" y="780" type="line"/>
      <point x="79" y="492" type="line"/>
      <point x="155" y="492" type="line"/>
      <point x="173" y="780" type="line"/>
    </contour>
  </outline>
</glyph>
<glyph name="parenleft" format="1">
  <advance width="334"/>
  <unicode hex="0028"/>
  <outline>
    <contour>
      <point x="46" y="350" type="line" smooth="yes"/>
      <point x="46" y="119"/>
      <point x="115" y="-2"/>
      <point x="198" y="-120" type="curve"/>
      <point x="305" y="-120" type="line"/>
      <point x="217" y="8"/>
      <point x="148" y="139"/>
      <point x="148" y="350" type="curve" smooth="yes"/>
      <point x="148" y="370" type="line" smooth="yes"/>
      <point x="148" y="581"/>
      <point x="217" y="712"/>
      <point x="305" y="840" type="curve"/>
      <point x="198" y="840" type="line"/>
      <point x="115" y="722"/>
      <point x="46" y="601"/>
      <point x="46" y="370" type="curve" smooth="yes"/>
    </contour>
  </outline>
</glyph>
<glyph name="parenright" format="1">
  <advance width="334"/>
  <unicode hex="0029"/>
  <outline>
    <contour>
      <point x="288" y="370" type="line" smooth="yes"/>
      <point x="288" y="601"/>
      <point x="219" y="722"/>
      <point x="136" y="840" type="curve"/>
      <point x="29" y="840" type="line"/>
      <point x="117" y="712"/>
      <point x="186" y="581"/>
      <point x="186" y="370" type="curve" smooth="yes"/>
      <point x="186" y="350" type="line" smooth="yes"/>
      <point x="186" y="139"/>
      <point x="117" y="8"/>
      <point x="29" y="-120" type="curve"/>
      <point x="136" y="-120" type="line"/>
      <point x="219" y="-2"/>
      <point x="288" y="119"/>
      <point x="288" y="350" type="curve" smooth="yes"/>
    </contour>
  </outline>
</glyph>
<glyph name="asterisk" format="1">
  <advance width="397"/>
  <unicode hex="002A"/>
  <outline>
    <contour>
      <point x="166" y="800" type="line"/>
      <point x="171" y="659" type="line"/>
      <point x="226" y="659" type="line"/>
      <point x="231" y="800" type="line"/>
    </contour>
    <contour>
      <point x="8" y="638" type="line"/>
      <point x="145" y="599" type="line"/>
      <point x="162" y="652" type="line"/>
      <point x="29" y="701" type="line"/>
    </contour>
    <contour>
      <point x="114" y="438" type="line"/>
      <point x="193" y="556" type="line"/>
      <point x="148" y="588" type="line"/>
      <point x="61" y="477" type="line"/>
    </contour>
    <contour>
      <point x="368" y="701" type="line"/>
      <point x="235" y="652" type="line"/>
      <point x="252" y="599" type="line"/>
      <point x="389" y="638" type="line"/>
    </contour>
    <contour>
      <point x="336" y="477" type="line"/>
      <point x="249" y="588" type="line"/>
      <point x="204" y="556" type="line"/>
      <point x="283" y="438" type="line"/>
    </contour>
  </outline>
</glyph>
<glyph name="plus" format="1">
  <advance width="600"/>
  <unicode hex="002B"/>
  <outline>
    <contour>
      <point x="254" y="644" type="line"/>
      <point x="254" y="436" type="line"/>
      <point x="46" y="436" type="line"/>
      <point x="46" y="344" type="line"/>
      <point x="254" y="344" type="line"/>
      <point x="254" y="136" type="line"/>
      <point x="346" y="136" type="line"/>
      <point x="346" y="344" type="line"/>
      <point x="554" y="344" type="line"/>
      <point x="554" y="436" type="line"/>
      <point x="346" y="436" type="line"/>
      <point x="346" y="644" type="line"/>
    </contour>
  </outline>
</glyph>
<glyph name="comma" format="1">
  <advance width="234"/>
  <unicode hex="002C"/>
  <outline>
    <contour>
      <point x="174" y="114" type="line"/>
      <point x="60" y="114" type="line"/>
      <point x="60" y="0" type="line"/>
      <point x="118" y="0" type="line"/>
      <point x="112" y="-51"/>
      <point x="87" y="-71"/>
      <point x="42" y="-71" type="curve"/>
      <point x="42" y="-127" type="line"/>
      <point x="130" y="-127"/>
      <point x="174" y="-76"/>
      <point x="174" y="24" type="curve" smooth="yes"/>
    </contour>
  </outline>
</glyph>
<glyph name="hyphen" format="1">
  <advance width="337"/>
  <unicode hex="002D"/>
  <outline>
    <contour>
      <point x="40" y="305" type="line"/>
      <point x="297" y="305" type="line"/>
      <point x="297" y="395" type="line"/>
      <point x="40" y="395" type="line"/>
    </contour>
  </outline>
</glyph>
<glyph name="period" format="1">
  <advance width="234"/>
  <unicode hex="002E"/>
  <outline>
    <contour>
      <point x="174" y="114" type="line"/>
      <point x="60" y="114" type="line"/>
      <point x="60" y="0" type="line"/>
      <point x="174" y="0" type="line"/>
    </contour>
  </outline>
</glyph>
<glyph name="slash" format="1">
  <advance width="360"/>
  <unicode hex="002F"/>
  <outline>
    <contour>
      <point x="345" y="840" type="line"/>
      <point x="245" y="840" type="line"/>
      <point x="15" y="-120" type="line"/>
      <point x="115" y="-120" type="line"/>
    </contour>
  </outline>
</glyph>
<glyph name="zero" format="1">
  <advance width="600"/>
  <unicode hex="0030"/>
  <outline>
    <contour>
      <point x="544" y="223" type="curve" smooth="yes"/>
      <point x="544" y="557" type="line" smooth="yes"/>
      <point x="544" y="692"/>
      <point x="470" y="792"/>
      <point x="300" y="792" type="curve" smooth="yes"/>
      <point x="130" y="792"/>
      <point x="56" y="692"/>
      <point x="56" y="557" type="curve" smooth="yes"/>
      <point x="56" y="223" type="line" smooth="yes"/>
      <point x="56" y="88"/>
      <point x="130" y="-12"/>
      <point x="300" y="-12" type="curve" smooth="yes"/>
      <point x="470" y="-12"/>
      <point x="544" y="88"/>
    </contour>
    <contour>
      <point x="441" y="551" type="curve" smooth="yes"/>
      <point x="441" y="229" type="line" smooth="yes"/>
      <point x="441" y="139"/>
      <point x="404" y="79"/>
      <point x="303" y="79" type="curve" smooth="yes"/>
      <point x="297" y="79" type="line" smooth="yes"/>
      <point x="196" y="79"/>
      <point x="159" y="139"/>
      <point x="159" y="229" type="curve" smooth="yes"/>
      <point x="159" y="551" type="line" smooth="yes"/>
      <point x="159" y="641"/>
      <point x="196" y="701"/>
      <point x="297" y="701" type="curve" smooth="yes"/>
      <point x="303" y="701" type="line" smooth="yes"/>
      <point x="404" y="701"/>
      <point x="441" y="641"/>
    </contour>
  </outline>
</glyph>
<glyph name="one" format="1">
  <advance width="600"/>
  <unicode hex="0031"/>
  <outline>
    <contour>
      <point x="553" y="0" type="line"/>
      <point x="553" y="92" type="line"/>
      <point x="361" y="92" type="line"/>
      <point x="361" y="783" type="line"/>
      <point x="290" y="783" type="line"/>
      <point x="46" y="617" type="line"/>
      <point x="97" y="541" type="line"/>
      <point x="259" y="651" type="line"/>
      <point x="259" y="92" type="line"/>
      <point x="67" y="92" type="line"/>
      <point x="67" y="0" type="line"/>
    </contour>
  </outline>
</glyph>
<glyph name="two" format="1">
  <advance width="600"/>
  <unicode hex="0032"/>
  <outline>
    <contour>
      <point x="275" y="92" type="line"/>
      <point x="203" y="91" type="line"/>
      <point x="459" y="366" type="line" smooth="yes"/>
      <point x="525" y="436"/>
      <point x="548" y="482"/>
      <point x="548" y="567" type="curve" smooth="yes"/>
      <point x="548" y="581" type="line" smooth="yes"/>
      <point x="548" y="696"/>
      <point x="469" y="792"/>
      <point x="300" y="792" type="curve" smooth="yes"/>
      <point x="129" y="792"/>
      <point x="52" y="704"/>
      <point x="52" y="542" type="curve" smooth="yes"/>
      <point x="52" y="520" type="line"/>
      <point x="154" y="520" type="line"/>
      <point x="154" y="650"/>
      <point x="203" y="701"/>
      <point x="296" y="701" type="curve" smooth="yes"/>
      <point x="304" y="701" type="line" smooth="yes"/>
      <point x="388" y="701"/>
      <point x="445" y="651"/>
      <point x="445" y="563" type="curve" smooth="yes"/>
      <point x="445" y="553" type="line" smooth="yes"/>
      <point x="445" y="501"/>
      <point x="427" y="467"/>
      <point x="376" y="413" type="curve" smooth="yes"/>
      <point x="52" y="64" type="line"/>
      <point x="52" y="0" type="line"/>
      <point x="548" y="0" type="line"/>
      <point x="548" y="92" type="line"/>
    </contour>
  </outline>
</glyph>
<glyph name="three" format="1">
  <advance width="600"/>
  <unicode hex="0033"/>
  <outline>
    <contour>
      <point x="149" y="250" type="curve"/>
      <point x="47" y="250" type="line"/>
      <point x="47" y="238" type="line" smooth="yes"/>
      <point x="47" y="82"/>
      <point x="128" y="-12"/>
      <point x="300" y="-12" type="curve" smooth="yes"/>
      <point x="461" y="-12"/>
      <point x="553" y="88"/>
      <point x="553" y="203" type="curve" smooth="yes"/>
      <point x="553" y="220" type="line" smooth="yes"/>
      <point x="553" y="312"/>
      <point x="505" y="370"/>
      <point x="440" y="398" type="curve"/>
      <point x="502" y="426"/>
      <point x="548" y="480"/>
      <point x="548" y="568" type="curve" smooth="yes"/>
      <point x="548" y="585" type="line" smooth="yes"/>
      <point x="548" y="696"/>
      <point x="469" y="792"/>
      <point x="300" y="792" type="curve" smooth="yes"/>
      <point x="129" y="792"/>
      <point x="52" y="704"/>
      <point x="52" y="542" type="curve" smooth="yes"/>
      <point x="52" y="520" type="line"/>
      <point x="154" y="520" type="line"/>
      <point x="154" y="650"/>
      <point x="202" y="701"/>
      <point x="295" y="701" type="curve" smooth="yes"/>
      <point x="305" y="701" type="line" smooth="yes"/>
      <point x="389" y="701"/>
      <point x="445" y="651"/>
      <point x="445" y="573" type="curve" smooth="yes"/>
      <point x="445" y="565" type="line" smooth="yes"/>
      <point x="445" y="481"/>
      <point x="387" y="443"/>
      <point x="308" y="443" type="curve" smooth="yes"/>
      <point x="200" y="443" type="line"/>
      <point x="200" y="353" type="line"/>
      <point x="312" y="353" type="line" smooth="yes"/>
      <point x="392" y="353"/>
      <point x="450" y="310"/>
      <point x="450" y="224" type="curve" smooth="yes"/>
      <point x="450" y="211" type="line" smooth="yes"/>
      <point x="450" y="120"/>
      <point x="381" y="79"/>
      <point x="305" y="79" type="curve" smooth="yes"/>
      <point x="295" y="79" type="line" smooth="yes"/>
      <point x="206" y="79"/>
      <point x="149" y="129"/>
    </contour>
  </outline>
</glyph>
<glyph name="four" format="1">
  <advance width="600"/>
  <unicode hex="0034"/>
  <outline>
    <contour>
      <point x="455" y="0" type="line"/>
      <point x="455" y="194" type="line"/>
      <point x="569" y="194" type="line"/>
      <point x="569" y="286" type="line"/>
      <point x="455" y="286" type="line"/>
      <point x="455" y="780" type="line"/>
      <point x="358" y="780" type="line"/>
      <point x="31" y="264" type="line"/>
      <point x="31" y="194" type="line"/>
      <point x="353" y="194" type="line"/>
      <point x="353" y="0" type="line"/>
    </contour>
    <contour>
      <point x="355" y="614" type="line"/>
      <point x="353" y="527" type="line"/>
      <point x="353" y="286" type="line"/>
      <point x="218" y="286" type="line"/>
      <point x="144" y="284" type="line"/>
    </contour>
  </outline>
</glyph>
<glyph name="five" format="1">
  <advance width="600"/>
  <unicode hex="0035"/>
  <outline>
    <contour>
      <point x="47" y="250" type="line"/>
      <point x="47" y="238" type="line" smooth="yes"/>
      <point x="47" y="82"/>
      <point x="128" y="-12"/>
      <point x="300" y="-12" type="curve" smooth="yes"/>
      <point x="453" y="-12"/>
      <point x="553" y="78"/>
      <point x="553" y="236" type="curve" smooth="yes"/>
      <point x="553" y="251" type="line" smooth="yes"/>
      <point x="553" y="408"/>
      <point x="453" y="498"/>
      <point x="304" y="498" type="curve" smooth="yes"/>
      <point x="243" y="498"/>
      <point x="189" y="481"/>
      <point x="148" y="453" type="curve"/>
      <point x="159" y="688" type="line"/>
      <point x="543" y="688" type="line"/>
      <point x="543" y="780" type="line"/>
      <point x="71" y="780" type="line"/>
      <point x="53" y="346" type="line"/>
      <point x="139" y="317" type="line"/>
      <point x="166" y="378"/>
      <point x="232" y="408"/>
      <point x="293" y="408" type="curve" smooth="yes"/>
      <point x="301" y="408" type="line" smooth="yes"/>
      <point x="381" y="408"/>
      <point x="450" y="362"/>
      <point x="450" y="251" type="curve" smooth="yes"/>
      <point x="450" y="236" type="line" smooth="yes"/>
      <point x="450" y="125"/>
      <point x="381" y="79"/>
      <point x="305" y="79" type="curve" smooth="yes"/>
      <point x="295" y="79" type="line" smooth="yes"/>
      <point x="206" y="79"/>
      <point x="149" y="129"/>
      <point x="149" y="250" type="curve"/>
    </contour>
  </outline>
</glyph>
<glyph name="six" format="1">
  <advance width="600"/>
  <unicode hex="0036"/>
  <outline>
    <contour>
      <point x="519" y="792" type="line"/>
      <point x="382" y="792"/>
      <point x="245" y="751"/>
      <point x="159" y="636" type="curve" smooth="yes"/>
      <point x="76" y="525"/>
      <point x="49" y="402"/>
      <point x="49" y="278" type="curve" smooth="yes"/>
      <point x="49" y="267" type="line" smooth="yes"/>
      <point x="49" y="92"/>
      <point x="150" y="-12"/>
      <point x="303" y="-12" type="curve" smooth="yes"/>
      <point x="460" y="-12"/>
      <point x="556" y="75"/>
      <point x="556" y="235" type="curve" smooth="yes"/>
      <point x="556" y="245" type="line" smooth="yes"/>
      <point x="556" y="406"/>
      <point x="461" y="491"/>
      <point x="327" y="491" type="curve" smooth="yes"/>
      <point x="260" y="491"/>
      <point x="208" y="466"/>
      <point x="170" y="430" type="curve"/>
      <point x="184" y="484"/>
      <point x="206" y="533"/>
      <point x="240" y="577" type="curve" smooth="yes"/>
      <point x="308" y="665"/>
      <point x="411" y="699"/>
      <point x="519" y="699" type="curve"/>
    </contour>
    <contour>
      <point x="305" y="399" type="curve" smooth="yes"/>
      <point x="310" y="399" type="line" smooth="yes"/>
      <point x="396" y="399"/>
      <point x="453" y="349"/>
      <point x="453" y="249" type="curve" smooth="yes"/>
      <point x="453" y="232" type="line" smooth="yes"/>
      <point x="453" y="134"/>
      <point x="394" y="80"/>
      <point x="306" y="80" type="curve" smooth="yes"/>
      <point x="300" y="80" type="line" smooth="yes"/>
      <point x="218" y="80"/>
      <point x="151" y="145"/>
      <point x="151" y="260" type="curve" smooth="yes"/>
      <point x="151" y="305" type="line"/>
      <point x="180" y="363"/>
      <point x="239" y="399"/>
    </contour>
  </outline>
</glyph>
<glyph name="seven" format="1">
  <advance width="600"/>
  <unicode hex="0037"/>
  <outline>
    <contour>
      <point x="50" y="500" type="line"/>
      <point x="142" y="500" type="line"/>
      <point x="142" y="688" type="line"/>
      <point x="334" y="688" type="line"/>
      <point x="440" y="690" type="line"/>
      <point x="155" y="0" type="line"/>
      <point x="264" y="0" type="line"/>
      <point x="556" y="717" type="line"/>
      <point x="556" y="780" type="line"/>
      <point x="50" y="780" type="line"/>
    </contour>
  </outline>
</glyph>
<glyph name="eight" format="1">
  <advance width="600"/>
  <unicode hex="0038"/>
  <outline>
    <contour>
      <point x="300" y="-12" type="curve" smooth="yes"/>
      <point x="461" y="-12"/>
      <point x="553" y="86"/>
      <point x="553" y="201" type="curve" smooth="yes"/>
      <point x="553" y="218" type="line" smooth="yes"/>
      <point x="553" y="311"/>
      <point x="504" y="369"/>
      <point x="439" y="398" type="curve"/>
      <point x="502" y="426"/>
      <point x="548" y="481"/>
      <point x="548" y="570" type="curve" smooth="yes"/>
      <point x="548" y="587" type="line" smooth="yes"/>
      <point x="548" y="698"/>
      <point x="469" y="792"/>
      <point x="300" y="792" type="curve" smooth="yes"/>
      <point x="131" y="792"/>
      <point x="52" y="698"/>
      <point x="52" y="587" type="curve" smooth="yes"/>
      <point x="52" y="570" type="line" smooth="yes"/>
      <point x="52" y="481"/>
      <point x="98" y="426"/>
      <point x="161" y="398" type="curve"/>
      <point x="95" y="369"/>
      <point x="47" y="311"/>
      <point x="47" y="218" type="curve" smooth="yes"/>
      <point x="47" y="201" type="line" smooth="yes"/>
      <point x="47" y="86"/>
      <point x="139" y="-12"/>
    </contour>
    <contour>
      <point x="288" y="353" type="curve" smooth="yes"/>
      <point x="312" y="353" type="line" smooth="yes"/>
      <point x="392" y="353"/>
      <point x="450" y="309"/>
      <point x="450" y="222" type="curve" smooth="yes"/>
      <point x="450" y="209" type="line" smooth="yes"/>
      <point x="450" y="118"/>
      <point x="381" y="79"/>
      <point x="305" y="79" type="curve" smooth="yes"/>
      <point x="295" y="79" type="line" smooth="yes"/>
      <point x="219" y="79"/>
      <point x="150" y="118"/>
      <point x="150" y="209" type="curve" smooth="yes"/>
      <point x="150" y="222" type="line" smooth="yes"/>
      <point x="150" y="309"/>
      <point x="208" y="353"/>
    </contour>
    <contour>
      <point x="305" y="701" type="line" smooth="yes"/>
      <point x="389" y="701"/>
      <point x="445" y="652"/>
      <point x="445" y="575" type="curve" smooth="yes"/>
      <point x="445" y="566" type="line" smooth="yes"/>
      <point x="445" y="483"/>
      <point x="387" y="443"/>
      <point x="308" y="443" type="curve" smooth="yes"/>
      <point x="292" y="443" type="line" smooth="yes"/>
      <point x="213" y="443"/>
      <point x="155" y="483"/>
      <point x="155" y="566" type="curve" smooth="yes"/>
      <point x="155" y="575" type="line" smooth="yes"/>
      <point x="155" y="652"/>
      <point x="211" y="701"/>
      <point x="295" y="701" type="curve" smooth="yes"/>
    </contour>
  </outline>
</glyph>
<glyph name="nine" format="1">
  <advance width="600"/>
  <unicode hex="0039"/>
  <outline>
    <contour>
      <point x="81" y="-12" type="line"/>
      <point x="218" y="-12"/>
      <point x="355" y="29"/>
      <point x="441" y="144" type="curve" smooth="yes"/>
      <point x="524" y="255"/>
      <point x="551" y="378"/>
      <point x="551" y="502" type="curve" smooth="yes"/>
      <point x="551" y="513" type="line" smooth="yes"/>
      <point x="551" y="688"/>
      <point x="450" y="792"/>
      <point x="297" y="792" type="curve" smooth="yes"/>
      <point x="140" y="792"/>
      <point x="44" y="705"/>
      <point x="44" y="545" type="curve" smooth="yes"/>
      <point x="44" y="535" type="line" smooth="yes"/>
      <point x="44" y="374"/>
      <point x="139" y="289"/>
      <point x="273" y="289" type="curve" smooth="yes"/>
      <point x="339" y="289"/>
      <point x="391" y="313"/>
      <point x="430" y="349" type="curve"/>
      <point x="416" y="296"/>
      <point x="394" y="246"/>
      <point x="360" y="203" type="curve" smooth="yes"/>
      <point x="292" y="115"/>
      <point x="189" y="81"/>
      <point x="81" y="81" type="curve"/>
    </contour>
    <contour>
      <point x="295" y="381" type="curve" smooth="yes"/>
      <point x="290" y="381" type="line" smooth="yes"/>
      <point x="204" y="381"/>
      <point x="147" y="431"/>
      <point x="147" y="531" type="curve" smooth="yes"/>
      <point x="147" y="548" type="line" smooth="yes"/>
      <point x="147" y="646"/>
      <point x="206" y="700"/>
      <point x="294" y="700" type="curve" smooth="yes"/>
      <point x="300" y="700" type="line" smooth="yes"/>
      <point x="382" y="700"/>
      <point x="449" y="635"/>
      <point x="449" y="520" type="curve" smooth="yes"/>
      <point x="449" y="510" type="line" smooth="yes"/>
      <point x="449" y="498"/>
      <point x="449" y="486"/>
      <point x="448" y="474" type="curve"/>
      <point x="419" y="417"/>
      <point x="360" y="381"/>
    </contour>
  </outline>
</glyph>
<glyph name="colon" format="1">
  <advance width="234"/>
  <unicode hex="003A"/>
  <outline>
    <contour>
      <point x="174" y="114" type="line"/>
      <point x="60" y="114" type="line"/>
      <point x="60" y="0" type="line"/>
      <point x="174" y="0" type="line"/>
    </contour>
    <contour>
      <point x="174" y="447" type="line"/>
      <point x="60" y="447" type="line"/>
      <point x="60" y="333" type="line"/>
      <point x="174" y="333" type="line"/>
    </contour>
  </outline>
</glyph>
<glyph name="less" format="1">
  <advance width="600"/>
  <unicode hex="003C"/>
  <outline>
    <contour>
      <point x="46" y="440" type="line"/>
      <point x="46" y="340" type="line"/>
      <point x="554" y="115" type="line"/>
      <point x="554" y="217" type="line"/>
      <point x="150" y="390" type="line"/>
      <point x="554" y="563" type="line"/>
      <point x="554" y="665" type="line"/>
    </contour>
  </outline>
</glyph>
<glyph name="equal" format="1">
  <advance width="600"/>
  <unicode hex="003D"/>
  <outline>
    <contour>
      <point x="46" y="448" type="line"/>
      <point x="554" y="448" type="line"/>
      <point x="554" y="541" type="line"/>
      <point x="46" y="541" type="line"/>
    </contour>
    <contour>
      <point x="46" y="239" type="line"/>
      <point x="554" y="239" type="line"/>
      <point x="554" y="332" type="line"/>
      <point x="46" y="332" type="line"/>
    </contour>
  </outline>
</glyph>
<glyph name="greater" format="1">
  <advance width="600"/>
  <unicode hex="003E"/>
  <outline>
    <contour>
      <point x="554" y="440" type="line"/>
      <point x="46" y="665" type="line"/>
      <point x="46" y="563" type="line"/>
      <point x="450" y="390" type="line"/>
      <point x="46" y="217" type="line"/>
      <point x="46" y="115" type="line"/>
      <point x="554" y="340" type="line"/>
    </contour>
  </outline>
</glyph>
<glyph name="question" format="1">
  <advance width="470"/>
  <unicode hex="003F"/>
  <outline>
    <contour>
      <point x="239" y="701" type="curve" smooth="yes"/>
      <point x="318" y="701"/>
      <point x="342" y="652"/>
      <point x="342" y="580" type="curve" smooth="yes"/>
      <point x="342" y="455"/>
      <point x="188" y="400"/>
      <point x="198" y="203" type="curve"/>
      <point x="267" y="203" type="line"/>
      <point x="278" y="399"/>
      <point x="445" y="386"/>
      <point x="445" y="586" type="curve" smooth="yes"/>
      <point x="445" y="702"/>
      <point x="391" y="792"/>
      <point x="239" y="792" type="curve" smooth="yes"/>
      <point x="73" y="792"/>
      <point x="25" y="682"/>
      <point x="25" y="522" type="curve" smooth="yes"/>
      <point x="25" y="509" type="line"/>
      <point x="127" y="509" type="line"/>
      <point x="127" y="631"/>
      <point x="152" y="701"/>
    </contour>
    <contour>
      <point x="290" y="114" type="line"/>
      <point x="176" y="114" type="line"/>
      <point x="176" y="0" type="line"/>
      <point x="290" y="0" type="line"/>
    </contour>
  </outline>
</glyph>
<glyph name="at" format="1">
  <advance width="971"/>
  <unicode hex="0040"/>
  <outline>
    <contour>
      <point x="506" y="-140" type="line" smooth="yes"/>
      <point x="270" y="-140"/>
      <point x="105" y="1"/>
      <point x="105" y="270" type="curve" smooth="yes"/>
      <point x="105" y="310" type="line" smooth="yes"/>
      <point x="105" y="573"/>
      <point x="268" y="720"/>
      <point x="501" y="720" type="curve" smooth="yes"/>
      <point x="507" y="720" type="line" smooth="yes"/>
      <point x="689" y="720"/>
      <point x="864" y="635"/>
      <point x="864" y="392" type="curve" smooth="yes"/>
      <point x="864" y="362" type="line" smooth="yes"/>
      <point x="864" y="175"/>
      <point x="797" y="135"/>
      <point x="676" y="131" type="curve"/>
      <point x="676" y="387" type="line"/>
      <point x="684" y="530" type="line"/>
      <point x="605" y="530" type="line"/>
      <point x="594" y="461" type="line"/>
      <point x="566" y="506"/>
      <point x="519" y="542"/>
      <point x="445" y="542" type="curve" smooth="yes"/>
      <point x="311" y="542"/>
      <point x="253" y="435"/>
      <point x="253" y="308" type="curve" smooth="yes"/>
      <point x="253" y="282" type="line" smooth="yes"/>
      <point x="253" y="155"/>
      <point x="311" y="48"/>
      <point x="445" y="48" type="curve" smooth="yes"/>
      <point x="519" y="48"/>
      <point x="566" y="83"/>
      <point x="594" y="128" type="curve"/>
      <point x="605" y="60" type="line"/>
      <point x="671" y="60" type="line" smooth="yes"/>
      <point x="826" y="60"/>
      <point x="941" y="122"/>
      <point x="941" y="362" type="curve" smooth="yes"/>
      <point x="941" y="392" type="line" smooth="yes"/>
      <point x="941" y="668"/>
      <point x="740" y="792"/>
      <point x="504" y="792" type="curve" smooth="yes"/>
      <point x="226" y="792"/>
      <point x="31" y="616"/>
      <point x="31" y="310" type="curve" smooth="yes"/>
      <point x="31" y="270" type="line" smooth="yes"/>
      <point x="31" y="-36"/>
      <point x="228" y="-212"/>
      <point x="509" y="-212" type="curve" smooth="yes"/>
      <point x="626" y="-212"/>
      <point x="758" y="-189"/>
      <point x="883" y="-90" type="curve"/>
      <point x="841" y="-34" type="line"/>
      <point x="741" y="-107"/>
      <point x="633" y="-140"/>
      <point x="512" y="-140" type="curve" smooth="yes"/>
    </contour>
    <contour>
      <point x="585" y="391" type="curve"/>
      <point x="585" y="199" type="line"/>
      <point x="567" y="170"/>
      <point x="528" y="130"/>
      <point x="470" y="130" type="curve" smooth="yes"/>
      <point x="386" y="130"/>
      <point x="349" y="193"/>
      <point x="349" y="282" type="curve" smooth="yes"/>
      <point x="349" y="308" type="line" smooth="yes"/>
      <point x="349" y="397"/>
      <point x="386" y="460"/>
      <point x="470" y="460" type="curve" smooth="yes"/>
      <point x="528" y="460"/>
      <point x="567" y="420"/>
    </contour>
  </outline>
</glyph>
<glyph name="C" format="1">
  <advance width="630"/>
  <unicode hex="0043"/>
  <outline>
    <contour>
      <point x="157" y="370" type="curve" smooth="yes"/>
      <point x="157" y="410" type="line" smooth="yes"/>
      <point x="157" y="608"/>
      <point x="204" y="700"/>
      <point x="325" y="700" type="curve" smooth="yes"/>
      <point x="332" y="700" type="line" smooth="yes"/>
      <point x="438" y="700"/>
      <point x="478" y="633"/>
      <point x="478" y="491" type="curve"/>
      <point x="583" y="491" type="line"/>
      <point x="583" y="522" type="line" smooth="yes"/>
      <point x="583" y="706"/>
      <point x="498" y="792"/>
      <point x="325" y="792" type="curve" smooth="yes"/>
      <point x="138" y="792"/>
      <point x="50" y="680"/>
      <point x="50" y="410" type="curve" smooth="yes"/>
      <point x="50" y="370" type="line" smooth="yes"/>
      <point x="50" y="100"/>
      <point x="138" y="-12"/>
      <point x="325" y="-12" type="curve" smooth="yes"/>
      <point x="498" y="-12"/>
      <point x="583" y="74"/>
      <point x="583" y="249" type="curve" smooth="yes"/>
      <point x="583" y="259" type="line"/>
      <point x="478" y="259" type="line"/>
      <point x="478" y="146"/>
      <point x="436" y="80"/>
      <point x="332" y="80" type="curve" smooth="yes"/>
      <point x="325" y="80" type="line" smooth="yes"/>
      <point x="203" y="80"/>
      <point x="157" y="172"/>
    </contour>
  </outline>
</glyph>
<glyph name="D" format="1">
  <advance width="647"/>
  <unicode hex="0044"/>
  <outline>
    <contour>
      <point x="597" y="370" type="curve" smooth="yes"/>
      <point x="597" y="410" type="line" smooth="yes"/>
      <point x="597" y="680"/>
      <point x="491" y="780"/>
      <point x="286" y="780" type="curve" smooth="yes"/>
      <point x="67" y="780" type="line"/>
      <point x="67" y="0" type="line"/>
      <point x="286" y="0" type="line" smooth="yes"/>
      <point x="491" y="0"/>
      <point x="597" y="100"/>
    </contour>
    <contour>
      <point x="171" y="92" type="line"/>
      <point x="171" y="688" type="line"/>
      <point x="279" y="688" type="line" smooth="yes"/>
      <point x="423" y="688"/>
      <point x="490" y="608"/>
      <point x="490" y="410" type="curve" smooth="yes"/>
      <point x="490" y="370" type="line" smooth="yes"/>
      <point x="490" y="172"/>
      <point x="423" y="92"/>
      <point x="279" y="92" type="curve" smooth="yes"/>
    </contour>
  </outline>
</glyph>
<glyph name="F" format="1">
  <advance width="526"/>
  <unicode hex="0046"/>
  <outline>
    <contour>
      <point x="67" y="780" type="line"/>
      <point x="67" y="0" type="line"/>
      <point x="171" y="0" type="line"/>
      <point x="171" y="352" type="line"/>
      <point x="456" y="352" type="line"/>
      <point x="456" y="444" type="line"/>
      <point x="171" y="444" type="line"/>
      <point x="171" y="688" type="line"/>
      <point x="506" y="688" type="line"/>
      <point x="506" y="780" type="line"/>
    </contour>
  </outline>
</glyph>
<glyph name="H" format="1">
  <advance width="647"/>
  <unicode hex="0048"/>
  <outline>
    <contour>
      <point x="476" y="780" type="line"/>
      <point x="476" y="444" type="line"/>
      <point x="171" y="444" type="line"/>
      <point x="171" y="780" type="line"/>
      <point x="67" y="780" type="line"/>
      <point x="67" y="0" type="line"/>
      <point x="171" y="0" type="line"/>
      <point x="171" y="352" type="line"/>
      <point x="476" y="352" type="line"/>
      <point x="476" y="0" type="line"/>
      <point x="580" y="0" type="line"/>
      <point x="580" y="780" type="line"/>
    </contour>
  </outline>
</glyph>
<glyph name="J" format="1">
  <advance width="510"/>
  <unicode hex="004A"/>
  <outline>
    <contour>
      <point x="344" y="780" type="line"/>
      <point x="344" y="254" type="line" smooth="yes"/>
      <point x="344" y="136"/>
      <point x="315" y="80"/>
      <point x="234" y="80" type="curve" smooth="yes"/>
      <point x="154" y="80"/>
      <point x="125" y="136"/>
      <point x="125" y="259" type="curve"/>
      <point x="27" y="259" type="line"/>
      <point x="27" y="240" type="line" smooth="yes"/>
      <point x="27" y="80"/>
      <point x="80" y="-12"/>
      <point x="237" y="-12" type="curve" smooth="yes"/>
      <point x="389" y="-12"/>
      <point x="448" y="82"/>
      <point x="448" y="239" type="curve" smooth="yes"/>
      <point x="448" y="780" type="line"/>
    </contour>
  </outline>
</glyph>
<glyph name="K" format="1">
  <advance width="585"/>
  <unicode hex="004B"/>
  <outline>
    <contour>
      <point x="171" y="780" type="line"/>
      <point x="67" y="780" type="line"/>
      <point x="67" y="0" type="line"/>
      <point x="171" y="0" type="line"/>
      <point x="171" y="234" type="line"/>
      <point x="263" y="365" type="line"/>
      <point x="439" y="0" type="line"/>
      <point x="555" y="0" type="line"/>
      <point x="328" y="457" type="line"/>
      <point x="555" y="780" type="line"/>
      <point x="429" y="780" type="line"/>
      <point x="171" y="395" type="line"/>
    </contour>
  </outline>
</glyph>
<glyph name="L" format="1">
  <advance width="501"/>
  <unicode hex="004C"/>
  <outline>
    <contour>
      <point x="486" y="0" type="line"/>
      <point x="486" y="92" type="line"/>
      <point x="171" y="92" type="line"/>
      <point x="171" y="780" type="line"/>
      <point x="67" y="780" type="line"/>
      <point x="67" y="0" type="line"/>
    </contour>
  </outline>
</glyph>
<glyph name="M" format="1">
  <advance width="827"/>
  <unicode hex="004D"/>
  <outline>
    <contour>
      <point x="660" y="599" type="line"/>
      <point x="656" y="432" type="line"/>
      <point x="656" y="0" type="line"/>
      <point x="760" y="0" type="line"/>
      <point x="760" y="780" type="line"/>
      <point x="609" y="780" type="line"/>
      <point x="413" y="180" type="line"/>
      <point x="218" y="780" type="line"/>
      <point x="67" y="780" type="line"/>
      <point x="67" y="0" type="line"/>
      <point x="171" y="0" type="line"/>
      <point x="171" y="432" type="line"/>
      <point x="167" y="599" type="line"/>
      <point x="363" y="0" type="line"/>
      <point x="464" y="0" type="line"/>
    </contour>
  </outline>
</glyph>
<glyph name="N" format="1">
  <advance width="667"/>
  <unicode hex="004E"/>
  <outline>
    <contour>
      <point x="600" y="780" type="line"/>
      <point x="501" y="780" type="line"/>
      <point x="501" y="357" type="line"/>
      <point x="505" y="184" type="line"/>
      <point x="178" y="780" type="line"/>
      <point x="67" y="780" type="line"/>
      <point x="67" y="0" type="line"/>
      <point x="166" y="0" type="line"/>
      <point x="166" y="423" type="line"/>
      <point x="162" y="596" type="line"/>
      <point x="489" y="0" type="line"/>
      <point x="600" y="0" type="line"/>
    </contour>
  </outline>
</glyph>
<glyph name="O" format="1">
  <advance width="657"/>
  <unicode hex="004F"/>
  <outline>
    <contour>
      <point x="329" y="-12" type="curve" smooth="yes"/>
      <point x="516" y="-12"/>
      <point x="607" y="100"/>
      <point x="607" y="370" type="curve" smooth="yes"/>
      <point x="607" y="410" type="line" smooth="yes"/>
      <point x="607" y="680"/>
      <point x="516" y="792"/>
      <point x="329" y="792" type="curve" smooth="yes"/>
      <point x="141" y="792"/>
      <point x="50" y="680"/>
      <point x="50" y="410" type="curve" smooth="yes"/>
      <point x="50" y="370" type="line" smooth="yes"/>
      <point x="50" y="100"/>
      <point x="141" y="-12"/>
    </contour>
    <contour>
      <point x="325" y="80" type="line" smooth="yes"/>
      <point x="205" y="80"/>
      <point x="157" y="172"/>
      <point x="157" y="370" type="curve" smooth="yes"/>
      <point x="157" y="410" type="line" smooth="yes"/>
      <point x="157" y="608"/>
      <point x="205" y="700"/>
      <point x="325" y="700" type="curve" smooth="yes"/>
      <point x="332" y="700" type="line" smooth="yes"/>
      <point x="452" y="700"/>
      <point x="500" y="608"/>
      <point x="500" y="410" type="curve" smooth="yes"/>
      <point x="500" y="370" type="line" smooth="yes"/>
      <point x="500" y="172"/>
      <point x="452" y="80"/>
      <point x="332" y="80" type="curve" smooth="yes"/>
    </contour>
  </outline>
</glyph>
<glyph name="P" format="1">
  <advance width="586"/>
  <unicode hex="0050"/>
  <outline>
    <contour>
      <point x="171" y="304" type="line"/>
      <point x="298" y="304" type="line" smooth="yes"/>
      <point x="415" y="304"/>
      <point x="548" y="342"/>
      <point x="548" y="532" type="curve" smooth="yes"/>
      <point x="548" y="552" type="line" smooth="yes"/>
      <point x="548" y="741"/>
      <point x="415" y="780"/>
      <point x="298" y="780" type="curve" smooth="yes"/>
      <point x="67" y="780" type="line"/>
      <point x="67" y="0" type="line"/>
      <point x="171" y="0" type="line"/>
    </contour>
    <contour>
      <point x="171" y="395" type="line"/>
      <point x="171" y="688" type="line"/>
      <point x="301" y="688" type="line" smooth="yes"/>
      <point x="361" y="688"/>
      <point x="442" y="666"/>
      <point x="442" y="548" type="curve" smooth="yes"/>
      <point x="442" y="535" type="line" smooth="yes"/>
      <point x="442" y="417"/>
      <point x="361" y="395"/>
      <point x="301" y="395" type="curve" smooth="yes"/>
    </contour>
  </outline>
</glyph>
<glyph name="Q" format="1">
  <advance width="657"/>
  <unicode hex="0051"/>
  <outline>
    <contour>
      <point x="329" y="-12" type="curve" smooth="yes"/>
      <point x="345" y="-12"/>
      <point x="361" y="-11"/>
      <point x="376" y="-9" type="curve"/>
      <point x="411" y="-100" type="line"/>
      <point x="498" y="-100" type="line"/>
      <point x="455" y="11" type="line"/>
      <point x="557" y="56"/>
      <point x="607" y="170"/>
      <point x="607" y="370" type="curve" smooth="yes"/>
      <point x="607" y="410" type="line" smooth="yes"/>
      <point x="607" y="680"/>
      <point x="516" y="792"/>
      <point x="329" y="792" type="curve" smooth="yes"/>
      <point x="141" y="792"/>
      <point x="50" y="680"/>
      <point x="50" y="410" type="curve" smooth="yes"/>
      <point x="50" y="370" type="line" smooth="yes"/>
      <point x="50" y="100"/>
      <point x="141" y="-12"/>
    </contour>
    <contour>
      <point x="366" y="239" type="line"/>
      <point x="283" y="239" type="line"/>
      <point x="343" y="80" type="line"/>
      <point x="325" y="80" type="line" smooth="yes"/>
      <point x="205" y="80"/>
      <point x="157" y="172"/>
      <point x="157" y="370" type="curve" smooth="yes"/>
      <point x="157" y="410" type="line" smooth="yes"/>
      <point x="157" y="608"/>
      <point x="205" y="700"/>
      <point x="325" y="700" type="curve" smooth="yes"/>
      <point x="332" y="700" type="line" smooth="yes"/>
      <point x="452" y="700"/>
      <point x="500" y="608"/>
      <point x="500" y="410" type="curve" smooth="yes"/>
      <point x="500" y="370" type="line" smooth="yes"/>
      <point x="500" y="229"/>
      <point x="476" y="142"/>
      <point x="419" y="103" type="curve"/>
    </contour>
  </outline>
</glyph>
<glyph name="T" format="1">
  <advance width="530"/>
  <unicode hex="0054"/>
  <outline>
    <contour>
      <point x="317" y="688" type="line"/>
      <point x="509" y="688" type="line"/>
      <point x="509" y="780" type="line"/>
      <point x="21" y="780" type="line"/>
      <point x="21" y="688" type="line"/>
      <point x="213" y="688" type="line"/>
      <point x="213" y="0" type="line"/>
      <point x="317" y="0" type="line"/>
    </contour>
  </outline>
</glyph>
<glyph name="V" format="1">
  <advance width="621"/>
  <unicode hex="0056"/>
  <outline>
    <contour>
      <point x="383" y="-6" type="line"/>
      <point x="598" y="780" type="line"/>
      <point x="486" y="780" type="line"/>
      <point x="311" y="111" type="line"/>
      <point x="135" y="780" type="line"/>
      <point x="23" y="780" type="line"/>
      <point x="238" y="-6" type="line"/>
    </contour>
  </outline>
</glyph>
<glyph name="W" format="1">
  <advance width="910"/>
  <unicode hex="0057"/>
  <outline>
    <contour>
      <point x="600" y="-6" type="line"/>
      <point x="737" y="-6" type="line"/>
      <point x="877" y="780" type="line"/>
      <point x="768" y="780" type="line"/>
      <point x="663" y="130" type="line"/>
      <point x="522" y="780" type="line"/>
      <point x="388" y="780" type="line"/>
      <point x="247" y="130" type="line"/>
      <point x="142" y="780" type="line"/>
      <point x="33" y="780" type="line"/>
      <point x="173" y="-6" type="line"/>
      <point x="310" y="-6" type="line"/>
      <point x="455" y="664" type="line"/>
    </contour>
  </outline>
</glyph>
<glyph name="X" format="1">
  <advance width="626"/>
  <unicode hex="0058"/>
  <outline>
    <contour>
      <point x="26" y="0" type="line"/>
      <point x="144" y="0" type="line"/>
      <point x="313" y="329" type="line"/>
      <point x="482" y="0" type="line"/>
      <point x="599" y="0" type="line"/>
      <point x="386" y="401" type="line"/>
      <point x="599" y="780" type="line"/>
      <point x="478" y="780" type="line"/>
      <point x="313" y="476" type="line"/>
      <point x="148" y="780" type="line"/>
      <point x="26" y="780" type="line"/>
      <point x="239" y="402" type="line"/>
    </contour>
  </outline>
</glyph>
<glyph name="Y" format="1">
  <advance width="594"/>
  <unicode hex="0059"/>
  <outline>
    <contour>
      <point x="349" y="237" type="line"/>
      <point x="578" y="780" type="line"/>
      <point x="465" y="780" type="line"/>
      <point x="297" y="366" type="line"/>
      <point x="129" y="780" type="line"/>
      <point x="16" y="780" type="line"/>
      <point x="245" y="237" type="line"/>
      <point x="245" y="0" type="line"/>
      <point x="349" y="0" type="line"/>
    </contour>
  </outline>
</glyph>
<glyph name="Z" format="1">
  <advance width="575"/>
  <unicode hex="005A"/>
  <outline>
    <contour>
      <point x="40" y="72" type="line"/>
      <point x="40" y="0" type="line"/>
      <point x="535" y="0" type="line"/>
      <point x="535" y="92" type="line"/>
      <point x="299" y="92" type="line"/>
      <point x="167" y="89" type="line"/>
      <point x="525" y="708" type="line"/>
      <point x="525" y="780" type="line"/>
      <point x="50" y="780" type="line"/>
      <point x="50" y="688" type="line"/>
      <point x="266" y="688" type="line"/>
      <point x="398" y="691" type="line"/>
    </contour>
  </outline>
</glyph>
<glyph name="bracketleft" format="1">
  <advance width="334"/>
  <unicode hex="005B"/>
  <outline>
    <contour>
      <point x="64" y="840" type="line"/>
      <point x="64" y="-120" type="line"/>
      <point x="296" y="-120" type="line"/>
      <point x="296" y="-29" type="line"/>
      <point x="165" y="-29" type="line"/>
      <point x="165" y="749" type="line"/>
      <point x="296" y="749" type="line"/>
      <point x="296" y="840" type="line"/>
    </contour>
  </outline>
</glyph>
<glyph name="bracketright" format="1">
  <advance width="334"/>
  <unicode hex="005D"/>
  <outline>
    <contour>
      <point x="271" y="-120" type="line"/>
      <point x="271" y="840" type="line"/>
      <point x="39" y="840" type="line"/>
      <point x="39" y="749" type="line"/>
      <point x="169" y="749" type="line"/>
      <point x="169" y="-29" type="line"/>
      <point x="39" y="-29" type="line"/>
      <point x="39" y="-120" type="line"/>
    </contour>
  </outline>
</glyph>
<glyph name="asciicircum" format="1">
  <advance width="600"/>
  <unicode hex="005E"/>
  <outline>
    <contour>
      <point x="350" y="780" type="line"/>
      <point x="250" y="780" type="line"/>
      <point x="25" y="271" type="line"/>
      <point x="127" y="271" type="line"/>
      <point x="300" y="676" type="line"/>
      <point x="473" y="271" type="line"/>
      <point x="575" y="271" type="line"/>
    </contour>
  </outline>
</glyph>
<glyph name="underscore" format="1">
  <advance width="320"/>
  <unicode hex="005F"/>
  <outline>
    <contour>
      <point x="46" y="-153" type="line"/>
      <point x="274" y="-153" type="line"/>
      <point x="274" y="-63" type="line"/>
      <point x="46" y="-63" type="line"/>
    </contour>
  </outline>
</glyph>
<glyph name="grave" format="1">
  <advance width="500"/>
  <unicode hex="0060"/>
  <outline>
    <contour>
      <point x="100" y="780" type="line"/>
      <point x="199" y="607" type="line"/>
      <point x="301" y="607" type="line"/>
      <point x="210" y="780" type="line"/>
    </contour>
  </outline>
</glyph>
<glyph name="b" format="1">
  <advance width="550"/>
  <unicode hex="0062"/>
  <outline>
    <contour>
      <point x="161" y="800" type="line"/>
      <point x="61" y="800" type="line"/>
      <point x="61" y="150" type="line"/>
      <point x="54" y="0" type="line"/>
      <point x="141" y="0" type="line"/>
      <point x="151" y="69" type="line"/>
      <point x="179" y="23"/>
      <point x="228" y="-12"/>
      <point x="307" y="-12" type="curve" smooth="yes"/>
      <point x="452" y="-12"/>
      <point x="508" y="102"/>
      <point x="508" y="251" type="curve" smooth="yes"/>
      <point x="508" y="279" type="line" smooth="yes"/>
      <point x="508" y="428"/>
      <point x="452" y="542"/>
      <point x="307" y="542" type="curve" smooth="yes"/>
      <point x="236" y="542"/>
      <point x="190" y="513"/>
      <point x="161" y="474" type="curve"/>
    </contour>
    <contour>
      <point x="161" y="383" type="line"/>
      <point x="180" y="412"/>
      <point x="217" y="454"/>
      <point x="281" y="454" type="curve" smooth="yes"/>
      <point x="368" y="454"/>
      <point x="407" y="387"/>
      <point x="407" y="279" type="curve" smooth="yes"/>
      <point x="407" y="251" type="line" smooth="yes"/>
      <point x="407" y="143"/>
      <point x="368" y="76"/>
      <point x="281" y="76" type="curve" smooth="yes"/>
      <point x="217" y="76"/>
      <point x="180" y="118"/>
      <point x="161" y="147" type="curve"/>
    </contour>
  </outline>
</glyph>
<glyph name="f" format="1">
  <advance width="391"/>
  <unicode hex="0066"/>
  <outline>
    <contour>
      <point x="210" y="629" type="line" smooth="yes"/>
      <point x="210" y="706"/>
      <point x="243" y="724"/>
      <point x="303" y="724" type="curve" smooth="yes"/>
      <point x="324" y="724"/>
      <point x="350" y="719"/>
      <point x="358" y="716" type="curve"/>
      <point x="358" y="800" type="line"/>
      <point x="350" y="804"/>
      <point x="324" y="812"/>
      <point x="280" y="812" type="curve" smooth="yes"/>
      <point x="180" y="812"/>
      <point x="110" y="766"/>
      <point x="110" y="640" type="curve" smooth="yes"/>
      <point x="110" y="530" type="line"/>
      <point x="27" y="530" type="line"/>
      <point x="27" y="441" type="line"/>
      <point x="110" y="441" type="line"/>
      <point x="110" y="0" type="line"/>
      <point x="210" y="0" type="line"/>
      <point x="210" y="441" type="line"/>
      <point x="348" y="441" type="line"/>
      <point x="348" y="530" type="line"/>
      <point x="210" y="530" type="line"/>
    </contour>
  </outline>
</glyph>
<glyph name="g" format="1">
  <advance width="550"/>
  <unicode hex="0067"/>
  <outline>
    <contour>
      <point x="389" y="3" type="line" smooth="yes"/>
      <point x="389" y="-85"/>
      <point x="354" y="-128"/>
      <point x="267" y="-128" type="curve" smooth="yes"/>
      <point x="179" y="-128"/>
      <point x="148" y="-83"/>
      <point x="148" y="0" type="curve"/>
      <point x="52" y="0" type="line"/>
      <point x="52" y="-16" type="line" smooth="yes"/>
      <point x="52" y="-124"/>
      <point x="107" y="-212"/>
      <point x="268" y="-212" type="curve" smooth="yes"/>
      <point x="424" y="-212"/>
      <point x="489" y="-128"/>
      <point x="489" y="0" type="curve" smooth="yes"/>
      <point x="489" y="380" type="line"/>
      <point x="496" y="530" type="line"/>
      <point x="409" y="530" type="line"/>
      <point x="399" y="462" type="line"/>
      <point x="371" y="507"/>
      <point x="322" y="542"/>
      <point x="243" y="542" type="curve" smooth="yes"/>
      <point x="100" y="542"/>
      <point x="42" y="431"/>
      <point x="42" y="295" type="curve" smooth="yes"/>
      <point x="42" y="271" type="line" smooth="yes"/>
      <point x="42" y="130"/>
      <point x="100" y="24"/>
      <point x="243" y="24" type="curve" smooth="yes"/>
      <point x="313" y="24"/>
      <point x="360" y="52"/>
      <point x="389" y="90" type="curve"/>
    </contour>
    <contour>
      <point x="389" y="383" type="curve"/>
      <point x="389" y="183" type="line"/>
      <point x="370" y="153"/>
      <point x="333" y="112"/>
      <point x="269" y="112" type="curve" smooth="yes"/>
      <point x="185" y="112"/>
      <point x="143" y="172"/>
      <point x="143" y="271" type="curve" smooth="yes"/>
      <point x="143" y="295" type="line" smooth="yes"/>
      <point x="143" y="390"/>
      <point x="185" y="454"/>
      <point x="269" y="454" type="curve" smooth="yes"/>
      <point x="333" y="454"/>
      <point x="370" y="412"/>
    </contour>
  </outline>
</glyph>
<glyph name="i" format="1">
  <advance width="234"/>
  <unicode hex="0069"/>
  <outline>
    <contour>
      <point x="67" y="0" type="line"/>
      <point x="167" y="0" type="line"/>
      <point x="167" y="530" type="line"/>
      <point x="67" y="530" type="line"/>
    </contour>
    <contour>
      <point x="174" y="754" type="line"/>
      <point x="60" y="754" type="line"/>
      <point x="60" y="640" type="line"/>
      <point x="174" y="640" type="line"/>
    </contour>
  </outline>
</glyph>
<glyph name="j" format="1">
  <advance width="234"/>
  <unicode hex="006A"/>
  <outline>
    <contour>
      <point x="67" y="-29" type="line" smooth="yes"/>
      <point x="67" y="-106"/>
      <point x="33" y="-124"/>
      <point x="-27" y="-124" type="curve" smooth="yes"/>
      <point x="-48" y="-124"/>
      <point x="-74" y="-119"/>
      <point x="-81" y="-116" type="curve"/>
      <point x="-81" y="-200" type="line"/>
      <point x="-73" y="-204"/>
      <point x="-47" y="-212"/>
      <point x="-3" y="-212" type="curve" smooth="yes"/>
      <point x="96" y="-212"/>
      <point x="167" y="-166"/>
      <point x="167" y="-40" type="curve" smooth="yes"/>
      <point x="167" y="530" type="line"/>
      <point x="67" y="530" type="line"/>
    </contour>
    <contour>
      <point x="174" y="754" type="line"/>
      <point x="60" y="754" type="line"/>
      <point x="60" y="640" type="line"/>
      <point x="174" y="640" type="line"/>
    </contour>
  </outline>
</glyph>
<glyph name="l" format="1">
  <advance width="234"/>
  <unicode hex="006C"/>
  <outline>
    <contour>
      <point x="67" y="0" type="line"/>
      <point x="167" y="0" type="line"/>
      <point x="167" y="800" type="line"/>
      <point x="67" y="800" type="line"/>
    </contour>
  </outline>
</glyph>
<glyph name="n" format="1">
  <advance width="545"/>
  <unicode hex="006E"/>
  <outline>
    <contour>
      <point x="489" y="0" type="line"/>
      <point x="489" y="367" type="line" smooth="yes"/>
      <point x="489" y="465"/>
      <point x="438" y="542"/>
      <point x="327" y="542" type="curve" smooth="yes"/>
      <point x="240" y="542"/>
      <point x="184" y="505"/>
      <point x="152" y="457" type="curve"/>
      <point x="141" y="530" type="line"/>
      <point x="55" y="530" type="line"/>
      <point x="62" y="380" type="line"/>
      <point x="62" y="0" type="line"/>
      <point x="162" y="0" type="line"/>
      <point x="162" y="383" type="line"/>
      <point x="180" y="412"/>
      <point x="218" y="454"/>
      <point x="290" y="454" type="curve" smooth="yes"/>
      <point x="355" y="454"/>
      <point x="390" y="417"/>
      <point x="390" y="351" type="curve" smooth="yes"/>
      <point x="390" y="0" type="line"/>
    </contour>
  </outline>
</glyph>
<glyph name="p" format="1">
  <advance width="550"/>
  <unicode hex="0070"/>
  <outline>
    <contour>
      <point x="307" y="-12" type="curve" smooth="yes"/>
      <point x="452" y="-12"/>
      <point x="508" y="102"/>
      <point x="508" y="251" type="curve" smooth="yes"/>
      <point x="508" y="279" type="line" smooth="yes"/>
      <point x="508" y="428"/>
      <point x="452" y="542"/>
      <point x="307" y="542" type="curve" smooth="yes"/>
      <point x="228" y="542"/>
      <point x="179" y="506"/>
      <point x="151" y="460" type="curve"/>
      <point x="141" y="530" type="line"/>
      <point x="54" y="530" type="line"/>
      <point x="61" y="380" type="line"/>
      <point x="61" y="-200" type="line"/>
      <point x="161" y="-200" type="line"/>
      <point x="161" y="56" type="line"/>
      <point x="190" y="17"/>
      <point x="236" y="-12"/>
    </contour>
    <contour>
      <point x="161" y="383" type="line"/>
      <point x="180" y="412"/>
      <point x="217" y="454"/>
      <point x="281" y="454" type="curve" smooth="yes"/>
      <point x="368" y="454"/>
      <point x="407" y="387"/>
      <point x="407" y="279" type="curve" smooth="yes"/>
      <point x="407" y="251" type="line" smooth="yes"/>
      <point x="407" y="143"/>
      <point x="368" y="76"/>
      <point x="281" y="76" type="curve" smooth="yes"/>
      <point x="217" y="76"/>
      <point x="180" y="118"/>
      <point x="161" y="147" type="curve"/>
    </contour>
  </outline>
</glyph>
<glyph name="q" format="1">
  <advance width="553"/>
  <unicode hex="0071"/>
  <outline>
    <contour>
      <point x="390" y="-200" type="line"/>
      <point x="490" y="-200" type="line"/>
      <point x="490" y="380" type="line"/>
      <point x="497" y="530" type="line"/>
      <point x="410" y="530" type="line"/>
      <point x="399" y="461" type="line"/>
      <point x="371" y="506"/>
      <point x="322" y="542"/>
      <point x="245" y="542" type="curve" smooth="yes"/>
      <point x="100" y="542"/>
      <point x="44" y="428"/>
      <point x="44" y="279" type="curve" smooth="yes"/>
      <point x="44" y="251" type="line" smooth="yes"/>
      <point x="44" y="102"/>
      <point x="100" y="-12"/>
      <point x="245" y="-12" type="curve" smooth="yes"/>
      <point x="314" y="-12"/>
      <point x="360" y="16"/>
      <point x="390" y="54" type="curve"/>
    </contour>
    <contour>
      <point x="390" y="147" type="line"/>
      <point x="371" y="118"/>
      <point x="334" y="76"/>
      <point x="270" y="76" type="curve" smooth="yes"/>
      <point x="184" y="76"/>
      <point x="145" y="143"/>
      <point x="145" y="251" type="curve" smooth="yes"/>
      <point x="145" y="279" type="line" smooth="yes"/>
      <point x="145" y="387"/>
      <point x="184" y="454"/>
      <point x="270" y="454" type="curve" smooth="yes"/>
      <point x="334" y="454"/>
      <point x="371" y="412"/>
      <point x="390" y="383" type="curve"/>
    </contour>
  </outline>
</glyph>
<glyph name="r" format="1">
  <advance width="350"/>
  <unicode hex="0072"/>
  <outline>
    <contour>
      <point x="297" y="542" type="curve" smooth="yes"/>
      <point x="229" y="542"/>
      <point x="181" y="507"/>
      <point x="151" y="462" type="curve"/>
      <point x="141" y="530" type="line"/>
      <point x="55" y="530" type="line"/>
      <point x="62" y="380" type="line"/>
      <point x="62" y="0" type="line"/>
      <point x="162" y="0" type="line"/>
      <point x="162" y="377" type="line"/>
      <point x="181" y="406"/>
      <point x="219" y="445"/>
      <point x="294" y="445" type="curve" smooth="yes"/>
      <point x="312" y="445" type="line"/>
      <point x="312" y="541" type="line"/>
      <point x="310" y="541"/>
      <point x="303" y="542"/>
    </contour>
  </outline>
</glyph>
<glyph name="t" format="1">
  <advance width="411"/>
  <unicode hex="0074"/>
  <outline>
    <contour>
      <point x="210" y="530" type="line"/>
      <point x="210" y="680" type="line"/>
      <point x="110" y="680" type="line"/>
      <point x="110" y="530" type="line"/>
      <point x="27" y="530" type="line"/>
      <point x="27" y="441" type="line"/>
      <point x="110" y="441" type="line"/>
      <point x="110" y="160" type="line" smooth="yes"/>
      <point x="110" y="34"/>
      <point x="180" y="-12"/>
      <point x="280" y="-12" type="curve" smooth="yes"/>
      <point x="324" y="-12"/>
      <point x="350" y="-4"/>
      <point x="358" y="0" type="curve"/>
      <point x="358" y="84" type="line"/>
      <point x="350" y="81"/>
      <point x="324" y="76"/>
      <point x="303" y="76" type="curve" smooth="yes"/>
      <point x="243" y="76"/>
      <point x="210" y="94"/>
      <point x="210" y="171" type="curve" smooth="yes"/>
      <point x="210" y="441" type="line"/>
      <point x="368" y="441" type="line"/>
      <point x="368" y="530" type="line"/>
    </contour>
  </outline>
</glyph>
<glyph name="u" format="1">
  <advance width="545"/>
  <unicode hex="0075"/>
  <outline>
    <contour>
      <point x="56" y="530" type="line"/>
      <point x="56" y="163" type="line" smooth="yes"/>
      <point x="56" y="65"/>
      <point x="108" y="-12"/>
      <point x="218" y="-12" type="curve" smooth="yes"/>
      <point x="305" y="-12"/>
      <point x="361" y="25"/>
      <point x="393" y="73" type="curve"/>
      <point x="404" y="0" type="line"/>
      <point x="491" y="0" type="line"/>
      <point x="484" y="150" type="line"/>
      <point x="484" y="530" type="line"/>
      <point x="384" y="530" type="line"/>
      <point x="384" y="147" type="line"/>
      <point x="365" y="118"/>
      <point x="327" y="76"/>
      <point x="255" y="76" type="curve" smooth="yes"/>
      <point x="191" y="76"/>
      <point x="156" y="113"/>
      <point x="156" y="179" type="curve" smooth="yes"/>
      <point x="156" y="530" type="line"/>
    </contour>
  </outline>
</glyph>
<glyph name="v" format="1">
  <advance width="525"/>
  <unicode hex="0076"/>
  <outline>
    <contour>
      <point x="194" y="0" type="line"/>
      <point x="331" y="0" type="line"/>
      <point x="505" y="530" type="line"/>
      <point x="400" y="530" type="line"/>
      <point x="263" y="87" type="line"/>
      <point x="125" y="530" type="line"/>
      <point x="20" y="530" type="line"/>
    </contour>
  </outline>
</glyph>
<glyph name="w" format="1">
  <advance width="733"/>
  <unicode hex="0077"/>
  <outline>
    <contour>
      <point x="367" y="422" type="line"/>
      <point x="472" y="0" type="line"/>
      <point x="600" y="0" type="line"/>
      <point x="707" y="530" type="line"/>
      <point x="608" y="530" type="line"/>
      <point x="533" y="107" type="line"/>
      <point x="427" y="530" type="line"/>
      <point x="306" y="530" type="line"/>
      <point x="200" y="107" type="line"/>
      <point x="126" y="530" type="line"/>
      <point x="27" y="530" type="line"/>
      <point x="133" y="0" type="line"/>
      <point x="262" y="0" type="line"/>
    </contour>
  </outline>
</glyph>
<glyph name="x" format="1">
  <advance width="510"/>
  <unicode hex="0078"/>
  <outline>
    <contour>
      <point x="21" y="530" type="line"/>
      <point x="175" y="270" type="line"/>
      <point x="21" y="0" type="line"/>
      <point x="136" y="0" type="line"/>
      <point x="255" y="214" type="line"/>
      <point x="374" y="0" type="line"/>
      <point x="489" y="0" type="line"/>
      <point x="334" y="270" type="line"/>
      <point x="489" y="530" type="line"/>
      <point x="372" y="530" type="line"/>
      <point x="255" y="326" type="line"/>
      <point x="138" y="530" type="line"/>
    </contour>
  </outline>
</glyph>
<glyph name="y" format="1">
  <advance width="507"/>
  <unicode hex="0079"/>
  <outline>
    <contour>
      <point x="259" y="130" type="line"/>
      <point x="125" y="530" type="line"/>
      <point x="17" y="530" type="line"/>
      <point x="205" y="23" type="line"/>
      <point x="122" y="-200" type="line"/>
      <point x="239" y="-200" type="line"/>
      <point x="312" y="23" type="line"/>
      <point x="501" y="530" type="line"/>
      <point x="393" y="530" type="line"/>
    </contour>
  </outline>
</glyph>
<glyph name="z" format="1">
  <advance width="475"/>
  <unicode hex="007A"/>
  <outline>
    <contour>
      <point x="32" y="69" type="line"/>
      <point x="32" y="0" type="line"/>
      <point x="443" y="0" type="line"/>
      <point x="443" y="89" type="line"/>
      <point x="277" y="89" type="line"/>
      <point x="161" y="87" type="line"/>
      <point x="433" y="461" type="line"/>
      <point x="433" y="530" type="line"/>
      <point x="42" y="530" type="line"/>
      <point x="42" y="441" type="line"/>
      <point x="188" y="441" type="line"/>
      <point x="304" y="443" type="line"/>
    </contour>
  </outline>
</glyph>
<glyph name="braceleft" format="1">
  <advance width="334"/>
  <unicode hex="007B"/>
  <outline>
    <contour>
      <point x="296" y="840" type="line"/>
      <point x="274" y="840" type="line" smooth="yes"/>
      <point x="183" y="840"/>
      <point x="106" y="804"/>
      <point x="106" y="687" type="curve" smooth="yes"/>
      <point x="106" y="491" type="line" smooth="yes"/>
      <point x="106" y="424"/>
      <point x="80" y="406"/>
      <point x="25" y="406" type="curve"/>
      <point x="25" y="314" type="line"/>
      <point x="80" y="314"/>
      <point x="106" y="296"/>
      <point x="106" y="229" type="curve" smooth="yes"/>
      <point x="106" y="33" type="line" smooth="yes"/>
      <point x="106" y="-84"/>
      <point x="183" y="-120"/>
      <point x="274" y="-120" type="curve" smooth="yes"/>
      <point x="296" y="-120" type="line"/>
      <point x="296" y="-29" type="line"/>
      <point x="239" y="-29"/>
      <point x="208" y="-7"/>
      <point x="208" y="68" type="curve" smooth="yes"/>
      <point x="208" y="253" type="line" smooth="yes"/>
      <point x="208" y="308"/>
      <point x="187" y="341"/>
      <point x="152" y="360" type="curve"/>
      <point x="187" y="378"/>
      <point x="208" y="412"/>
      <point x="208" y="467" type="curve" smooth="yes"/>
      <point x="208" y="652" type="line" smooth="yes"/>
      <point x="208" y="727"/>
      <point x="239" y="749"/>
      <point x="296" y="749" type="curve"/>
    </contour>
  </outline>
</glyph>
<glyph name="braceright" format="1">
  <advance width="334"/>
  <unicode hex="007D"/>
  <outline>
    <contour>
      <point x="39" y="-120" type="line"/>
      <point x="60" y="-120" type="line" smooth="yes"/>
      <point x="151" y="-120"/>
      <point x="228" y="-84"/>
      <point x="228" y="33" type="curve" smooth="yes"/>
      <point x="228" y="229" type="line" smooth="yes"/>
      <point x="228" y="296"/>
      <point x="254" y="314"/>
      <point x="310" y="314" type="curve"/>
      <point x="310" y="406" type="line"/>
      <point x="254" y="406"/>
      <point x="228" y="424"/>
      <point x="228" y="491" type="curve" smooth="yes"/>
      <point x="228" y="687" type="line" smooth="yes"/>
      <point x="228" y="804"/>
      <point x="151" y="840"/>
      <point x="60" y="840" type="curve" smooth="yes"/>
      <point x="39" y="840" type="line"/>
      <point x="39" y="749" type="line"/>
      <point x="95" y="749"/>
      <point x="126" y="727"/>
      <point x="126" y="652" type="curve" smooth="yes"/>
      <point x="126" y="467" type="line" smooth="yes"/>
      <point x="126" y="412"/>
      <point x="147" y="378"/>
      <point x="182" y="360" type="curve"/>
      <point x="147" y="341"/>
      <point x="126" y="308"/>
      <point x="126" y="253" type="curve" smooth="yes"/>
      <point x="126" y="68" type="line" smooth="yes"/>
      <point x="126" y="-7"/>
      <point x="95" y="-29"/>
      <point x="39" y="-29" type="curve"/>
    </contour>
  </outline>
</glyph>
<glyph name="asciitilde" format="1">
  <advance width="600"/>
  <unicode hex="007E"/>
  <outline>
    <contour>
      <point x="179" y="462" type="curve" smooth="yes"/>
      <point x="109" y="462"/>
      <point x="61" y="418"/>
      <point x="34" y="380" type="curve"/>
      <point x="86" y="327" type="line"/>
      <point x="103" y="349"/>
      <point x="138" y="381"/>
      <point x="181" y="381" type="curve" smooth="yes"/>
      <point x="264" y="381"/>
      <point x="315" y="312"/>
      <point x="421" y="312" type="curve" smooth="yes"/>
      <point x="491" y="312"/>
      <point x="539" y="355"/>
      <point x="566" y="394" type="curve"/>
      <point x="514" y="446" type="line"/>
      <point x="497" y="425"/>
      <point x="462" y="393"/>
      <point x="419" y="393" type="curve" smooth="yes"/>
      <point x="336" y="393"/>
      <point x="285" y="462"/>
    </contour>
  </outline>
</glyph>
<glyph name="exclamdown" format="1">
  <advance width="234"/>
  <unicode hex="00A1"/>
  <outline>
    <contour>
      <point x="179" y="-200" type="line"/>
      <point x="152" y="327" type="line"/>
      <point x="82" y="327" type="line"/>
      <point x="55" y="-200" type="line"/>
    </contour>
    <contour>
      <point x="174" y="530" type="line"/>
      <point x="60" y="530" type="line"/>
      <point x="60" y="416" type="line"/>
      <point x="174" y="416" type="line"/>
    </contour>
  </outline>
</glyph>
<glyph name="cent" format="1">
  <advance width="600"/>
  <unicode hex="00A2"/>
  <outline>
    <contour>
      <point x="444" y="840" type="line"/>
      <point x="362" y="840" type="line"/>
      <point x="335" y="728" type="line"/>
      <point x="327" y="729"/>
      <point x="319" y="729"/>
      <point x="311" y="729" type="curve" smooth="yes"/>
      <point x="137" y="729"/>
      <point x="54" y="616"/>
      <point x="54" y="406" type="curve" smooth="yes"/>
      <point x="54" y="375" type="line" smooth="yes"/>
      <point x="54" y="227"/>
      <point x="95" y="127"/>
      <point x="181" y="82" type="curve"/>
      <point x="147" y="-60" type="line"/>
      <point x="229" y="-60" type="line"/>
      <point x="257" y="57" type="line"/>
      <point x="274" y="54"/>
      <point x="292" y="53"/>
      <point x="311" y="53" type="curve" smooth="yes"/>
      <point x="472" y="53"/>
      <point x="546" y="138"/>
      <point x="546" y="272" type="curve" smooth="yes"/>
      <point x="546" y="287" type="line"/>
      <point x="445" y="287" type="line"/>
      <point x="445" y="202"/>
      <point x="408" y="145"/>
      <point x="315" y="145" type="curve" smooth="yes"/>
      <point x="311" y="145" type="line" smooth="yes"/>
      <point x="299" y="145"/>
      <point x="288" y="146"/>
      <point x="278" y="148" type="curve"/>
      <point x="391" y="618" type="line"/>
      <point x="429" y="593"/>
      <point x="445" y="544"/>
      <point x="445" y="473" type="curve"/>
      <point x="546" y="473" type="line"/>
      <point x="546" y="499" type="line" smooth="yes"/>
      <point x="546" y="605"/>
      <point x="504" y="682"/>
      <point x="414" y="713" type="curve"/>
    </contour>
    <contour>
      <point x="158" y="375" type="curve" smooth="yes"/>
      <point x="158" y="406" type="line" smooth="yes"/>
      <point x="158" y="558"/>
      <point x="206" y="637"/>
      <point x="311" y="637" type="curve" smooth="yes"/>
      <point x="313" y="637" type="line"/>
      <point x="206" y="188" type="line"/>
      <point x="174" y="226"/>
      <point x="158" y="288"/>
    </contour>
  </outline>
</glyph>
<glyph name="sterling" format="1">
  <advance width="600"/>
  <unicode hex="00A3"/>
  <outline>
    <contour>
      <point x="326" y="701" type="curve" smooth="yes"/>
      <point x="413" y="701"/>
      <point x="449" y="623"/>
      <point x="449" y="500" type="curve"/>
      <point x="551" y="500" type="line"/>
      <point x="551" y="514" type="line" smooth="yes"/>
      <point x="551" y="682"/>
      <point x="492" y="792"/>
      <point x="326" y="792" type="curve" smooth="yes"/>
      <point x="173" y="792"/>
      <point x="108" y="697"/>
      <point x="108" y="579" type="curve" smooth="yes"/>
      <point x="108" y="522"/>
      <point x="116" y="471"/>
      <point x="128" y="423" type="curve"/>
      <point x="51" y="423" type="line"/>
      <point x="51" y="332" type="line"/>
      <point x="154" y="332" type="line"/>
      <point x="178" y="256"/>
      <point x="204" y="180"/>
      <point x="212" y="92" type="curve"/>
      <point x="51" y="92" type="line"/>
      <point x="51" y="0" type="line"/>
      <point x="549" y="0" type="line"/>
      <point x="549" y="92" type="line"/>
      <point x="302" y="92" type="line"/>
      <point x="297" y="180"/>
      <point x="278" y="259"/>
      <point x="258" y="332" type="curve"/>
      <point x="426" y="332" type="line"/>
      <point x="426" y="423" type="line"/>
      <point x="234" y="423" type="line"/>
      <point x="221" y="475"/>
      <point x="211" y="524"/>
      <point x="211" y="570" type="curve" smooth="yes"/>
      <point x="211" y="649"/>
      <point x="246" y="701"/>
    </contour>
  </outline>
</glyph>
<glyph name="yen" format="1">
  <advance width="600"/>
  <unicode hex="00A5"/>
  <outline>
    <contour>
      <point x="43" y="389" type="line"/>
      <point x="191" y="389" type="line"/>
      <point x="240" y="280" type="line"/>
      <point x="43" y="280" type="line"/>
      <point x="43" y="189" type="line"/>
      <point x="248" y="189" type="line"/>
      <point x="248" y="0" type="line"/>
      <point x="352" y="0" type="line"/>
      <point x="352" y="189" type="line"/>
      <point x="557" y="189" type="line"/>
      <point x="557" y="280" type="line"/>
      <point x="359" y="280" type="line"/>
      <point x="409" y="389" type="line"/>
      <point x="557" y="389" type="line"/>
      <point x="557" y="480" type="line"/>
      <point x="450" y="480" type="line"/>
      <point x="587" y="780" type="line"/>
      <point x="472" y="780" type="line"/>
      <point x="300" y="376" type="line"/>
      <point x="128" y="780" type="line"/>
      <point x="13" y="780" type="line"/>
      <point x="149" y="480" type="line"/>
      <point x="43" y="480" type="line"/>
    </contour>
  </outline>
</glyph>
<glyph name="brokenbar" format="1">
  <advance width="223"/>
  <unicode hex="00A6"/>
  <outline>
    <contour>
      <point x="61" y="391" type="line"/>
      <point x="161" y="391" type="line"/>
      <point x="161" y="840" type="line"/>
      <point x="61" y="840" type="line"/>
    </contour>
    <contour>
      <point x="61" y="-120" type="line"/>
      <point x="161" y="-120" type="line"/>
      <point x="161" y="329" type="line"/>
      <point x="61" y="329" type="line"/>
    </contour>
  </outline>
</glyph>
<glyph name="section" format="1">
  <advance width="526"/>
  <unicode hex="00A7"/>
  <outline>
    <contour>
      <point x="488" y="391" type="curve" smooth="yes"/>
      <point x="488" y="397" type="line" smooth="yes"/>
      <point x="488" y="504"/>
      <point x="420" y="541"/>
      <point x="287" y="551" type="curve" smooth="yes"/>
      <point x="191" y="559"/>
      <point x="169" y="588"/>
      <point x="169" y="634" type="curve" smooth="yes"/>
      <point x="169" y="683"/>
      <point x="208" y="711"/>
      <point x="275" y="711" type="curve" smooth="yes"/>
      <point x="356" y="711"/>
      <point x="382" y="671"/>
      <point x="382" y="608" type="curve"/>
      <point x="482" y="608" type="line"/>
      <point x="482" y="612" type="line" smooth="yes"/>
      <point x="482" y="720"/>
      <point x="424" y="792"/>
      <point x="275" y="792" type="curve" smooth="yes"/>
      <point x="150" y="792"/>
      <point x="68" y="735"/>
      <point x="68" y="633" type="curve" smooth="yes"/>
      <point x="68" y="626" type="line" smooth="yes"/>
      <point x="68" y="579"/>
      <point x="83" y="542"/>
      <point x="119" y="517" type="curve"/>
      <point x="66" y="492"/>
      <point x="38" y="449"/>
      <point x="38" y="389" type="curve" smooth="yes"/>
      <point x="38" y="383" type="line" smooth="yes"/>
      <point x="38" y="276"/>
      <point x="106" y="239"/>
      <point x="239" y="229" type="curve" smooth="yes"/>
      <point x="334" y="221"/>
      <point x="356" y="192"/>
      <point x="356" y="146" type="curve" smooth="yes"/>
      <point x="356" y="97"/>
      <point x="317" y="69"/>
      <point x="251" y="69" type="curve" smooth="yes"/>
      <point x="170" y="69"/>
      <point x="143" y="109"/>
      <point x="143" y="172" type="curve"/>
      <point x="44" y="172" type="line"/>
      <point x="44" y="168" type="line" smooth="yes"/>
      <point x="44" y="60"/>
      <point x="102" y="-12"/>
      <point x="251" y="-12" type="curve" smooth="yes"/>
      <point x="376" y="-12"/>
      <point x="457" y="45"/>
      <point x="457" y="147" type="curve" smooth="yes"/>
      <point x="457" y="154" type="line" smooth="yes"/>
      <point x="457" y="200"/>
      <point x="442" y="237"/>
      <point x="407" y="263" type="curve"/>
      <point x="460" y="287"/>
      <point x="488" y="331"/>
    </contour>
    <contour>
      <point x="385" y="390" type="curve" smooth="yes"/>
      <point x="385" y="338"/>
      <point x="346" y="303"/>
      <point x="269" y="303" type="curve" smooth="yes"/>
      <point x="253" y="303" type="line"/>
      <point x="173" y="310"/>
      <point x="140" y="331"/>
      <point x="140" y="390" type="curve" smooth="yes"/>
      <point x="140" y="442"/>
      <point x="180" y="477"/>
      <point x="257" y="477" type="curve" smooth="yes"/>
      <point x="273" y="477" type="line"/>
      <point x="352" y="470"/>
      <point x="385" y="449"/>
    </contour>
  </outline>
</glyph>
<glyph name="dieresis" format="1">
  <advance width="500"/>
  <unicode hex="00A8"/>
  <outline>
    <contour>
      <point x="216" y="754" type="line"/>
      <point x="100" y="754" type="line"/>
      <point x="100" y="639" type="line"/>
      <point x="216" y="639" type="line"/>
    </contour>
    <contour>
      <point x="400" y="754" type="line"/>
      <point x="284" y="754" type="line"/>
      <point x="284" y="639" type="line"/>
      <point x="400" y="639" type="line"/>
    </contour>
  </outline>
</glyph>
<glyph name="ordfeminine" format="1">
  <advance width="403"/>
  <unicode hex="00AA"/>
  <outline>
    <contour>
      <point x="292" y="388" type="line"/>
      <point x="370" y="388" type="line"/>
      <point x="364" y="499" type="line"/>
      <point x="364" y="643" type="line" smooth="yes"/>
      <point x="364" y="735"/>
      <point x="327" y="792"/>
      <point x="207" y="792" type="curve" smooth="yes"/>
      <point x="83" y="792"/>
      <point x="50" y="724"/>
      <point x="50" y="659" type="curve" smooth="yes"/>
      <point x="50" y="652" type="line"/>
      <point x="134" y="652" type="line"/>
      <point x="134" y="690"/>
      <point x="147" y="723"/>
      <point x="205" y="723" type="curve" smooth="yes"/>
      <point x="259" y="723"/>
      <point x="275" y="695"/>
      <point x="275" y="643" type="curve" smooth="yes"/>
      <point x="275" y="639" type="line"/>
      <point x="172" y="624" type="line" smooth="yes"/>
      <point x="96" y="612"/>
      <point x="35" y="586"/>
      <point x="35" y="500" type="curve" smooth="yes"/>
      <point x="35" y="492" type="line" smooth="yes"/>
      <point x="35" y="429"/>
      <point x="72" y="378"/>
      <point x="153" y="378" type="curve" smooth="yes"/>
      <point x="215" y="378"/>
      <point x="257" y="402"/>
      <point x="284" y="436" type="curve"/>
    </contour>
    <contour>
      <point x="368" y="202" type="line"/>
      <point x="368" y="279" type="line"/>
      <point x="45" y="279" type="line"/>
      <point x="45" y="202" type="line"/>
    </contour>
    <contour>
      <point x="183" y="451" type="curve" smooth="yes"/>
      <point x="140" y="451"/>
      <point x="123" y="477"/>
      <point x="123" y="504" type="curve" smooth="yes"/>
      <point x="123" y="509" type="line" smooth="yes"/>
      <point x="123" y="543"/>
      <point x="146" y="563"/>
      <point x="187" y="570" type="curve" smooth="yes"/>
      <point x="275" y="585" type="line"/>
      <point x="275" y="495" type="line"/>
      <point x="261" y="477"/>
      <point x="233" y="451"/>
    </contour>
  </outline>
</glyph>
<glyph name="guillemotleft" format="1">
  <advance width="534"/>
  <unicode hex="00AB"/>
  <outline>
    <contour>
      <point x="259" y="538" type="line"/>
      <point x="50" y="387" type="line"/>
      <point x="50" y="293" type="line"/>
      <point x="259" y="142" type="line"/>
      <point x="259" y="236" type="line"/>
      <point x="123" y="340" type="line"/>
      <point x="259" y="444" type="line"/>
    </contour>
    <contour>
      <point x="484" y="538" type="line"/>
      <point x="276" y="387" type="line"/>
      <point x="276" y="293" type="line"/>
      <point x="484" y="142" type="line"/>
      <point x="484" y="236" type="line"/>
      <point x="349" y="340" type="line"/>
      <point x="484" y="444" type="line"/>
    </contour>
  </outline>
</glyph>
<glyph name="logicalnot" format="1">
  <advance width="600"/>
  <unicode hex="00AC"/>
  <outline>
    <contour>
      <point x="46" y="471" type="line"/>
      <point x="461" y="471" type="line"/>
      <point x="461" y="206" type="line"/>
      <point x="554" y="206" type="line"/>
      <point x="554" y="564" type="line"/>
      <point x="46" y="564" type="line"/>
    </contour>
  </outline>
</glyph>
<glyph name="macron" format="1">
  <advance width="500"/>
  <unicode hex="00AF"/>
  <outline>
    <contour>
      <point x="122" y="648" type="line"/>
      <point x="378" y="648" type="line"/>
      <point x="378" y="739" type="line"/>
      <point x="122" y="739" type="line"/>
    </contour>
  </outline>
</glyph>
<glyph name="degree" format="1">
  <advance width="400"/>
  <unicode hex="00B0"/>
  <outline>
    <contour>
      <point x="288" y="631" type="line" smooth="yes"/>
      <point x="288" y="579"/>
      <point x="250" y="546"/>
      <point x="203" y="546" type="curve" smooth="yes"/>
      <point x="197" y="546" type="line" smooth="yes"/>
      <point x="150" y="546"/>
      <point x="112" y="579"/>
      <point x="112" y="631" type="curve" smooth="yes"/>
      <point x="112" y="638" type="line" smooth="yes"/>
      <point x="112" y="691"/>
      <point x="150" y="723"/>
      <point x="197" y="723" type="curve" smooth="yes"/>
      <point x="203" y="723" type="line" smooth="yes"/>
      <point x="250" y="723"/>
      <point x="288" y="691"/>
      <point x="288" y="638" type="curve" smooth="yes"/>
    </contour>
    <contour>
      <point x="356" y="637" type="line" smooth="yes"/>
      <point x="356" y="733"/>
      <point x="289" y="792"/>
      <point x="200" y="792" type="curve" smooth="yes"/>
      <point x="111" y="792"/>
      <point x="44" y="733"/>
      <point x="44" y="637" type="curve" smooth="yes"/>
      <point x="44" y="632" type="line" smooth="yes"/>
      <point x="44" y="537"/>
      <point x="111" y="478"/>
      <point x="200" y="478" type="curve" smooth="yes"/>
      <point x="289" y="478"/>
      <point x="356" y="537"/>
      <point x="356" y="632" type="curve" smooth="yes"/>
    </contour>
  </outline>
</glyph>
<glyph name="plusminus" format="1">
  <advance width="600"/>
  <unicode hex="00B1"/>
  <outline>
    <contour>
      <point x="254" y="657" type="line"/>
      <point x="254" y="529" type="line"/>
      <point x="46" y="529" type="line"/>
      <point x="46" y="436" type="line"/>
      <point x="254" y="436" type="line"/>
      <point x="254" y="309" type="line"/>
      <point x="346" y="309" type="line"/>
      <point x="346" y="436" type="line"/>
      <point x="554" y="436" type="line"/>
      <point x="554" y="529" type="line"/>
      <point x="346" y="529" type="line"/>
      <point x="346" y="657" type="line"/>
    </contour>
    <contour>
      <point x="46" y="152" type="line"/>
      <point x="554" y="152" type="line"/>
      <point x="554" y="245" type="line"/>
      <point x="46" y="245" type="line"/>
    </contour>
  </outline>
</glyph>
<glyph name="twosuperior" format="1">
  <advance width="300"/>
  <unicode hex="00B2"/>
  <outline>
    <contour>
      <point x="279" y="463" type="line"/>
      <point x="139" y="463" type="line"/>
      <point x="235" y="568" type="line" smooth="yes"/>
      <point x="263" y="599"/>
      <point x="279" y="622"/>
      <point x="279" y="668" type="curve" smooth="yes"/>
      <point x="279" y="678" type="line" smooth="yes"/>
      <point x="279" y="728"/>
      <point x="246" y="786"/>
      <point x="150" y="786" type="curve" smooth="yes"/>
      <point x="62" y="786"/>
      <point x="21" y="744"/>
      <point x="21" y="660" type="curve" smooth="yes"/>
      <point x="21" y="650" type="line"/>
      <point x="105" y="650" type="line"/>
      <point x="105" y="697"/>
      <point x="122" y="713"/>
      <point x="147" y="713" type="curve" smooth="yes"/>
      <point x="152" y="713" type="line" smooth="yes"/>
      <point x="177" y="713"/>
      <point x="195" y="697"/>
      <point x="195" y="663" type="curve" smooth="yes"/>
      <point x="195" y="658" type="line" smooth="yes"/>
      <point x="195" y="636"/>
      <point x="186" y="624"/>
      <point x="170" y="607" type="curve" smooth="yes"/>
      <point x="21" y="443" type="line"/>
      <point x="21" y="390" type="line"/>
      <point x="279" y="390" type="line"/>
    </contour>
  </outline>
</glyph>
<glyph name="threesuperior" format="1">
  <advance width="300"/>
  <unicode hex="00B3"/>
  <outline>
    <contour>
      <point x="102" y="515" type="curve"/>
      <point x="18" y="515" type="line"/>
      <point x="18" y="508" type="line" smooth="yes"/>
      <point x="18" y="428"/>
      <point x="62" y="383"/>
      <point x="150" y="383" type="curve" smooth="yes"/>
      <point x="245" y="383"/>
      <point x="281" y="447"/>
      <point x="281" y="495" type="curve" smooth="yes"/>
      <point x="281" y="504" type="line" smooth="yes"/>
      <point x="281" y="546"/>
      <point x="260" y="573"/>
      <point x="234" y="589" type="curve"/>
      <point x="259" y="604"/>
      <point x="279" y="631"/>
      <point x="279" y="673" type="curve" smooth="yes"/>
      <point x="279" y="682" type="line" smooth="yes"/>
      <point x="279" y="728"/>
      <point x="246" y="786"/>
      <point x="150" y="786" type="curve" smooth="yes"/>
      <point x="62" y="786"/>
      <point x="21" y="744"/>
      <point x="21" y="660" type="curve" smooth="yes"/>
      <point x="21" y="650" type="line"/>
      <point x="105" y="650" type="line"/>
      <point x="105" y="697"/>
      <point x="122" y="713"/>
      <point x="147" y="713" type="curve" smooth="yes"/>
      <point x="152" y="713" type="line" smooth="yes"/>
      <point x="177" y="713"/>
      <point x="195" y="697"/>
      <point x="195" y="673" type="curve" smooth="yes"/>
      <point x="195" y="667" type="line" smooth="yes"/>
      <point x="195" y="639"/>
      <point x="179" y="626"/>
      <point x="152" y="626" type="curve" smooth="yes"/>
      <point x="100" y="626" type="line"/>
      <point x="100" y="552" type="line"/>
      <point x="153" y="552" type="line" smooth="yes"/>
      <point x="180" y="552"/>
      <point x="198" y="537"/>
      <point x="198" y="509" type="curve" smooth="yes"/>
      <point x="198" y="504" type="line" smooth="yes"/>
      <point x="198" y="471"/>
      <point x="176" y="456"/>
      <point x="152" y="456" type="curve" smooth="yes"/>
      <point x="147" y="456" type="line" smooth="yes"/>
      <point x="122" y="456"/>
      <point x="102" y="470"/>
    </contour>
  </outline>
</glyph>
<glyph name="acute" format="1">
  <advance width="500"/>
  <unicode hex="00B4"/>
  <outline>
    <contour>
      <point x="290" y="780" type="line"/>
      <point x="199" y="607" type="line"/>
      <point x="301" y="607" type="line"/>
      <point x="400" y="780" type="line"/>
    </contour>
  </outline>
</glyph>
<glyph name="paragraph" format="1">
  <advance width="526"/>
  <unicode hex="00B6"/>
  <outline>
    <contour>
      <point x="360" y="0" type="line"/>
      <point x="464" y="0" type="line"/>
      <point x="464" y="780" type="line"/>
      <point x="282" y="780" type="line" smooth="yes"/>
      <point x="165" y="780"/>
      <point x="31" y="741"/>
      <point x="31" y="552" type="curve" smooth="yes"/>
      <point x="31" y="532" type="line" smooth="yes"/>
      <point x="31" y="359"/>
      <point x="142" y="312"/>
      <point x="250" y="305" type="curve"/>
      <point x="250" y="0" type="line"/>
      <point x="314" y="0" type="line"/>
      <point x="314" y="688" type="line"/>
      <point x="360" y="688" type="line"/>
    </contour>
    <contour>
      <point x="137" y="535" type="curve" smooth="yes"/>
      <point x="137" y="548" type="line" smooth="yes"/>
      <point x="137" y="647"/>
      <point x="195" y="679"/>
      <point x="250" y="686" type="curve"/>
      <point x="250" y="396" type="line"/>
      <point x="195" y="404"/>
      <point x="137" y="435"/>
    </contour>
  </outline>
</glyph>
<glyph name="periodcentered" format="1">
  <advance width="234"/>
  <unicode hex="00B7"/>
  <outline>
    <contour>
      <point x="174" y="407" type="line"/>
      <point x="60" y="407" type="line"/>
      <point x="60" y="293" type="line"/>
      <point x="174" y="293" type="line"/>
    </contour>
  </outline>
</glyph>
<glyph name="cedilla" format="1">
  <advance width="602"/>
  <unicode hex="00B8"/>
  <outline>
    <contour>
      <point x="156" y="-191" type="line"/>
      <point x="175" y="-203"/>
      <point x="212" y="-213"/>
      <point x="253" y="-213" type="curve" smooth="yes"/>
      <point x="321" y="-213"/>
      <point x="362" y="-187"/>
      <point x="362" y="-131" type="curve" smooth="yes"/>
      <point x="362" y="-74"/>
      <point x="313" y="-51"/>
      <point x="260" y="-50" type="curve"/>
      <point x="279" y="0" type="line"/>
      <point x="221" y="0" type="line"/>
      <point x="192" y="-77" type="line"/>
      <point x="209" y="-102" type="line"/>
      <point x="209" y="-102"/>
      <point x="225" y="-99"/>
      <point x="241" y="-99" type="curve" smooth="yes"/>
      <point x="277" y="-99"/>
      <point x="298" y="-106"/>
      <point x="298" y="-126" type="curve" smooth="yes"/>
      <point x="298" y="-147"/>
      <point x="281" y="-155"/>
      <point x="244" y="-155" type="curve" smooth="yes"/>
      <point x="218" y="-155"/>
      <point x="190" y="-148"/>
      <point x="174" y="-139" type="curve"/>
    </contour>
  </outline>
</glyph>
<glyph name="onesuperior" format="1">
  <advance width="300"/>
  <unicode hex="00B9"/>
  <outline>
    <contour>
      <point x="286" y="390" type="line"/>
      <point x="286" y="463" type="line"/>
      <point x="202" y="463" type="line"/>
      <point x="202" y="780" type="line"/>
      <point x="139" y="780" type="line"/>
      <point x="17" y="698" type="line"/>
      <point x="59" y="637" type="line"/>
      <point x="118" y="677" type="line"/>
      <point x="118" y="463" type="line"/>
      <point x="33" y="463" type="line"/>
      <point x="33" y="390" type="line"/>
    </contour>
  </outline>
</glyph>
<glyph name="ordmasculine" format="1">
  <advance width="427"/>
  <unicode hex="00BA"/>
  <outline>
    <contour>
      <point x="390" y="574" type="curve" smooth="yes"/>
      <point x="390" y="597" type="line" smooth="yes"/>
      <point x="390" y="709"/>
      <point x="335" y="792"/>
      <point x="213" y="792" type="curve" smooth="yes"/>
      <point x="91" y="792"/>
      <point x="37" y="709"/>
      <point x="37" y="597" type="curve" smooth="yes"/>
      <point x="37" y="574" type="line" smooth="yes"/>
      <point x="37" y="461"/>
      <point x="91" y="378"/>
      <point x="213" y="378" type="curve" smooth="yes"/>
      <point x="335" y="378"/>
      <point x="390" y="461"/>
    </contour>
    <contour>
      <point x="126" y="574" type="curve" smooth="yes"/>
      <point x="126" y="597" type="line" smooth="yes"/>
      <point x="126" y="669"/>
      <point x="153" y="715"/>
      <point x="213" y="715" type="curve" smooth="yes"/>
      <point x="274" y="715"/>
      <point x="301" y="669"/>
      <point x="301" y="597" type="curve" smooth="yes"/>
      <point x="301" y="574" type="line" smooth="yes"/>
      <point x="301" y="501"/>
      <point x="274" y="456"/>
      <point x="213" y="456" type="curve" smooth="yes"/>
      <point x="153" y="456"/>
      <point x="126" y="501"/>
    </contour>
    <contour>
      <point x="45" y="202" type="line"/>
      <point x="382" y="202" type="line"/>
      <point x="382" y="279" type="line"/>
      <point x="45" y="279" type="line"/>
    </contour>
  </outline>
</glyph>
<glyph name="guillemotright" format="1">
  <advance width="534"/>
  <unicode hex="00BB"/>
  <outline>
    <contour>
      <point x="50" y="444" type="line"/>
      <point x="184" y="340" type="line"/>
      <point x="50" y="236" type="line"/>
      <point x="50" y="142" type="line"/>
      <point x="259" y="293" type="line"/>
      <point x="259" y="387" type="line"/>
      <point x="50" y="538" type="line"/>
    </contour>
    <contour>
      <point x="276" y="444" type="line"/>
      <point x="410" y="340" type="line"/>
      <point x="276" y="236" type="line"/>
      <point x="276" y="142" type="line"/>
      <point x="484" y="293" type="line"/>
      <point x="484" y="387" type="line"/>
      <point x="276" y="538" type="line"/>
    </contour>
  </outline>
</glyph>
<glyph name="onequarter" format="1">
  <advance width="800"/>
  <unicode hex="00BC"/>
  <outline>
    <contour>
      <point x="164" y="0" type="line"/>
      <point x="740" y="780" type="line"/>
      <point x="636" y="780" type="line"/>
      <point x="60" y="0" type="line"/>
    </contour>
    <contour>
      <point x="746" y="0" type="line"/>
      <point x="746" y="83" type="line"/>
      <point x="786" y="83" type="line"/>
      <point x="786" y="157" type="line"/>
      <point x="746" y="157" type="line"/>
      <point x="746" y="390" type="line"/>
      <point x="667" y="390" type="line"/>
      <point x="513" y="142" type="line"/>
      <point x="513" y="83" type="line"/>
      <point x="662" y="83" type="line"/>
      <point x="662" y="0" type="line"/>
    </contour>
    <contour>
      <point x="286" y="390" type="line"/>
      <point x="286" y="463" type="line"/>
      <point x="202" y="463" type="line"/>
      <point x="202" y="780" type="line"/>
      <point x="139" y="780" type="line"/>
      <point x="17" y="698" type="line"/>
      <point x="59" y="637" type="line"/>
      <point x="118" y="677" type="line"/>
      <point x="118" y="463" type="line"/>
      <point x="33" y="463" type="line"/>
      <point x="33" y="390" type="line"/>
    </contour>
    <contour>
      <point x="663" y="256" type="line"/>
      <point x="662" y="230" type="line"/>
      <point x="662" y="157" type="line"/>
      <point x="624" y="157" type="line"/>
      <point x="600" y="155" type="line"/>
    </contour>
  </outline>
</glyph>
<glyph name="onehalf" format="1">
  <advance width="800"/>
  <unicode hex="00BD"/>
  <outline>
    <contour>
      <point x="164" y="0" type="line"/>
      <point x="740" y="780" type="line"/>
      <point x="636" y="780" type="line"/>
      <point x="60" y="0" type="line"/>
    </contour>
    <contour>
      <point x="779" y="73" type="line"/>
      <point x="639" y="73" type="line"/>
      <point x="735" y="178" type="line" smooth="yes"/>
      <point x="763" y="209"/>
      <point x="779" y="232"/>
      <point x="779" y="278" type="curve" smooth="yes"/>
      <point x="779" y="288" type="line" smooth="yes"/>
      <point x="779" y="338"/>
      <point x="746" y="396"/>
      <point x="650" y="396" type="curve" smooth="yes"/>
      <point x="562" y="396"/>
      <point x="521" y="354"/>
      <point x="521" y="270" type="curve" smooth="yes"/>
      <point x="521" y="260" type="line"/>
      <point x="605" y="260" type="line"/>
      <point x="605" y="307"/>
      <point x="622" y="323"/>
      <point x="647" y="323" type="curve" smooth="yes"/>
      <point x="652" y="323" type="line" smooth="yes"/>
      <point x="677" y="323"/>
      <point x="695" y="307"/>
      <point x="695" y="273" type="curve" smooth="yes"/>
      <point x="695" y="268" type="line" smooth="yes"/>
      <point x="695" y="246"/>
      <point x="686" y="234"/>
      <point x="670" y="217" type="curve" smooth="yes"/>
      <point x="521" y="53" type="line"/>
      <point x="521" y="0" type="line"/>
      <point x="779" y="0" type="line"/>
    </contour>
    <contour>
      <point x="286" y="390" type="line"/>
      <point x="286" y="463" type="line"/>
      <point x="202" y="463" type="line"/>
      <point x="202" y="780" type="line"/>
      <point x="139" y="780" type="line"/>
      <point x="17" y="698" type="line"/>
      <point x="59" y="637" type="line"/>
      <point x="118" y="677" type="line"/>
      <point x="118" y="463" type="line"/>
      <point x="33" y="463" type="line"/>
      <point x="33" y="390" type="line"/>
    </contour>
  </outline>
</glyph>
<glyph name="threequarters" format="1">
  <advance width="800"/>
  <unicode hex="00BE"/>
  <outline>
    <contour>
      <point x="164" y="0" type="line"/>
      <point x="740" y="780" type="line"/>
      <point x="636" y="780" type="line"/>
      <point x="60" y="0" type="line"/>
    </contour>
    <contour>
      <point x="102" y="515" type="curve"/>
      <point x="18" y="515" type="line"/>
      <point x="18" y="508" type="line" smooth="yes"/>
      <point x="18" y="428"/>
      <point x="62" y="383"/>
      <point x="150" y="383" type="curve" smooth="yes"/>
      <point x="245" y="383"/>
      <point x="281" y="447"/>
      <point x="281" y="495" type="curve" smooth="yes"/>
      <point x="281" y="504" type="line" smooth="yes"/>
      <point x="281" y="546"/>
      <point x="260" y="573"/>
      <point x="234" y="589" type="curve"/>
      <point x="259" y="604"/>
      <point x="279" y="631"/>
      <point x="279" y="673" type="curve" smooth="yes"/>
      <point x="279" y="682" type="line" smooth="yes"/>
      <point x="279" y="728"/>
      <point x="246" y="786"/>
      <point x="150" y="786" type="curve" smooth="yes"/>
      <point x="62" y="786"/>
      <point x="21" y="744"/>
      <point x="21" y="660" type="curve" smooth="yes"/>
      <point x="21" y="650" type="line"/>
      <point x="105" y="650" type="line"/>
      <point x="105" y="697"/>
      <point x="122" y="713"/>
      <point x="147" y="713" type="curve" smooth="yes"/>
      <point x="152" y="713" type="line" smooth="yes"/>
      <point x="177" y="713"/>
      <point x="195" y="697"/>
      <point x="195" y="673" type="curve" smooth="yes"/>
      <point x="195" y="667" type="line" smooth="yes"/>
      <point x="195" y="639"/>
      <point x="179" y="626"/>
      <point x="152" y="626" type="curve" smooth="yes"/>
      <point x="100" y="626" type="line"/>
      <point x="100" y="552" type="line"/>
      <point x="153" y="552" type="line" smooth="yes"/>
      <point x="180" y="552"/>
      <point x="198" y="537"/>
      <point x="198" y="509" type="curve" smooth="yes"/>
      <point x="198" y="504" type="line" smooth="yes"/>
      <point x="198" y="471"/>
      <point x="176" y="456"/>
      <point x="152" y="456" type="curve" smooth="yes"/>
      <point x="147" y="456" type="line" smooth="yes"/>
      <point x="122" y="456"/>
      <point x="102" y="470"/>
    </contour>
    <contour>
      <point x="746" y="0" type="line"/>
      <point x="746" y="83" type="line"/>
      <point x="786" y="83" type="line"/>
      <point x="786" y="157" type="line"/>
      <point x="746" y="157" type="line"/>
      <point x="746" y="390" type="line"/>
      <point x="667" y="390" type="line"/>
      <point x="513" y="142" type="line"/>
      <point x="513" y="83" type="line"/>
      <point x="662" y="83" type="line"/>
      <point x="662" y="0" type="line"/>
    </contour>
    <contour>
      <point x="663" y="256" type="line"/>
      <point x="662" y="230" type="line"/>
      <point x="662" y="157" type="line"/>
      <point x="624" y="157" type="line"/>
      <point x="600" y="155" type="line"/>
    </contour>
  </outline>
</glyph>
<glyph name="questiondown" format="1">
  <advance width="470"/>
  <unicode hex="00BF"/>
  <outline>
    <contour>
      <point x="231" y="-121" type="curve" smooth="yes"/>
      <point x="157" y="-121"/>
      <point x="128" y="-80"/>
      <point x="128" y="-17" type="curve" smooth="yes"/>
      <point x="128" y="101"/>
      <point x="281" y="159"/>
      <point x="272" y="327" type="curve"/>
      <point x="202" y="327" type="line"/>
      <point x="193" y="159"/>
      <point x="25" y="170"/>
      <point x="25" y="-26" type="curve" smooth="yes"/>
      <point x="25" y="-128"/>
      <point x="84" y="-212"/>
      <point x="231" y="-212" type="curve" smooth="yes"/>
      <point x="397" y="-212"/>
      <point x="445" y="-108"/>
      <point x="445" y="46" type="curve" smooth="yes"/>
      <point x="445" y="60" type="line"/>
      <point x="343" y="60" type="line"/>
      <point x="343" y="-57"/>
      <point x="318" y="-121"/>
    </contour>
    <contour>
      <point x="180" y="416" type="line"/>
      <point x="294" y="416" type="line"/>
      <point x="294" y="530" type="line"/>
      <point x="180" y="530" type="line"/>
    </contour>
  </outline>
</glyph>
<glyph name="Acircumflex" format="1">
  <advance width="621"/>
  <unicode hex="00C2"/>
  <outline>
    <contour>
      <point x="238" y="786" type="line"/>
      <point x="23" y="0" type="line"/>
      <point x="136" y="0" type="line"/>
      <point x="185" y="188" type="line"/>
      <point x="437" y="188" type="line"/>
      <point x="486" y="0" type="line"/>
      <point x="598" y="0" type="line"/>
      <point x="383" y="786" type="line"/>
    </contour>
    <contour>
      <point x="311" y="669" type="line"/>
      <point x="413" y="280" type="line"/>
      <point x="209" y="280" type="line"/>
    </contour>
    <contour>
      <point x="245" y="840" type="line"/>
      <point x="311" y="897" type="line"/>
      <point x="377" y="840" type="line"/>
      <point x="473" y="840" type="line"/>
      <point x="360" y="950" type="line"/>
      <point x="262" y="950" type="line"/>
      <point x="149" y="840" type="line"/>
    </contour>
  </outline>
</glyph>
<glyph name="Atilde" format="1">
  <advance width="621"/>
  <unicode hex="00C3"/>
  <outline>
    <contour>
      <point x="238" y="786" type="line"/>
      <point x="23" y="0" type="line"/>
      <point x="136" y="0" type="line"/>
      <point x="185" y="188" type="line"/>
      <point x="437" y="188" type="line"/>
      <point x="486" y="0" type="line"/>
      <point x="598" y="0" type="line"/>
      <point x="383" y="786" type="line"/>
    </contour>
    <contour>
      <point x="311" y="669" type="line"/>
      <point x="413" y="280" type="line"/>
      <point x="209" y="280" type="line"/>
    </contour>
    <contour>
      <point x="412" y="940" type="line"/>
      <point x="412" y="910"/>
      <point x="396" y="901"/>
      <point x="377" y="901" type="curve" smooth="yes"/>
      <point x="338" y="901"/>
      <point x="298" y="952"/>
      <point x="235" y="952" type="curve" smooth="yes"/>
      <point x="186" y="952"/>
      <point x="148" y="924"/>
      <point x="148" y="850" type="curve"/>
      <point x="210" y="850" type="line"/>
      <point x="210" y="880"/>
      <point x="226" y="889"/>
      <point x="245" y="889" type="curve" smooth="yes"/>
      <point x="284" y="889"/>
      <point x="324" y="838"/>
      <point x="387" y="838" type="curve" smooth="yes"/>
      <point x="436" y="838"/>
      <point x="474" y="866"/>
      <point x="474" y="940" type="curve"/>
    </contour>
  </outline>
</glyph>
<glyph name="Adieresis" format="1">
  <advance width="621"/>
  <unicode hex="00C4"/>
  <outline>
    <contour>
      <point x="238" y="786" type="line"/>
      <point x="23" y="0" type="line"/>
      <point x="136" y="0" type="line"/>
      <point x="185" y="188" type="line"/>
      <point x="437" y="188" type="line"/>
      <point x="486" y="0" type="line"/>
      <point x="598" y="0" type="line"/>
      <point x="383" y="786" type="line"/>
    </contour>
    <contour>
      <point x="311" y="669" type="line"/>
      <point x="413" y="280" type="line"/>
      <point x="209" y="280" type="line"/>
    </contour>
    <contour>
      <point x="279" y="936" type="line"/>
      <point x="180" y="936" type="line"/>
      <point x="180" y="854" type="line"/>
      <point x="279" y="854" type="line"/>
    </contour>
    <contour>
      <point x="442" y="936" type="line"/>
      <point x="343" y="936" type="line"/>
      <point x="343" y="854" type="line"/>
      <point x="442" y="854" type="line"/>
    </contour>
  </outline>
</glyph>
<glyph name="Aring" format="1">
  <advance width="621"/>
  <unicode hex="00C5"/>
  <outline>
    <contour>
      <point x="213" y="864" type="curve" smooth="yes"/>
      <point x="213" y="832"/>
      <point x="227" y="804"/>
      <point x="250" y="786" type="curve"/>
      <point x="238" y="786" type="line"/>
      <point x="23" y="0" type="line"/>
      <point x="136" y="0" type="line"/>
      <point x="185" y="188" type="line"/>
      <point x="437" y="188" type="line"/>
      <point x="486" y="0" type="line"/>
      <point x="598" y="0" type="line"/>
      <point x="383" y="786" type="line"/>
      <point x="371" y="786" type="line"/>
      <point x="394" y="804"/>
      <point x="409" y="832"/>
      <point x="409" y="864" type="curve" smooth="yes"/>
      <point x="409" y="918"/>
      <point x="365" y="962"/>
      <point x="311" y="962" type="curve" smooth="yes"/>
      <point x="257" y="962"/>
      <point x="213" y="918"/>
    </contour>
    <contour>
      <point x="311" y="669" type="line"/>
      <point x="413" y="280" type="line"/>
      <point x="209" y="280" type="line"/>
    </contour>
    <contour>
      <point x="257" y="864" type="curve" smooth="yes"/>
      <point x="257" y="893"/>
      <point x="281" y="918"/>
      <point x="311" y="918" type="curve" smooth="yes"/>
      <point x="341" y="918"/>
      <point x="365" y="893"/>
      <point x="365" y="864" type="curve" smooth="yes"/>
      <point x="365" y="834"/>
      <point x="341" y="809"/>
      <point x="311" y="809" type="curve" smooth="yes"/>
      <point x="281" y="809"/>
      <point x="257" y="834"/>
    </contour>
  </outline>
</glyph>
<glyph name="AE" format="1">
  <advance width="854"/>
  <unicode hex="00C6"/>
  <outline>
    <contour>
      <point x="299" y="780" type="line"/>
      <point x="15" y="0" type="line"/>
      <point x="127" y="0" type="line"/>
      <point x="194" y="194" type="line"/>
      <point x="419" y="194" type="line"/>
      <point x="444" y="0" type="line"/>
      <point x="814" y="0" type="line"/>
      <point x="814" y="92" type="line"/>
      <point x="541" y="92" type="line"/>
      <point x="504" y="352" type="line"/>
      <point x="764" y="352" type="line"/>
      <point x="764" y="444" type="line"/>
      <point x="491" y="444" type="line"/>
      <point x="456" y="688" type="line"/>
      <point x="814" y="688" type="line"/>
      <point x="814" y="780" type="line"/>
    </contour>
    <contour>
      <point x="358" y="664" type="line"/>
      <point x="407" y="286" type="line"/>
      <point x="226" y="286" type="line"/>
    </contour>
  </outline>
</glyph>
<glyph name="Ccedilla" format="1">
  <advance width="630"/>
  <unicode hex="00C7"/>
  <outline>
    <contour>
      <point x="239" y="-191" type="line"/>
      <point x="258" y="-203"/>
      <point x="295" y="-213"/>
      <point x="336" y="-213" type="curve" smooth="yes"/>
      <point x="404" y="-213"/>
      <point x="445" y="-187"/>
      <point x="445" y="-131" type="curve" smooth="yes"/>
      <point x="445" y="-74"/>
      <point x="396" y="-51"/>
      <point x="343" y="-50" type="curve"/>
      <point x="358" y="-11" type="line"/>
      <point x="509" y="0"/>
      <point x="583" y="85"/>
      <point x="583" y="249" type="curve" smooth="yes"/>
      <point x="583" y="259" type="line"/>
      <point x="478" y="259" type="line"/>
      <point x="478" y="146"/>
      <point x="436" y="80"/>
      <point x="332" y="80" type="curve" smooth="yes"/>
      <point x="325" y="80" type="line" smooth="yes"/>
      <point x="203" y="80"/>
      <point x="157" y="172"/>
      <point x="157" y="370" type="curve" smooth="yes"/>
      <point x="157" y="410" type="line" smooth="yes"/>
      <point x="157" y="608"/>
      <point x="204" y="700"/>
      <point x="325" y="700" type="curve" smooth="yes"/>
      <point x="332" y="700" type="line" smooth="yes"/>
      <point x="438" y="700"/>
      <point x="478" y="633"/>
      <point x="478" y="491" type="curve"/>
      <point x="583" y="491" type="line"/>
      <point x="583" y="522" type="line" smooth="yes"/>
      <point x="583" y="706"/>
      <point x="498" y="792"/>
      <point x="325" y="792" type="curve" smooth="yes"/>
      <point x="138" y="792"/>
      <point x="50" y="680"/>
      <point x="50" y="410" type="curve" smooth="yes"/>
      <point x="50" y="370" type="line" smooth="yes"/>
      <point x="50" y="112"/>
      <point x="130" y="-1"/>
      <point x="300" y="-11" type="curve"/>
      <point x="275" y="-77" type="line"/>
      <point x="292" y="-102" type="line"/>
      <point x="292" y="-102"/>
      <point x="308" y="-99"/>
      <point x="324" y="-99" type="curve" smooth="yes"/>
      <point x="360" y="-99"/>
      <point x="381" y="-106"/>
      <point x="381" y="-126" type="curve" smooth="yes"/>
      <point x="381" y="-147"/>
      <point x="364" y="-155"/>
      <point x="327" y="-155" type="curve" smooth="yes"/>
      <point x="301" y="-155"/>
      <point x="273" y="-148"/>
      <point x="257" y="-139" type="curve"/>
    </contour>
  </outline>
</glyph>
<glyph name="Egrave" format="1">
  <advance width="557"/>
  <unicode hex="00C8"/>
  <outline>
    <contour>
      <point x="67" y="780" type="line"/>
      <point x="67" y="0" type="line"/>
      <point x="517" y="0" type="line"/>
      <point x="517" y="92" type="line"/>
      <point x="171" y="92" type="line"/>
      <point x="171" y="352" type="line"/>
      <point x="467" y="352" type="line"/>
      <point x="467" y="444" type="line"/>
      <point x="171" y="444" type="line"/>
      <point x="171" y="688" type="line"/>
      <point x="517" y="688" type="line"/>
      <point x="517" y="780" type="line"/>
    </contour>
    <contour>
      <point x="184" y="950" type="line"/>
      <point x="247" y="840" type="line"/>
      <point x="349" y="840" type="line"/>
      <point x="291" y="950" type="line"/>
    </contour>
  </outline>
</glyph>
<glyph name="Ecircumflex" format="1">
  <advance width="557"/>
  <unicode hex="00CA"/>
  <outline>
    <contour>
      <point x="67" y="780" type="line"/>
      <point x="67" y="0" type="line"/>
      <point x="517" y="0" type="line"/>
      <point x="517" y="92" type="line"/>
      <point x="171" y="92" type="line"/>
      <point x="171" y="352" type="line"/>
      <point x="467" y="352" type="line"/>
      <point x="467" y="444" type="line"/>
      <point x="171" y="444" type="line"/>
      <point x="171" y="688" type="line"/>
      <point x="517" y="688" type="line"/>
      <point x="517" y="780" type="line"/>
    </contour>
    <contour>
      <point x="232" y="840" type="line"/>
      <point x="298" y="897" type="line"/>
      <point x="364" y="840" type="line"/>
      <point x="460" y="840" type="line"/>
      <point x="347" y="950" type="line"/>
      <point x="249" y="950" type="line"/>
      <point x="136" y="840" type="line"/>
    </contour>
  </outline>
</glyph>
<glyph name="Edieresis" format="1">
  <advance width="557"/>
  <unicode hex="00CB"/>
  <outline>
    <contour>
      <point x="67" y="780" type="line"/>
      <point x="67" y="0" type="line"/>
      <point x="517" y="0" type="line"/>
      <point x="517" y="92" type="line"/>
      <point x="171" y="92" type="line"/>
      <point x="171" y="352" type="line"/>
      <point x="467" y="352" type="line"/>
      <point x="467" y="444" type="line"/>
      <point x="171" y="444" type="line"/>
      <point x="171" y="688" type="line"/>
      <point x="517" y="688" type="line"/>
      <point x="517" y="780" type="line"/>
    </contour>
    <contour>
      <point x="266" y="936" type="line"/>
      <point x="167" y="936" type="line"/>
      <point x="167" y="854" type="line"/>
      <point x="266" y="854" type="line"/>
    </contour>
    <contour>
      <point x="429" y="936" type="line"/>
      <point x="330" y="936" type="line"/>
      <point x="330" y="854" type="line"/>
      <point x="429" y="854" type="line"/>
    </contour>
  </outline>
</glyph>
<glyph name="Igrave" format="1">
  <advance width="248"/>
  <unicode hex="00CC"/>
  <outline>
    <contour>
      <point x="176" y="780" type="line"/>
      <point x="72" y="780" type="line"/>
      <point x="72" y="0" type="line"/>
      <point x="176" y="0" type="line"/>
    </contour>
    <contour>
      <point x="10" y="950" type="line"/>
      <point x="73" y="840" type="line"/>
      <point x="175" y="840" type="line"/>
      <point x="117" y="950" type="line"/>
    </contour>
  </outline>
</glyph>
<glyph name="Iacute" format="1">
  <advance width="248"/>
  <unicode hex="00CD"/>
  <outline>
    <contour>
      <point x="176" y="780" type="line"/>
      <point x="72" y="780" type="line"/>
      <point x="72" y="0" type="line"/>
      <point x="176" y="0" type="line"/>
    </contour>
    <contour>
      <point x="131" y="950" type="line"/>
      <point x="73" y="840" type="line"/>
      <point x="175" y="840" type="line"/>
      <point x="238" y="950" type="line"/>
    </contour>
  </outline>
</glyph>
<glyph name="Icircumflex" format="1">
  <advance width="248"/>
  <unicode hex="00CE"/>
  <outline>
    <contour>
      <point x="176" y="780" type="line"/>
      <point x="72" y="780" type="line"/>
      <point x="72" y="0" type="line"/>
      <point x="176" y="0" type="line"/>
    </contour>
    <contour>
      <point x="58" y="840" type="line"/>
      <point x="124" y="897" type="line"/>
      <point x="190" y="840" type="line"/>
      <point x="286" y="840" type="line"/>
      <point x="173" y="950" type="line"/>
      <point x="75" y="950" type="line"/>
      <point x="-38" y="840" type="line"/>
    </contour>
  </outline>
</glyph>
<glyph name="Idieresis" format="1">
  <advance width="248"/>
  <unicode hex="00CF"/>
  <outline>
    <contour>
      <point x="176" y="780" type="line"/>
      <point x="72" y="780" type="line"/>
      <point x="72" y="0" type="line"/>
      <point x="176" y="0" type="line"/>
    </contour>
    <contour>
      <point x="255" y="936" type="line"/>
      <point x="156" y="936" type="line"/>
      <point x="156" y="854" type="line"/>
      <point x="255" y="854" type="line"/>
    </contour>
    <contour>
      <point x="92" y="936" type="line"/>
      <point x="-7" y="936" type="line"/>
      <point x="-7" y="854" type="line"/>
      <point x="92" y="854" type="line"/>
    </contour>
  </outline>
</glyph>
<glyph name="Eth" format="1">
  <advance width="707"/>
  <unicode hex="00D0"/>
  <outline>
    <contour>
      <point x="16" y="352" type="line"/>
      <point x="127" y="352" type="line"/>
      <point x="127" y="0" type="line"/>
      <point x="346" y="0" type="line" smooth="yes"/>
      <point x="551" y="0"/>
      <point x="657" y="100"/>
      <point x="657" y="370" type="curve" smooth="yes"/>
      <point x="657" y="410" type="line" smooth="yes"/>
      <point x="657" y="680"/>
      <point x="551" y="780"/>
      <point x="346" y="780" type="curve" smooth="yes"/>
      <point x="127" y="780" type="line"/>
      <point x="127" y="444" type="line"/>
      <point x="16" y="444" type="line"/>
    </contour>
    <contour>
      <point x="231" y="688" type="line"/>
      <point x="339" y="688" type="line" smooth="yes"/>
      <point x="483" y="688"/>
      <point x="550" y="608"/>
      <point x="550" y="410" type="curve" smooth="yes"/>
      <point x="550" y="370" type="line" smooth="yes"/>
      <point x="550" y="172"/>
      <point x="483" y="92"/>
      <point x="339" y="92" type="curve" smooth="yes"/>
      <point x="231" y="92" type="line"/>
      <point x="231" y="352" type="line"/>
      <point x="427" y="352" type="line"/>
      <point x="427" y="444" type="line"/>
      <point x="231" y="444" type="line"/>
    </contour>
  </outline>
</glyph>
<glyph name="Ntilde" format="1">
  <advance width="667"/>
  <unicode hex="00D1"/>
  <outline>
    <contour>
      <point x="600" y="780" type="line"/>
      <point x="501" y="780" type="line"/>
      <point x="501" y="357" type="line"/>
      <point x="505" y="184" type="line"/>
      <point x="178" y="780" type="line"/>
      <point x="67" y="780" type="line"/>
      <point x="67" y="0" type="line"/>
      <point x="166" y="0" type="line"/>
      <point x="166" y="423" type="line"/>
      <point x="162" y="596" type="line"/>
      <point x="489" y="0" type="line"/>
      <point x="600" y="0" type="line"/>
    </contour>
    <contour>
      <point x="435" y="940" type="line"/>
      <point x="435" y="910"/>
      <point x="419" y="901"/>
      <point x="400" y="901" type="curve" smooth="yes"/>
      <point x="361" y="901"/>
      <point x="321" y="952"/>
      <point x="258" y="952" type="curve" smooth="yes"/>
      <point x="209" y="952"/>
      <point x="171" y="924"/>
      <point x="171" y="850" type="curve"/>
      <point x="233" y="850" type="line"/>
      <point x="233" y="880"/>
      <point x="249" y="889"/>
      <point x="268" y="889" type="curve" smooth="yes"/>
      <point x="307" y="889"/>
      <point x="347" y="838"/>
      <point x="410" y="838" type="curve" smooth="yes"/>
      <point x="459" y="838"/>
      <point x="497" y="866"/>
      <point x="497" y="940" type="curve"/>
    </contour>
  </outline>
</glyph>
<glyph name="Ocircumflex" format="1">
  <advance width="657"/>
  <unicode hex="00D4"/>
  <outline>
    <contour>
      <point x="329" y="-12" type="curve" smooth="yes"/>
      <point x="516" y="-12"/>
      <point x="607" y="100"/>
      <point x="607" y="370" type="curve" smooth="yes"/>
      <point x="607" y="410" type="line" smooth="yes"/>
      <point x="607" y="680"/>
      <point x="516" y="792"/>
      <point x="329" y="792" type="curve" smooth="yes"/>
      <point x="141" y="792"/>
      <point x="50" y="680"/>
      <point x="50" y="410" type="curve" smooth="yes"/>
      <point x="50" y="370" type="line" smooth="yes"/>
      <point x="50" y="100"/>
      <point x="141" y="-12"/>
    </contour>
    <contour>
      <point x="325" y="80" type="line" smooth="yes"/>
      <point x="205" y="80"/>
      <point x="157" y="172"/>
      <point x="157" y="370" type="curve" smooth="yes"/>
      <point x="157" y="410" type="line" smooth="yes"/>
      <point x="157" y="608"/>
      <point x="205" y="700"/>
      <point x="325" y="700" type="curve" smooth="yes"/>
      <point x="332" y="700" type="line" smooth="yes"/>
      <point x="452" y="700"/>
      <point x="500" y="608"/>
      <point x="500" y="410" type="curve" smooth="yes"/>
      <point x="500" y="370" type="line" smooth="yes"/>
      <point x="500" y="172"/>
      <point x="452" y="80"/>
      <point x="332" y="80" type="curve" smooth="yes"/>
    </contour>
    <contour>
      <point x="263" y="840" type="line"/>
      <point x="329" y="897" type="line"/>
      <point x="395" y="840" type="line"/>
      <point x="491" y="840" type="line"/>
      <point x="378" y="950" type="line"/>
      <point x="280" y="950" type="line"/>
      <point x="167" y="840" type="line"/>
    </contour>
  </outline>
</glyph>
<glyph name="Otilde" format="1">
  <advance width="657"/>
  <unicode hex="00D5"/>
  <outline>
    <contour>
      <point x="329" y="-12" type="curve" smooth="yes"/>
      <point x="516" y="-12"/>
      <point x="607" y="100"/>
      <point x="607" y="370" type="curve" smooth="yes"/>
      <point x="607" y="410" type="line" smooth="yes"/>
      <point x="607" y="680"/>
      <point x="516" y="792"/>
      <point x="329" y="792" type="curve" smooth="yes"/>
      <point x="141" y="792"/>
      <point x="50" y="680"/>
      <point x="50" y="410" type="curve" smooth="yes"/>
      <point x="50" y="370" type="line" smooth="yes"/>
      <point x="50" y="100"/>
      <point x="141" y="-12"/>
    </contour>
    <contour>
      <point x="325" y="80" type="line" smooth="yes"/>
      <point x="205" y="80"/>
      <point x="157" y="172"/>
      <point x="157" y="370" type="curve" smooth="yes"/>
      <point x="157" y="410" type="line" smooth="yes"/>
      <point x="157" y="608"/>
      <point x="205" y="700"/>
      <point x="325" y="700" type="curve" smooth="yes"/>
      <point x="332" y="700" type="line" smooth="yes"/>
      <point x="452" y="700"/>
      <point x="500" y="608"/>
      <point x="500" y="410" type="curve" smooth="yes"/>
      <point x="500" y="370" type="line" smooth="yes"/>
      <point x="500" y="172"/>
      <point x="452" y="80"/>
      <point x="332" y="80" type="curve" smooth="yes"/>
    </contour>
    <contour>
      <point x="430" y="940" type="line"/>
      <point x="430" y="910"/>
      <point x="414" y="901"/>
      <point x="395" y="901" type="curve" smooth="yes"/>
      <point x="356" y="901"/>
      <point x="316" y="952"/>
      <point x="253" y="952" type="curve" smooth="yes"/>
      <point x="204" y="952"/>
      <point x="166" y="924"/>
      <point x="166" y="850" type="curve"/>
      <point x="228" y="850" type="line"/>
      <point x="228" y="880"/>
      <point x="244" y="889"/>
      <point x="263" y="889" type="curve" smooth="yes"/>
      <point x="302" y="889"/>
      <point x="342" y="838"/>
      <point x="405" y="838" type="curve" smooth="yes"/>
      <point x="454" y="838"/>
      <point x="492" y="866"/>
      <point x="492" y="940" type="curve"/>
    </contour>
  </outline>
</glyph>
<glyph name="multiply" format="1">
  <advance width="600"/>
  <unicode hex="00D7"/>
  <outline>
    <contour>
      <point x="99" y="123" type="line"/>
      <point x="300" y="324" type="line"/>
      <point x="501" y="123" type="line"/>
      <point x="567" y="189" type="line"/>
      <point x="366" y="390" type="line"/>
      <point x="567" y="591" type="line"/>
      <point x="501" y="657" type="line"/>
      <point x="300" y="456" type="line"/>
      <point x="99" y="657" type="line"/>
      <point x="33" y="591" type="line"/>
      <point x="234" y="390" type="line"/>
      <point x="33" y="189" type="line"/>
    </contour>
  </outline>
</glyph>
<glyph name="Oslash" format="1">
  <advance width="649"/>
  <unicode hex="00D8"/>
  <outline>
    <contour>
      <point x="50" y="410" type="curve" smooth="yes"/>
      <point x="50" y="370" type="line" smooth="yes"/>
      <point x="50" y="247"/>
      <point x="69" y="157"/>
      <point x="107" y="95" type="curve"/>
      <point x="48" y="0" type="line"/>
      <point x="121" y="0" type="line"/>
      <point x="149" y="45" type="line"/>
      <point x="193" y="6"/>
      <point x="253" y="-12"/>
      <point x="329" y="-12" type="curve" smooth="yes"/>
      <point x="516" y="-12"/>
      <point x="607" y="100"/>
      <point x="607" y="370" type="curve" smooth="yes"/>
      <point x="607" y="410" type="line" smooth="yes"/>
      <point x="607" y="536"/>
      <point x="587" y="627"/>
      <point x="547" y="689" type="curve"/>
      <point x="603" y="780" type="line"/>
      <point x="531" y="780" type="line"/>
      <point x="505" y="737" type="line"/>
      <point x="461" y="775"/>
      <point x="402" y="792"/>
      <point x="329" y="792" type="curve" smooth="yes"/>
      <point x="141" y="792"/>
      <point x="50" y="680"/>
    </contour>
    <contour>
      <point x="500" y="410" type="curve" smooth="yes"/>
      <point x="500" y="370" type="line" smooth="yes"/>
      <point x="500" y="172"/>
      <point x="452" y="80"/>
      <point x="332" y="80" type="curve" smooth="yes"/>
      <point x="325" y="80" type="line" smooth="yes"/>
      <point x="271" y="80"/>
      <point x="232" y="98"/>
      <point x="205" y="136" type="curve"/>
      <point x="480" y="582" type="line"/>
      <point x="494" y="537"/>
      <point x="500" y="480"/>
    </contour>
    <contour>
      <point x="157" y="370" type="curve" smooth="yes"/>
      <point x="157" y="410" type="line" smooth="yes"/>
      <point x="157" y="608"/>
      <point x="205" y="700"/>
      <point x="325" y="700" type="curve" smooth="yes"/>
      <point x="332" y="700" type="line" smooth="yes"/>
      <point x="383" y="700"/>
      <point x="422" y="683"/>
      <point x="449" y="647" type="curve"/>
      <point x="174" y="204" type="line"/>
      <point x="162" y="248"/>
      <point x="157" y="303"/>
    </contour>
  </outline>
</glyph>
<glyph name="Uacute" format="1">
  <advance width="647"/>
  <unicode hex="00DA"/>
  <outline>
    <contour>
      <point x="324" y="-12" type="curve" smooth="yes"/>
      <point x="506" y="-12"/>
      <point x="585" y="62"/>
      <point x="585" y="243" type="curve" smooth="yes"/>
      <point x="585" y="780" type="line"/>
      <point x="481" y="780" type="line"/>
      <point x="481" y="248" type="line" smooth="yes"/>
      <point x="481" y="124"/>
      <point x="433" y="80"/>
      <point x="324" y="80" type="curve" smooth="yes"/>
      <point x="214" y="80"/>
      <point x="166" y="124"/>
      <point x="166" y="248" type="curve" smooth="yes"/>
      <point x="166" y="780" type="line"/>
      <point x="62" y="780" type="line"/>
      <point x="62" y="243" type="line" smooth="yes"/>
      <point x="62" y="62"/>
      <point x="141" y="-12"/>
    </contour>
    <contour>
      <point x="331" y="950" type="line"/>
      <point x="273" y="840" type="line"/>
      <point x="375" y="840" type="line"/>
      <point x="438" y="950" type="line"/>
    </contour>
  </outline>
</glyph>
<glyph name="Ucircumflex" format="1">
  <advance width="647"/>
  <unicode hex="00DB"/>
  <outline>
    <contour>
      <point x="324" y="-12" type="curve" smooth="yes"/>
      <point x="506" y="-12"/>
      <point x="585" y="62"/>
      <point x="585" y="243" type="curve" smooth="yes"/>
      <point x="585" y="780" type="line"/>
      <point x="481" y="780" type="line"/>
      <point x="481" y="248" type="line" smooth="yes"/>
      <point x="481" y="124"/>
      <point x="433" y="80"/>
      <point x="324" y="80" type="curve" smooth="yes"/>
      <point x="214" y="80"/>
      <point x="166" y="124"/>
      <point x="166" y="248" type="curve" smooth="yes"/>
      <point x="166" y="780" type="line"/>
      <point x="62" y="780" type="line"/>
      <point x="62" y="243" type="line" smooth="yes"/>
      <point x="62" y="62"/>
      <point x="141" y="-12"/>
    </contour>
    <contour>
      <point x="258" y="840" type="line"/>
      <point x="324" y="897" type="line"/>
      <point x="390" y="840" type="line"/>
      <point x="486" y="840" type="line"/>
      <point x="373" y="950" type="line"/>
      <point x="275" y="950" type="line"/>
      <point x="162" y="840" type="line"/>
    </contour>
  </outline>
</glyph>
<glyph name="Udieresis" format="1">
  <advance width="647"/>
  <unicode hex="00DC"/>
  <outline>
    <contour>
      <point x="324" y="-12" type="curve" smooth="yes"/>
      <point x="506" y="-12"/>
      <point x="585" y="62"/>
      <point x="585" y="243" type="curve" smooth="yes"/>
      <point x="585" y="780" type="line"/>
      <point x="481" y="780" type="line"/>
      <point x="481" y="248" type="line" smooth="yes"/>
      <point x="481" y="124"/>
      <point x="433" y="80"/>
      <point x="324" y="80" type="curve" smooth="yes"/>
      <point x="214" y="80"/>
      <point x="166" y="124"/>
      <point x="166" y="248" type="curve" smooth="yes"/>
      <point x="166" y="780" type="line"/>
      <point x="62" y="780" type="line"/>
      <point x="62" y="243" type="line" smooth="yes"/>
      <point x="62" y="62"/>
      <point x="141" y="-12"/>
    </contour>
    <contour>
      <point x="292" y="936" type="line"/>
      <point x="193" y="936" type="line"/>
      <point x="193" y="854" type="line"/>
      <point x="292" y="854" type="line"/>
    </contour>
    <contour>
      <point x="455" y="936" type="line"/>
      <point x="356" y="936" type="line"/>
      <point x="356" y="854" type="line"/>
      <point x="455" y="854" type="line"/>
    </contour>
  </outline>
</glyph>
<glyph name="Yacute" format="1">
  <advance width="594"/>
  <unicode hex="00DD"/>
  <outline>
    <contour>
      <point x="349" y="237" type="line"/>
      <point x="578" y="780" type="line"/>
      <point x="465" y="780" type="line"/>
      <point x="297" y="366" type="line"/>
      <point x="129" y="780" type="line"/>
      <point x="16" y="780" type="line"/>
      <point x="245" y="237" type="line"/>
      <point x="245" y="0" type="line"/>
      <point x="349" y="0" type="line"/>
    </contour>
    <contour>
      <point x="304" y="950" type="line"/>
      <point x="246" y="840" type="line"/>
      <point x="348" y="840" type="line"/>
      <point x="411" y="950" type="line"/>
    </contour>
  </outline>
</glyph>
<glyph name="Thorn" format="1">
  <advance width="586"/>
  <unicode hex="00DE"/>
  <outline>
    <contour>
      <point x="171" y="780" type="line"/>
      <point x="67" y="780" type="line"/>
      <point x="67" y="0" type="line"/>
      <point x="171" y="0" type="line"/>
      <point x="171" y="152" type="line"/>
      <point x="298" y="152" type="line" smooth="yes"/>
      <point x="415" y="152"/>
      <point x="548" y="190"/>
      <point x="548" y="380" type="curve" smooth="yes"/>
      <point x="548" y="400" type="line" smooth="yes"/>
      <point x="548" y="590"/>
      <point x="415" y="628"/>
      <point x="298" y="628" type="curve" smooth="yes"/>
      <point x="171" y="628" type="line"/>
    </contour>
    <contour>
      <point x="171" y="244" type="line"/>
      <point x="171" y="536" type="line"/>
      <point x="301" y="536" type="line" smooth="yes"/>
      <point x="361" y="536"/>
      <point x="442" y="514"/>
      <point x="442" y="396" type="curve" smooth="yes"/>
      <point x="442" y="384" type="line" smooth="yes"/>
      <point x="442" y="266"/>
      <point x="361" y="244"/>
      <point x="301" y="244" type="curve" smooth="yes"/>
    </contour>
  </outline>
</glyph>
<glyph name="germandbls" format="1">
  <advance width="592"/>
  <unicode hex="00DF"/>
  <outline>
    <contour>
      <point x="270" y="358" type="line"/>
      <point x="352" y="303" type="line" smooth="yes"/>
      <point x="431" y="251"/>
      <point x="467" y="212"/>
      <point x="467" y="161" type="curve" smooth="yes"/>
      <point x="467" y="114"/>
      <point x="454" y="68"/>
      <point x="384" y="68" type="curve" smooth="yes"/>
      <point x="316" y="68"/>
      <point x="301" y="114"/>
      <point x="301" y="164" type="curve"/>
      <point x="213" y="164" type="line"/>
      <point x="213" y="158" type="line" smooth="yes"/>
      <point x="213" y="75"/>
      <point x="242" y="-12"/>
      <point x="386" y="-12" type="curve" smooth="yes"/>
      <point x="521" y="-12"/>
      <point x="567" y="78"/>
      <point x="567" y="161" type="curve" smooth="yes"/>
      <point x="567" y="167" type="line" smooth="yes"/>
      <point x="567" y="249"/>
      <point x="514" y="307"/>
      <point x="419" y="370" type="curve" smooth="yes"/>
      <point x="379" y="397" type="line"/>
      <point x="459" y="451"/>
      <point x="500" y="508"/>
      <point x="500" y="596" type="curve" smooth="yes"/>
      <point x="500" y="604" type="line" smooth="yes"/>
      <point x="500" y="721"/>
      <point x="431" y="812"/>
      <point x="280" y="812" type="curve" smooth="yes"/>
      <point x="123" y="812"/>
      <point x="59" y="724"/>
      <point x="59" y="604" type="curve" smooth="yes"/>
      <point x="59" y="0" type="line"/>
      <point x="159" y="0" type="line"/>
      <point x="159" y="597" type="line" smooth="yes"/>
      <point x="159" y="667"/>
      <point x="195" y="722"/>
      <point x="280" y="722" type="curve" smooth="yes"/>
      <point x="364" y="722"/>
      <point x="400" y="670"/>
      <point x="400" y="593" type="curve" smooth="yes"/>
      <point x="400" y="519"/>
      <point x="357" y="470"/>
      <point x="270" y="422" type="curve"/>
    </contour>
  </outline>
</glyph>
<glyph name="agrave" format="1">
  <advance width="525"/>
  <unicode hex="00E0"/>
  <outline>
    <contour>
      <point x="386" y="0" type="line"/>
      <point x="473" y="0" type="line"/>
      <point x="466" y="150" type="line"/>
      <point x="466" y="343" type="line" smooth="yes"/>
      <point x="466" y="463"/>
      <point x="418" y="542"/>
      <point x="263" y="542" type="curve" smooth="yes"/>
      <point x="100" y="542"/>
      <point x="60" y="448"/>
      <point x="60" y="364" type="curve" smooth="yes"/>
      <point x="60" y="355" type="line"/>
      <point x="155" y="355" type="line"/>
      <point x="155" y="412"/>
      <point x="175" y="462"/>
      <point x="260" y="462" type="curve" smooth="yes"/>
      <point x="341" y="462"/>
      <point x="366" y="422"/>
      <point x="366" y="343" type="curve" smooth="yes"/>
      <point x="366" y="335" type="line"/>
      <point x="219" y="312" type="line" smooth="yes"/>
      <point x="124" y="298"/>
      <point x="40" y="263"/>
      <point x="40" y="148" type="curve" smooth="yes"/>
      <point x="40" y="138" type="line" smooth="yes"/>
      <point x="40" y="53"/>
      <point x="91" y="-12"/>
      <point x="196" y="-12" type="curve" smooth="yes"/>
      <point x="282" y="-12"/>
      <point x="340" y="23"/>
      <point x="376" y="68" type="curve"/>
    </contour>
    <contour>
      <point x="228" y="72" type="curve" smooth="yes"/>
      <point x="165" y="72"/>
      <point x="139" y="110"/>
      <point x="139" y="150" type="curve" smooth="yes"/>
      <point x="139" y="158" type="line" smooth="yes"/>
      <point x="139" y="208"/>
      <point x="172" y="238"/>
      <point x="234" y="248" type="curve" smooth="yes"/>
      <point x="366" y="270" type="line"/>
      <point x="366" y="141" type="line"/>
      <point x="348" y="114"/>
      <point x="307" y="72"/>
    </contour>
    <contour>
      <point x="113" y="780" type="line"/>
      <point x="212" y="607" type="line"/>
      <point x="314" y="607" type="line"/>
      <point x="223" y="780" type="line"/>
    </contour>
  </outline>
</glyph>
<glyph name="atilde" format="1">
  <advance width="525"/>
  <unicode hex="00E3"/>
  <outline>
    <contour>
      <point x="386" y="0" type="line"/>
      <point x="473" y="0" type="line"/>
      <point x="466" y="150" type="line"/>
      <point x="466" y="343" type="line" smooth="yes"/>
      <point x="466" y="463"/>
      <point x="418" y="542"/>
      <point x="263" y="542" type="curve" smooth="yes"/>
      <point x="100" y="542"/>
      <point x="60" y="448"/>
      <point x="60" y="364" type="curve" smooth="yes"/>
      <point x="60" y="355" type="line"/>
      <point x="155" y="355" type="line"/>
      <point x="155" y="412"/>
      <point x="175" y="462"/>
      <point x="260" y="462" type="curve" smooth="yes"/>
      <point x="341" y="462"/>
      <point x="366" y="422"/>
      <point x="366" y="343" type="curve" smooth="yes"/>
      <point x="366" y="335" type="line"/>
      <point x="219" y="312" type="line" smooth="yes"/>
      <point x="124" y="298"/>
      <point x="40" y="263"/>
      <point x="40" y="148" type="curve" smooth="yes"/>
      <point x="40" y="138" type="line" smooth="yes"/>
      <point x="40" y="53"/>
      <point x="91" y="-12"/>
      <point x="196" y="-12" type="curve" smooth="yes"/>
      <point x="282" y="-12"/>
      <point x="340" y="23"/>
      <point x="376" y="68" type="curve"/>
    </contour>
    <contour>
      <point x="228" y="72" type="curve" smooth="yes"/>
      <point x="165" y="72"/>
      <point x="139" y="110"/>
      <point x="139" y="150" type="curve" smooth="yes"/>
      <point x="139" y="158" type="line" smooth="yes"/>
      <point x="139" y="208"/>
      <point x="172" y="238"/>
      <point x="234" y="248" type="curve" smooth="yes"/>
      <point x="366" y="270" type="line"/>
      <point x="366" y="141" type="line"/>
      <point x="348" y="114"/>
      <point x="307" y="72"/>
    </contour>
    <contour>
      <point x="362" y="755" type="line"/>
      <point x="362" y="725"/>
      <point x="347" y="714"/>
      <point x="328" y="714" type="curve" smooth="yes"/>
      <point x="288" y="714"/>
      <point x="246" y="768"/>
      <point x="182" y="768" type="curve" smooth="yes"/>
      <point x="130" y="768"/>
      <point x="91" y="731"/>
      <point x="91" y="645" type="curve"/>
      <point x="164" y="645" type="line"/>
      <point x="164" y="675"/>
      <point x="179" y="686"/>
      <point x="198" y="686" type="curve" smooth="yes"/>
      <point x="238" y="686"/>
      <point x="280" y="632"/>
      <point x="344" y="632" type="curve" smooth="yes"/>
      <point x="396" y="632"/>
      <point x="435" y="669"/>
      <point x="435" y="755" type="curve"/>
    </contour>
  </outline>
</glyph>
<glyph name="ae" format="1">
  <advance width="867"/>
  <unicode hex="00E6"/>
  <outline>
    <contour>
      <point x="829" y="227" type="line"/>
      <point x="829" y="277" type="line" smooth="yes"/>
      <point x="829" y="426"/>
      <point x="759" y="542"/>
      <point x="599" y="542" type="curve" smooth="yes"/>
      <point x="518" y="542"/>
      <point x="463" y="510"/>
      <point x="429" y="459" type="curve"/>
      <point x="405" y="510"/>
      <point x="356" y="542"/>
      <point x="263" y="542" type="curve" smooth="yes"/>
      <point x="100" y="542"/>
      <point x="60" y="448"/>
      <point x="60" y="364" type="curve" smooth="yes"/>
      <point x="60" y="355" type="line"/>
      <point x="155" y="355" type="line"/>
      <point x="155" y="412"/>
      <point x="175" y="462"/>
      <point x="260" y="462" type="curve" smooth="yes"/>
      <point x="341" y="462"/>
      <point x="366" y="422"/>
      <point x="366" y="343" type="curve" smooth="yes"/>
      <point x="366" y="335" type="line"/>
      <point x="220" y="312" type="line" smooth="yes"/>
      <point x="125" y="298"/>
      <point x="40" y="263"/>
      <point x="40" y="148" type="curve" smooth="yes"/>
      <point x="40" y="138" type="line" smooth="yes"/>
      <point x="40" y="53"/>
      <point x="93" y="-12"/>
      <point x="202" y="-12" type="curve" smooth="yes"/>
      <point x="295" y="-12"/>
      <point x="368" y="29"/>
      <point x="412" y="79" type="curve"/>
      <point x="450" y="23"/>
      <point x="513" y="-12"/>
      <point x="605" y="-12" type="curve" smooth="yes"/>
      <point x="755" y="-12"/>
      <point x="829" y="77"/>
      <point x="829" y="166" type="curve" smooth="yes"/>
      <point x="829" y="170" type="line"/>
      <point x="734" y="170" type="line"/>
      <point x="734" y="122"/>
      <point x="693" y="68"/>
      <point x="605" y="68" type="curve" smooth="yes"/>
      <point x="514" y="68"/>
      <point x="470" y="124"/>
      <point x="467" y="227" type="curve"/>
    </contour>
    <contour>
      <point x="371" y="147" type="line"/>
      <point x="356" y="121"/>
      <point x="315" y="70"/>
      <point x="228" y="70" type="curve" smooth="yes"/>
      <point x="165" y="70"/>
      <point x="139" y="108"/>
      <point x="139" y="148" type="curve" smooth="yes"/>
      <point x="139" y="156" type="line" smooth="yes"/>
      <point x="139" y="206"/>
      <point x="173" y="236"/>
      <point x="234" y="246" type="curve" smooth="yes"/>
      <point x="366" y="268" type="line"/>
      <point x="366" y="253" type="line" smooth="yes"/>
      <point x="366" y="218"/>
      <point x="370" y="185"/>
      <point x="378" y="155" type="curve"/>
    </contour>
    <contour>
      <point x="597" y="462" type="curve" smooth="yes"/>
      <point x="683" y="462"/>
      <point x="724" y="403"/>
      <point x="728" y="303" type="curve"/>
      <point x="467" y="303" type="line"/>
      <point x="470" y="403"/>
      <point x="512" y="462"/>
    </contour>
  </outline>
</glyph>
<glyph name="ccedilla" format="1">
  <advance width="523"/>
  <unicode hex="00E7"/>
  <outline>
    <contour>
      <point x="180" y="-191" type="line"/>
      <point x="199" y="-203"/>
      <point x="236" y="-213"/>
      <point x="277" y="-213" type="curve" smooth="yes"/>
      <point x="345" y="-213"/>
      <point x="386" y="-187"/>
      <point x="386" y="-131" type="curve" smooth="yes"/>
      <point x="386" y="-74"/>
      <point x="337" y="-51"/>
      <point x="284" y="-50" type="curve"/>
      <point x="299" y="-11" type="line"/>
      <point x="426" y="0"/>
      <point x="482" y="83"/>
      <point x="482" y="170" type="curve" smooth="yes"/>
      <point x="482" y="188" type="line"/>
      <point x="386" y="188" type="line"/>
      <point x="386" y="128"/>
      <point x="354" y="76"/>
      <point x="272" y="76" type="curve" smooth="yes"/>
      <point x="182" y="76"/>
      <point x="143" y="145"/>
      <point x="143" y="251" type="curve" smooth="yes"/>
      <point x="143" y="279" type="line" smooth="yes"/>
      <point x="143" y="385"/>
      <point x="182" y="454"/>
      <point x="272" y="454" type="curve" smooth="yes"/>
      <point x="352" y="454"/>
      <point x="386" y="403"/>
      <point x="386" y="332" type="curve"/>
      <point x="482" y="332" type="line"/>
      <point x="482" y="353" type="line" smooth="yes"/>
      <point x="482" y="450"/>
      <point x="418" y="542"/>
      <point x="270" y="542" type="curve" smooth="yes"/>
      <point x="111" y="542"/>
      <point x="42" y="428"/>
      <point x="42" y="279" type="curve" smooth="yes"/>
      <point x="42" y="251" type="line" smooth="yes"/>
      <point x="42" y="111"/>
      <point x="102" y="2"/>
      <point x="241" y="-10" type="curve"/>
      <point x="216" y="-77" type="line"/>
      <point x="233" y="-102" type="line"/>
      <point x="233" y="-102"/>
      <point x="249" y="-99"/>
      <point x="265" y="-99" type="curve" smooth="yes"/>
      <point x="301" y="-99"/>
      <point x="322" y="-106"/>
      <point x="322" y="-126" type="curve" smooth="yes"/>
      <point x="322" y="-147"/>
      <point x="305" y="-155"/>
      <point x="268" y="-155" type="curve" smooth="yes"/>
      <point x="242" y="-155"/>
      <point x="214" y="-148"/>
      <point x="198" y="-139" type="curve"/>
    </contour>
  </outline>
</glyph>
<glyph name="ecircumflex" format="1">
  <advance width="548"/>
  <unicode hex="00EA"/>
  <outline>
    <contour>
      <point x="506" y="227" type="line"/>
      <point x="506" y="277" type="line" smooth="yes"/>
      <point x="506" y="426"/>
      <point x="435" y="542"/>
      <point x="276" y="542" type="curve" smooth="yes"/>
      <point x="116" y="542"/>
      <point x="42" y="426"/>
      <point x="42" y="277" type="curve" smooth="yes"/>
      <point x="42" y="253" type="line" smooth="yes"/>
      <point x="42" y="104"/>
      <point x="115" y="-12"/>
      <point x="281" y="-12" type="curve" smooth="yes"/>
      <point x="432" y="-12"/>
      <point x="506" y="77"/>
      <point x="506" y="166" type="curve" smooth="yes"/>
      <point x="506" y="170" type="line"/>
      <point x="410" y="170" type="line"/>
      <point x="410" y="122"/>
      <point x="370" y="68"/>
      <point x="282" y="68" type="curve" smooth="yes"/>
      <point x="191" y="68"/>
      <point x="147" y="124"/>
      <point x="143" y="227" type="curve"/>
    </contour>
    <contour>
      <point x="274" y="462" type="curve" smooth="yes"/>
      <point x="360" y="462"/>
      <point x="401" y="403"/>
      <point x="405" y="303" type="curve"/>
      <point x="143" y="303" type="line"/>
      <point x="146" y="403"/>
      <point x="188" y="462"/>
    </contour>
    <contour>
      <point x="191" y="607" type="line"/>
      <point x="276" y="709" type="line"/>
      <point x="361" y="607" type="line"/>
      <point x="455" y="607" type="line"/>
      <point x="323" y="780" type="line"/>
      <point x="229" y="780" type="line"/>
      <point x="97" y="607" type="line"/>
    </contour>
  </outline>
</glyph>
<glyph name="igrave" format="1">
  <advance width="234"/>
  <unicode hex="00EC"/>
  <outline>
    <contour>
      <point x="66" y="0" type="line"/>
      <point x="168" y="0" type="line"/>
      <point x="168" y="530" type="line"/>
      <point x="66" y="530" type="line"/>
    </contour>
    <contour>
      <point x="-33" y="780" type="line"/>
      <point x="66" y="607" type="line"/>
      <point x="168" y="607" type="line"/>
      <point x="77" y="780" type="line"/>
    </contour>
  </outline>
</glyph>
<glyph name="iacute" format="1">
  <advance width="234"/>
  <unicode hex="00ED"/>
  <outline>
    <contour>
      <point x="66" y="0" type="line"/>
      <point x="168" y="0" type="line"/>
      <point x="168" y="530" type="line"/>
      <point x="66" y="530" type="line"/>
    </contour>
    <contour>
      <point x="157" y="780" type="line"/>
      <point x="66" y="607" type="line"/>
      <point x="168" y="607" type="line"/>
      <point x="267" y="780" type="line"/>
    </contour>
  </outline>
</glyph>
<glyph name="icircumflex" format="1">
  <advance width="234"/>
  <unicode hex="00EE"/>
  <outline>
    <contour>
      <point x="66" y="0" type="line"/>
      <point x="168" y="0" type="line"/>
      <point x="168" y="530" type="line"/>
      <point x="66" y="530" type="line"/>
    </contour>
    <contour>
      <point x="32" y="607" type="line"/>
      <point x="117" y="709" type="line"/>
      <point x="202" y="607" type="line"/>
      <point x="296" y="607" type="line"/>
      <point x="164" y="780" type="line"/>
      <point x="70" y="780" type="line"/>
      <point x="-62" y="607" type="line"/>
    </contour>
  </outline>
</glyph>
<glyph name="idieresis" format="1">
  <advance width="234"/>
  <unicode hex="00EF"/>
  <outline>
    <contour>
      <point x="66" y="0" type="line"/>
      <point x="168" y="0" type="line"/>
      <point x="168" y="530" type="line"/>
      <point x="66" y="530" type="line"/>
    </contour>
    <contour>
      <point x="83" y="754" type="line"/>
      <point x="-33" y="754" type="line"/>
      <point x="-33" y="639" type="line"/>
      <point x="83" y="639" type="line"/>
    </contour>
    <contour>
      <point x="267" y="754" type="line"/>
      <point x="151" y="754" type="line"/>
      <point x="151" y="639" type="line"/>
      <point x="267" y="639" type="line"/>
    </contour>
  </outline>
</glyph>
<glyph name="eth" format="1">
  <advance width="548"/>
  <unicode hex="00F0"/>
  <outline>
    <contour>
      <point x="42" y="721" type="line"/>
      <point x="94" y="715"/>
      <point x="144" y="705"/>
      <point x="189" y="687" type="curve"/>
      <point x="77" y="623" type="line"/>
      <point x="77" y="557" type="line"/>
      <point x="250" y="655" type="line"/>
      <point x="273" y="640"/>
      <point x="295" y="622"/>
      <point x="315" y="601" type="curve" smooth="yes"/>
      <point x="338" y="576"/>
      <point x="357" y="546"/>
      <point x="371" y="513" type="curve"/>
      <point x="341" y="532"/>
      <point x="305" y="542"/>
      <point x="262" y="542" type="curve" smooth="yes"/>
      <point x="113" y="542"/>
      <point x="42" y="428"/>
      <point x="42" y="279" type="curve" smooth="yes"/>
      <point x="42" y="251" type="line" smooth="yes"/>
      <point x="42" y="102"/>
      <point x="113" y="-12"/>
      <point x="274" y="-12" type="curve" smooth="yes"/>
      <point x="435" y="-12"/>
      <point x="506" y="102"/>
      <point x="506" y="251" type="curve" smooth="yes"/>
      <point x="506" y="279" type="line" smooth="yes"/>
      <point x="506" y="397"/>
      <point x="484" y="555"/>
      <point x="394" y="659" type="curve" smooth="yes"/>
      <point x="378" y="677"/>
      <point x="361" y="693"/>
      <point x="344" y="708" type="curve"/>
      <point x="409" y="745" type="line"/>
      <point x="409" y="812" type="line"/>
      <point x="290" y="745" type="line"/>
      <point x="217" y="787"/>
      <point x="132" y="805"/>
      <point x="42" y="812" type="curve"/>
    </contour>
    <contour>
      <point x="274" y="76" type="curve" smooth="yes"/>
      <point x="184" y="76"/>
      <point x="143" y="145"/>
      <point x="143" y="251" type="curve" smooth="yes"/>
      <point x="143" y="279" type="line" smooth="yes"/>
      <point x="143" y="385"/>
      <point x="184" y="454"/>
      <point x="274" y="454" type="curve" smooth="yes"/>
      <point x="364" y="454"/>
      <point x="405" y="385"/>
      <point x="405" y="279" type="curve" smooth="yes"/>
      <point x="405" y="251" type="line" smooth="yes"/>
      <point x="405" y="145"/>
      <point x="364" y="76"/>
    </contour>
  </outline>
</glyph>
<glyph name="ntilde" format="1">
  <advance width="545"/>
  <unicode hex="00F1"/>
  <outline>
    <contour>
      <point x="489" y="0" type="line"/>
      <point x="489" y="367" type="line" smooth="yes"/>
      <point x="489" y="465"/>
      <point x="438" y="542"/>
      <point x="327" y="542" type="curve" smooth="yes"/>
      <point x="240" y="542"/>
      <point x="184" y="505"/>
      <point x="152" y="457" type="curve"/>
      <point x="141" y="530" type="line"/>
      <point x="55" y="530" type="line"/>
      <point x="62" y="380" type="line"/>
      <point x="62" y="0" type="line"/>
      <point x="162" y="0" type="line"/>
      <point x="162" y="383" type="line"/>
      <point x="180" y="412"/>
      <point x="218" y="454"/>
      <point x="290" y="454" type="curve" smooth="yes"/>
      <point x="355" y="454"/>
      <point x="390" y="417"/>
      <point x="390" y="351" type="curve" smooth="yes"/>
      <point x="390" y="0" type="line"/>
    </contour>
    <contour>
      <point x="375" y="755" type="line"/>
      <point x="375" y="725"/>
      <point x="360" y="714"/>
      <point x="341" y="714" type="curve" smooth="yes"/>
      <point x="301" y="714"/>
      <point x="259" y="768"/>
      <point x="195" y="768" type="curve" smooth="yes"/>
      <point x="143" y="768"/>
      <point x="104" y="731"/>
      <point x="104" y="645" type="curve"/>
      <point x="177" y="645" type="line"/>
      <point x="177" y="675"/>
      <point x="192" y="686"/>
      <point x="211" y="686" type="curve" smooth="yes"/>
      <point x="251" y="686"/>
      <point x="293" y="632"/>
      <point x="357" y="632" type="curve" smooth="yes"/>
      <point x="409" y="632"/>
      <point x="448" y="669"/>
      <point x="448" y="755" type="curve"/>
    </contour>
  </outline>
</glyph>
<glyph name="ograve" format="1">
  <advance width="548"/>
  <unicode hex="00F2"/>
  <outline>
    <contour>
      <point x="274" y="-12" type="curve" smooth="yes"/>
      <point x="435" y="-12"/>
      <point x="506" y="102"/>
      <point x="506" y="251" type="curve" smooth="yes"/>
      <point x="506" y="279" type="line" smooth="yes"/>
      <point x="506" y="428"/>
      <point x="435" y="542"/>
      <point x="274" y="542" type="curve" smooth="yes"/>
      <point x="113" y="542"/>
      <point x="42" y="428"/>
      <point x="42" y="279" type="curve" smooth="yes"/>
      <point x="42" y="251" type="line" smooth="yes"/>
      <point x="42" y="102"/>
      <point x="113" y="-12"/>
    </contour>
    <contour>
      <point x="274" y="76" type="curve" smooth="yes"/>
      <point x="184" y="76"/>
      <point x="143" y="145"/>
      <point x="143" y="251" type="curve" smooth="yes"/>
      <point x="143" y="279" type="line" smooth="yes"/>
      <point x="143" y="385"/>
      <point x="184" y="454"/>
      <point x="274" y="454" type="curve" smooth="yes"/>
      <point x="364" y="454"/>
      <point x="405" y="385"/>
      <point x="405" y="279" type="curve" smooth="yes"/>
      <point x="405" y="251" type="line" smooth="yes"/>
      <point x="405" y="145"/>
      <point x="364" y="76"/>
    </contour>
    <contour>
      <point x="124" y="780" type="line"/>
      <point x="223" y="607" type="line"/>
      <point x="325" y="607" type="line"/>
      <point x="234" y="780" type="line"/>
    </contour>
  </outline>
</glyph>
<glyph name="otilde" format="1">
  <advance width="548"/>
  <unicode hex="00F5"/>
  <outline>
    <contour>
      <point x="274" y="-12" type="curve" smooth="yes"/>
      <point x="435" y="-12"/>
      <point x="506" y="102"/>
      <point x="506" y="251" type="curve" smooth="yes"/>
      <point x="506" y="279" type="line" smooth="yes"/>
      <point x="506" y="428"/>
      <point x="435" y="542"/>
      <point x="274" y="542" type="curve" smooth="yes"/>
      <point x="113" y="542"/>
      <point x="42" y="428"/>
      <point x="42" y="279" type="curve" smooth="yes"/>
      <point x="42" y="251" type="line" smooth="yes"/>
      <point x="42" y="102"/>
      <point x="113" y="-12"/>
    </contour>
    <contour>
      <point x="274" y="76" type="curve" smooth="yes"/>
      <point x="184" y="76"/>
      <point x="143" y="145"/>
      <point x="143" y="251" type="curve" smooth="yes"/>
      <point x="143" y="279" type="line" smooth="yes"/>
      <point x="143" y="385"/>
      <point x="184" y="454"/>
      <point x="274" y="454" type="curve" smooth="yes"/>
      <point x="364" y="454"/>
      <point x="405" y="385"/>
      <point x="405" y="279" type="curve" smooth="yes"/>
      <point x="405" y="251" type="line" smooth="yes"/>
      <point x="405" y="145"/>
      <point x="364" y="76"/>
    </contour>
    <contour>
      <point x="373" y="755" type="line"/>
      <point x="373" y="725"/>
      <point x="358" y="714"/>
      <point x="339" y="714" type="curve" smooth="yes"/>
      <point x="299" y="714"/>
      <point x="257" y="768"/>
      <point x="193" y="768" type="curve" smooth="yes"/>
      <point x="141" y="768"/>
      <point x="102" y="731"/>
      <point x="102" y="645" type="curve"/>
      <point x="175" y="645" type="line"/>
      <point x="175" y="675"/>
      <point x="190" y="686"/>
      <point x="209" y="686" type="curve" smooth="yes"/>
      <point x="249" y="686"/>
      <point x="291" y="632"/>
      <point x="355" y="632" type="curve" smooth="yes"/>
      <point x="407" y="632"/>
      <point x="446" y="669"/>
      <point x="446" y="755" type="curve"/>
    </contour>
  </outline>
</glyph>
<glyph name="odieresis" format="1">
  <advance width="548"/>
  <unicode hex="00F6"/>
  <outline>
    <contour>
      <point x="274" y="-12" type="curve" smooth="yes"/>
      <point x="435" y="-12"/>
      <point x="506" y="102"/>
      <point x="506" y="251" type="curve" smooth="yes"/>
      <point x="506" y="279" type="line" smooth="yes"/>
      <point x="506" y="428"/>
      <point x="435" y="542"/>
      <point x="274" y="542" type="curve" smooth="yes"/>
      <point x="113" y="542"/>
      <point x="42" y="428"/>
      <point x="42" y="279" type="curve" smooth="yes"/>
      <point x="42" y="251" type="line" smooth="yes"/>
      <point x="42" y="102"/>
      <point x="113" y="-12"/>
    </contour>
    <contour>
      <point x="274" y="76" type="curve" smooth="yes"/>
      <point x="184" y="76"/>
      <point x="143" y="145"/>
      <point x="143" y="251" type="curve" smooth="yes"/>
      <point x="143" y="279" type="line" smooth="yes"/>
      <point x="143" y="385"/>
      <point x="184" y="454"/>
      <point x="274" y="454" type="curve" smooth="yes"/>
      <point x="364" y="454"/>
      <point x="405" y="385"/>
      <point x="405" y="279" type="curve" smooth="yes"/>
      <point x="405" y="251" type="line" smooth="yes"/>
      <point x="405" y="145"/>
      <point x="364" y="76"/>
    </contour>
    <contour>
      <point x="240" y="754" type="line"/>
      <point x="124" y="754" type="line"/>
      <point x="124" y="639" type="line"/>
      <point x="240" y="639" type="line"/>
    </contour>
    <contour>
      <point x="424" y="754" type="line"/>
      <point x="308" y="754" type="line"/>
      <point x="308" y="639" type="line"/>
      <point x="424" y="639" type="line"/>
    </contour>
  </outline>
</glyph>
<glyph name="divide" format="1">
  <advance width="600"/>
  <unicode hex="00F7"/>
  <outline>
    <contour>
      <point x="46" y="344" type="line"/>
      <point x="554" y="344" type="line"/>
      <point x="554" y="436" type="line"/>
      <point x="46" y="436" type="line"/>
    </contour>
    <contour>
      <point x="358" y="234" type="line"/>
      <point x="242" y="234" type="line"/>
      <point x="242" y="119" type="line"/>
      <point x="358" y="119" type="line"/>
    </contour>
    <contour>
      <point x="358" y="661" type="line"/>
      <point x="242" y="661" type="line"/>
      <point x="242" y="546" type="line"/>
      <point x="358" y="546" type="line"/>
    </contour>
  </outline>
</glyph>
<glyph name="oslash" format="1">
  <advance width="548"/>
  <unicode hex="00F8"/>
  <outline>
    <contour>
      <point x="506" y="530" type="line"/>
      <point x="443" y="530" type="line"/>
      <point x="418" y="497" type="line"/>
      <point x="382" y="525"/>
      <point x="334" y="542"/>
      <point x="274" y="542" type="curve" smooth="yes"/>
      <point x="113" y="542"/>
      <point x="42" y="428"/>
      <point x="42" y="279" type="curve" smooth="yes"/>
      <point x="42" y="251" type="line" smooth="yes"/>
      <point x="42" y="179"/>
      <point x="58" y="115"/>
      <point x="94" y="68" type="curve"/>
      <point x="42" y="0" type="line"/>
      <point x="105" y="0" type="line"/>
      <point x="129" y="32" type="line"/>
      <point x="165" y="4"/>
      <point x="213" y="-12"/>
      <point x="274" y="-12" type="curve" smooth="yes"/>
      <point x="435" y="-12"/>
      <point x="506" y="102"/>
      <point x="506" y="251" type="curve" smooth="yes"/>
      <point x="506" y="279" type="line" smooth="yes"/>
      <point x="506" y="351"/>
      <point x="489" y="414"/>
      <point x="454" y="461" type="curve"/>
    </contour>
    <contour>
      <point x="405" y="279" type="curve" smooth="yes"/>
      <point x="405" y="251" type="line" smooth="yes"/>
      <point x="405" y="145"/>
      <point x="364" y="76"/>
      <point x="274" y="76" type="curve" smooth="yes"/>
      <point x="237" y="76"/>
      <point x="208" y="88"/>
      <point x="187" y="109" type="curve"/>
      <point x="389" y="376" type="line"/>
      <point x="400" y="349"/>
      <point x="405" y="316"/>
    </contour>
    <contour>
      <point x="143" y="251" type="curve" smooth="yes"/>
      <point x="143" y="279" type="line" smooth="yes"/>
      <point x="143" y="385"/>
      <point x="184" y="454"/>
      <point x="274" y="454" type="curve" smooth="yes"/>
      <point x="311" y="454"/>
      <point x="339" y="442"/>
      <point x="360" y="421" type="curve"/>
      <point x="158" y="154" type="line"/>
      <point x="148" y="180"/>
      <point x="143" y="213"/>
    </contour>
  </outline>
</glyph>
<glyph name="ucircumflex" format="1">
  <advance width="545"/>
  <unicode hex="00FB"/>
  <outline>
    <contour>
      <point x="56" y="530" type="line"/>
      <point x="56" y="163" type="line" smooth="yes"/>
      <point x="56" y="65"/>
      <point x="108" y="-12"/>
      <point x="218" y="-12" type="curve" smooth="yes"/>
      <point x="305" y="-12"/>
      <point x="361" y="25"/>
      <point x="393" y="73" type="curve"/>
      <point x="404" y="0" type="line"/>
      <point x="491" y="0" type="line"/>
      <point x="484" y="150" type="line"/>
      <point x="484" y="530" type="line"/>
      <point x="384" y="530" type="line"/>
      <point x="384" y="147" type="line"/>
      <point x="365" y="118"/>
      <point x="327" y="76"/>
      <point x="255" y="76" type="curve" smooth="yes"/>
      <point x="191" y="76"/>
      <point x="156" y="113"/>
      <point x="156" y="179" type="curve" smooth="yes"/>
      <point x="156" y="530" type="line"/>
    </contour>
    <contour>
      <point x="185" y="607" type="line"/>
      <point x="270" y="709" type="line"/>
      <point x="355" y="607" type="line"/>
      <point x="449" y="607" type="line"/>
      <point x="317" y="780" type="line"/>
      <point x="223" y="780" type="line"/>
      <point x="91" y="607" type="line"/>
    </contour>
  </outline>
</glyph>
<glyph name="yacute" format="1">
  <advance width="507"/>
  <unicode hex="00FD"/>
  <outline>
    <contour>
      <point x="259" y="130" type="line"/>
      <point x="125" y="530" type="line"/>
      <point x="17" y="530" type="line"/>
      <point x="205" y="23" type="line"/>
      <point x="122" y="-200" type="line"/>
      <point x="239" y="-200" type="line"/>
      <point x="312" y="23" type="line"/>
      <point x="501" y="530" type="line"/>
      <point x="393" y="530" type="line"/>
    </contour>
    <contour>
      <point x="299" y="780" type="line"/>
      <point x="208" y="607" type="line"/>
      <point x="310" y="607" type="line"/>
      <point x="409" y="780" type="line"/>
    </contour>
  </outline>
</glyph>
<glyph name="ydieresis" format="1">
  <advance width="507"/>
  <unicode hex="00FF"/>
  <outline>
    <contour>
      <point x="259" y="130" type="line"/>
      <point x="125" y="530" type="line"/>
      <point x="17" y="530" type="line"/>
      <point x="205" y="23" type="line"/>
      <point x="122" y="-200" type="line"/>
      <point x="239" y="-200" type="line"/>
      <point x="312" y="23" type="line"/>
      <point x="501" y="530" type="line"/>
      <point x="393" y="530" type="line"/>
    </contour>
    <contour>
      <point x="409" y="754" type="line"/>
      <point x="293" y="754" type="line"/>
      <point x="293" y="639" type="line"/>
      <point x="409" y="639" type="line"/>
    </contour>
    <contour>
      <point x="225" y="754" type="line"/>
      <point x="109" y="754" type="line"/>
      <point x="109" y="639" type="line"/>
      <point x="225" y="639" type="line"/>
    </contour>
  </outline>
</glyph>
<glyph name="Amacron" format="1">
  <advance width="621"/>
  <unicode hex="0100"/>
  <outline>
    <contour>
      <point x="238" y="786" type="line"/>
      <point x="23" y="0" type="line"/>
      <point x="136" y="0" type="line"/>
      <point x="185" y="188" type="line"/>
      <point x="437" y="188" type="line"/>
      <point x="486" y="0" type="line"/>
      <point x="598" y="0" type="line"/>
      <point x="383" y="786" type="line"/>
    </contour>
    <contour>
      <point x="311" y="669" type="line"/>
      <point x="413" y="280" type="line"/>
      <point x="209" y="280" type="line"/>
    </contour>
    <contour>
      <point x="185" y="860" type="line"/>
      <point x="437" y="860" type="line"/>
      <point x="437" y="930" type="line"/>
      <point x="185" y="930" type="line"/>
    </contour>
  </outline>
</glyph>
<glyph name="Abreve" format="1">
  <advance width="621"/>
  <unicode hex="0102"/>
  <outline>
    <contour>
      <point x="238" y="786" type="line"/>
      <point x="23" y="0" type="line"/>
      <point x="136" y="0" type="line"/>
      <point x="185" y="188" type="line"/>
      <point x="437" y="188" type="line"/>
      <point x="486" y="0" type="line"/>
      <point x="598" y="0" type="line"/>
      <point x="383" y="786" type="line"/>
    </contour>
    <contour>
      <point x="311" y="669" type="line"/>
      <point x="413" y="280" type="line"/>
      <point x="209" y="280" type="line"/>
    </contour>
    <contour>
      <point x="311" y="827" type="curve" smooth="yes"/>
      <point x="431" y="827"/>
      <point x="470" y="881"/>
      <point x="470" y="950" type="curve"/>
      <point x="395" y="950" type="line"/>
      <point x="395" y="913"/>
      <point x="370" y="890"/>
      <point x="311" y="890" type="curve" smooth="yes"/>
      <point x="252" y="890"/>
      <point x="227" y="913"/>
      <point x="227" y="950" type="curve"/>
      <point x="152" y="950" type="line"/>
      <point x="152" y="881"/>
      <point x="191" y="827"/>
    </contour>
  </outline>
</glyph>
<glyph name="Aogonek" format="1">
  <advance width="621"/>
  <unicode hex="0104"/>
  <outline>
    <contour>
      <point x="523" y="-91" type="curve" smooth="yes"/>
      <point x="523" y="-47"/>
      <point x="556" y="-18"/>
      <point x="598" y="0" type="curve"/>
      <point x="383" y="786" type="line"/>
      <point x="238" y="786" type="line"/>
      <point x="23" y="0" type="line"/>
      <point x="136" y="0" type="line"/>
      <point x="185" y="188" type="line"/>
      <point x="437" y="188" type="line"/>
      <point x="487" y="-5" type="line"/>
      <point x="460" y="-32"/>
      <point x="442" y="-67"/>
      <point x="442" y="-111" type="curve" smooth="yes"/>
      <point x="442" y="-181"/>
      <point x="490" y="-213"/>
      <point x="561" y="-213" type="curve" smooth="yes"/>
      <point x="596" y="-213"/>
      <point x="633" y="-204"/>
      <point x="654" y="-191" type="curve"/>
      <point x="629" y="-123" type="line"/>
      <point x="617" y="-130"/>
      <point x="597" y="-136"/>
      <point x="574" y="-136" type="curve" smooth="yes"/>
      <point x="541" y="-136"/>
      <point x="523" y="-117"/>
    </contour>
    <contour>
      <point x="311" y="669" type="line"/>
      <point x="413" y="280" type="line"/>
      <point x="209" y="280" type="line"/>
    </contour>
  </outline>
</glyph>
<glyph name="aogonek" format="1">
  <advance width="525"/>
  <unicode hex="0105"/>
  <outline>
    <contour>
      <point x="395" y="-91" type="curve" smooth="yes"/>
      <point x="395" y="-47"/>
      <point x="428" y="-18"/>
      <point x="470" y="0" type="curve"/>
      <point x="473" y="0" type="line"/>
      <point x="466" y="150" type="line"/>
      <point x="466" y="343" type="line" smooth="yes"/>
      <point x="466" y="463"/>
      <point x="418" y="542"/>
      <point x="263" y="542" type="curve" smooth="yes"/>
      <point x="100" y="542"/>
      <point x="60" y="448"/>
      <point x="60" y="364" type="curve" smooth="yes"/>
      <point x="60" y="355" type="line"/>
      <point x="155" y="355" type="line"/>
      <point x="155" y="412"/>
      <point x="175" y="462"/>
      <point x="260" y="462" type="curve" smooth="yes"/>
      <point x="341" y="462"/>
      <point x="366" y="422"/>
      <point x="366" y="343" type="curve" smooth="yes"/>
      <point x="366" y="335" type="line"/>
      <point x="219" y="312" type="line" smooth="yes"/>
      <point x="124" y="298"/>
      <point x="40" y="263"/>
      <point x="40" y="148" type="curve" smooth="yes"/>
      <point x="40" y="138" type="line" smooth="yes"/>
      <point x="40" y="53"/>
      <point x="91" y="-12"/>
      <point x="196" y="-12" type="curve" smooth="yes"/>
      <point x="282" y="-12"/>
      <point x="340" y="23"/>
      <point x="376" y="68" type="curve"/>
      <point x="383" y="16" type="line"/>
      <point x="343" y="-13"/>
      <point x="314" y="-55"/>
      <point x="314" y="-111" type="curve" smooth="yes"/>
      <point x="314" y="-181"/>
      <point x="362" y="-213"/>
      <point x="433" y="-213" type="curve" smooth="yes"/>
      <point x="468" y="-213"/>
      <point x="505" y="-204"/>
      <point x="526" y="-191" type="curve"/>
      <point x="501" y="-123" type="line"/>
      <point x="489" y="-130"/>
      <point x="469" y="-136"/>
      <point x="446" y="-136" type="curve" smooth="yes"/>
      <point x="413" y="-136"/>
      <point x="395" y="-117"/>
    </contour>
    <contour>
      <point x="228" y="72" type="curve" smooth="yes"/>
      <point x="165" y="72"/>
      <point x="139" y="110"/>
      <point x="139" y="150" type="curve" smooth="yes"/>
      <point x="139" y="158" type="line" smooth="yes"/>
      <point x="139" y="208"/>
      <point x="172" y="238"/>
      <point x="234" y="248" type="curve" smooth="yes"/>
      <point x="366" y="270" type="line"/>
      <point x="366" y="141" type="line"/>
      <point x="348" y="114"/>
      <point x="307" y="72"/>
    </contour>
  </outline>
</glyph>
<glyph name="cacute" format="1">
  <advance width="523"/>
  <unicode hex="0107"/>
  <outline>
    <contour>
      <point x="143" y="251" type="curve" smooth="yes"/>
      <point x="143" y="279" type="line" smooth="yes"/>
      <point x="143" y="385"/>
      <point x="182" y="454"/>
      <point x="272" y="454" type="curve" smooth="yes"/>
      <point x="352" y="454"/>
      <point x="386" y="403"/>
      <point x="386" y="332" type="curve"/>
      <point x="482" y="332" type="line"/>
      <point x="482" y="353" type="line" smooth="yes"/>
      <point x="482" y="450"/>
      <point x="418" y="542"/>
      <point x="270" y="542" type="curve" smooth="yes"/>
      <point x="111" y="542"/>
      <point x="42" y="428"/>
      <point x="42" y="279" type="curve" smooth="yes"/>
      <point x="42" y="251" type="line" smooth="yes"/>
      <point x="42" y="102"/>
      <point x="111" y="-12"/>
      <point x="270" y="-12" type="curve" smooth="yes"/>
      <point x="418" y="-12"/>
      <point x="482" y="77"/>
      <point x="482" y="170" type="curve" smooth="yes"/>
      <point x="482" y="188" type="line"/>
      <point x="386" y="188" type="line"/>
      <point x="386" y="128"/>
      <point x="354" y="76"/>
      <point x="272" y="76" type="curve" smooth="yes"/>
      <point x="182" y="76"/>
      <point x="143" y="145"/>
    </contour>
    <contour>
      <point x="310" y="780" type="line"/>
      <point x="219" y="607" type="line"/>
      <point x="321" y="607" type="line"/>
      <point x="420" y="780" type="line"/>
    </contour>
  </outline>
</glyph>
<glyph name="ccircumflex" format="1">
  <advance width="523"/>
  <unicode hex="0109"/>
  <outline>
    <contour>
      <point x="143" y="251" type="curve" smooth="yes"/>
      <point x="143" y="279" type="line" smooth="yes"/>
      <point x="143" y="385"/>
      <point x="182" y="454"/>
      <point x="272" y="454" type="curve" smooth="yes"/>
      <point x="352" y="454"/>
      <point x="386" y="403"/>
      <point x="386" y="332" type="curve"/>
      <point x="482" y="332" type="line"/>
      <point x="482" y="353" type="line" smooth="yes"/>
      <point x="482" y="450"/>
      <point x="418" y="542"/>
      <point x="270" y="542" type="curve" smooth="yes"/>
      <point x="111" y="542"/>
      <point x="42" y="428"/>
      <point x="42" y="279" type="curve" smooth="yes"/>
      <point x="42" y="251" type="line" smooth="yes"/>
      <point x="42" y="102"/>
      <point x="111" y="-12"/>
      <point x="270" y="-12" type="curve" smooth="yes"/>
      <point x="418" y="-12"/>
      <point x="482" y="77"/>
      <point x="482" y="170" type="curve" smooth="yes"/>
      <point x="482" y="188" type="line"/>
      <point x="386" y="188" type="line"/>
      <point x="386" y="128"/>
      <point x="354" y="76"/>
      <point x="272" y="76" type="curve" smooth="yes"/>
      <point x="182" y="76"/>
      <point x="143" y="145"/>
    </contour>
    <contour>
      <point x="185" y="607" type="line"/>
      <point x="270" y="709" type="line"/>
      <point x="355" y="607" type="line"/>
      <point x="449" y="607" type="line"/>
      <point x="317" y="780" type="line"/>
      <point x="223" y="780" type="line"/>
      <point x="91" y="607" type="line"/>
    </contour>
  </outline>
</glyph>
<glyph name="Dcaron" format="1">
  <advance width="647"/>
  <unicode hex="010E"/>
  <outline>
    <contour>
      <point x="597" y="370" type="curve" smooth="yes"/>
      <point x="597" y="410" type="line" smooth="yes"/>
      <point x="597" y="680"/>
      <point x="491" y="780"/>
      <point x="286" y="780" type="curve" smooth="yes"/>
      <point x="67" y="780" type="line"/>
      <point x="67" y="0" type="line"/>
      <point x="286" y="0" type="line" smooth="yes"/>
      <point x="491" y="0"/>
      <point x="597" y="100"/>
    </contour>
    <contour>
      <point x="171" y="92" type="line"/>
      <point x="171" y="688" type="line"/>
      <point x="279" y="688" type="line" smooth="yes"/>
      <point x="423" y="688"/>
      <point x="490" y="608"/>
      <point x="490" y="410" type="curve" smooth="yes"/>
      <point x="490" y="370" type="line" smooth="yes"/>
      <point x="490" y="172"/>
      <point x="423" y="92"/>
      <point x="279" y="92" type="curve" smooth="yes"/>
    </contour>
    <contour>
      <point x="138" y="950" type="line"/>
      <point x="251" y="840" type="line"/>
      <point x="349" y="840" type="line"/>
      <point x="462" y="950" type="line"/>
      <point x="366" y="950" type="line"/>
      <point x="300" y="892" type="line"/>
      <point x="234" y="950" type="line"/>
    </contour>
  </outline>
</glyph>
<glyph name="dcroat" format="1">
  <advance width="554"/>
  <unicode hex="0111"/>
  <outline>
    <contour>
      <point x="576" y="703" type="line"/>
      <point x="493" y="703" type="line"/>
      <point x="493" y="800" type="line"/>
      <point x="392" y="800" type="line"/>
      <point x="392" y="703" type="line"/>
      <point x="266" y="703" type="line"/>
      <point x="266" y="627" type="line"/>
      <point x="392" y="627" type="line"/>
      <point x="392" y="475" type="line"/>
      <point x="362" y="514"/>
      <point x="316" y="542"/>
      <point x="247" y="542" type="curve" smooth="yes"/>
      <point x="102" y="542"/>
      <point x="46" y="428"/>
      <point x="46" y="279" type="curve" smooth="yes"/>
      <point x="46" y="251" type="line" smooth="yes"/>
      <point x="46" y="102"/>
      <point x="102" y="-12"/>
      <point x="247" y="-12" type="curve" smooth="yes"/>
      <point x="325" y="-12"/>
      <point x="373" y="23"/>
      <point x="402" y="69" type="curve"/>
      <point x="413" y="0" type="line"/>
      <point x="500" y="0" type="line"/>
      <point x="493" y="150" type="line"/>
      <point x="493" y="627" type="line"/>
      <point x="576" y="627" type="line"/>
    </contour>
    <contour>
      <point x="392" y="383" type="curve"/>
      <point x="392" y="147" type="line"/>
      <point x="374" y="118"/>
      <point x="337" y="76"/>
      <point x="273" y="76" type="curve" smooth="yes"/>
      <point x="186" y="76"/>
      <point x="147" y="143"/>
      <point x="147" y="251" type="curve" smooth="yes"/>
      <point x="147" y="279" type="line" smooth="yes"/>
      <point x="147" y="387"/>
      <point x="186" y="454"/>
      <point x="273" y="454" type="curve" smooth="yes"/>
      <point x="337" y="454"/>
      <point x="374" y="412"/>
    </contour>
  </outline>
</glyph>
<glyph name="Emacron" format="1">
  <advance width="557"/>
  <unicode hex="0112"/>
  <outline>
    <contour>
      <point x="67" y="780" type="line"/>
      <point x="67" y="0" type="line"/>
      <point x="517" y="0" type="line"/>
      <point x="517" y="92" type="line"/>
      <point x="171" y="92" type="line"/>
      <point x="171" y="352" type="line"/>
      <point x="467" y="352" type="line"/>
      <point x="467" y="444" type="line"/>
      <point x="171" y="444" type="line"/>
      <point x="171" y="688" type="line"/>
      <point x="517" y="688" type="line"/>
      <point x="517" y="780" type="line"/>
    </contour>
    <contour>
      <point x="172" y="860" type="line"/>
      <point x="424" y="860" type="line"/>
      <point x="424" y="930" type="line"/>
      <point x="172" y="930" type="line"/>
    </contour>
  </outline>
</glyph>
<glyph name="Ebreve" format="1">
  <advance width="557"/>
  <unicode hex="0114"/>
  <outline>
    <contour>
      <point x="298" y="827" type="curve" smooth="yes"/>
      <point x="418" y="827"/>
      <point x="457" y="881"/>
      <point x="457" y="950" type="curve"/>
      <point x="382" y="950" type="line"/>
      <point x="382" y="913"/>
      <point x="357" y="890"/>
      <point x="298" y="890" type="curve" smooth="yes"/>
      <point x="239" y="890"/>
      <point x="214" y="913"/>
      <point x="214" y="950" type="curve"/>
      <point x="139" y="950" type="line"/>
      <point x="139" y="881"/>
      <point x="178" y="827"/>
    </contour>
    <contour>
      <point x="67" y="780" type="line"/>
      <point x="67" y="0" type="line"/>
      <point x="517" y="0" type="line"/>
      <point x="517" y="92" type="line"/>
      <point x="171" y="92" type="line"/>
      <point x="171" y="352" type="line"/>
      <point x="467" y="352" type="line"/>
      <point x="467" y="444" type="line"/>
      <point x="171" y="444" type="line"/>
      <point x="171" y="688" type="line"/>
      <point x="517" y="688" type="line"/>
      <point x="517" y="780" type="line"/>
    </contour>
  </outline>
</glyph>
<glyph name="Edotaccent" format="1">
  <advance width="557"/>
  <unicode hex="0116"/>
  <outline>
    <contour>
      <point x="67" y="780" type="line"/>
      <point x="67" y="0" type="line"/>
      <point x="517" y="0" type="line"/>
      <point x="517" y="92" type="line"/>
      <point x="171" y="92" type="line"/>
      <point x="171" y="352" type="line"/>
      <point x="467" y="352" type="line"/>
      <point x="467" y="444" type="line"/>
      <point x="171" y="444" type="line"/>
      <point x="171" y="688" type="line"/>
      <point x="517" y="688" type="line"/>
      <point x="517" y="780" type="line"/>
    </contour>
    <contour>
      <point x="347" y="936" type="line"/>
      <point x="249" y="936" type="line"/>
      <point x="249" y="854" type="line"/>
      <point x="347" y="854" type="line"/>
    </contour>
  </outline>
</glyph>
<glyph name="Eogonek" format="1">
  <advance width="557"/>
  <unicode hex="0118"/>
  <outline>
    <contour>
      <point x="67" y="780" type="line"/>
      <point x="67" y="0" type="line"/>
      <point x="411" y="0" type="line"/>
      <point x="381" y="-28"/>
      <point x="361" y="-65"/>
      <point x="361" y="-111" type="curve" smooth="yes"/>
      <point x="361" y="-181"/>
      <point x="409" y="-213"/>
      <point x="480" y="-213" type="curve" smooth="yes"/>
      <point x="515" y="-213"/>
      <point x="552" y="-204"/>
      <point x="573" y="-191" type="curve"/>
      <point x="548" y="-123" type="line"/>
      <point x="536" y="-130"/>
      <point x="516" y="-136"/>
      <point x="493" y="-136" type="curve" smooth="yes"/>
      <point x="460" y="-136"/>
      <point x="442" y="-117"/>
      <point x="442" y="-91" type="curve" smooth="yes"/>
      <point x="442" y="-47"/>
      <point x="475" y="-18"/>
      <point x="517" y="0" type="curve"/>
      <point x="517" y="92" type="line"/>
      <point x="171" y="92" type="line"/>
      <point x="171" y="352" type="line"/>
      <point x="467" y="352" type="line"/>
      <point x="467" y="444" type="line"/>
      <point x="171" y="444" type="line"/>
      <point x="171" y="688" type="line"/>
      <point x="517" y="688" type="line"/>
      <point x="517" y="780" type="line"/>
    </contour>
  </outline>
</glyph>
<glyph name="eogonek" format="1">
  <advance width="548"/>
  <unicode hex="0119"/>
  <outline>
    <contour>
      <point x="506" y="227" type="line"/>
      <point x="506" y="277" type="line" smooth="yes"/>
      <point x="506" y="426"/>
      <point x="435" y="542"/>
      <point x="276" y="542" type="curve" smooth="yes"/>
      <point x="116" y="542"/>
      <point x="42" y="426"/>
      <point x="42" y="277" type="curve" smooth="yes"/>
      <point x="42" y="253" type="line" smooth="yes"/>
      <point x="42" y="113"/>
      <point x="106" y="2"/>
      <point x="252" y="-10" type="curve"/>
      <point x="228" y="-37"/>
      <point x="213" y="-70"/>
      <point x="213" y="-111" type="curve" smooth="yes"/>
      <point x="213" y="-181"/>
      <point x="261" y="-213"/>
      <point x="332" y="-213" type="curve" smooth="yes"/>
      <point x="367" y="-213"/>
      <point x="404" y="-204"/>
      <point x="425" y="-191" type="curve"/>
      <point x="400" y="-123" type="line"/>
      <point x="388" y="-130"/>
      <point x="368" y="-136"/>
      <point x="345" y="-136" type="curve" smooth="yes"/>
      <point x="312" y="-136"/>
      <point x="294" y="-117"/>
      <point x="294" y="-91" type="curve" smooth="yes"/>
      <point x="294" y="-47"/>
      <point x="325" y="-13"/>
      <point x="369" y="0" type="curve" smooth="yes"/>
      <point x="461" y="27"/>
      <point x="506" y="96"/>
      <point x="506" y="166" type="curve" smooth="yes"/>
      <point x="506" y="170" type="line"/>
      <point x="410" y="170" type="line"/>
      <point x="410" y="122"/>
      <point x="370" y="68"/>
      <point x="282" y="68" type="curve" smooth="yes"/>
      <point x="191" y="68"/>
      <point x="147" y="124"/>
      <point x="143" y="227" type="curve"/>
    </contour>
    <contour>
      <point x="274" y="462" type="curve" smooth="yes"/>
      <point x="360" y="462"/>
      <point x="401" y="403"/>
      <point x="405" y="303" type="curve"/>
      <point x="143" y="303" type="line"/>
      <point x="146" y="403"/>
      <point x="188" y="462"/>
    </contour>
  </outline>
</glyph>
<glyph name="Gbreve" format="1">
  <advance width="655"/>
  <unicode hex="011E"/>
  <outline>
    <contour>
      <point x="343" y="-12" type="curve" smooth="yes"/>
      <point x="471" y="-12"/>
      <point x="545" y="33"/>
      <point x="593" y="79" type="curve"/>
      <point x="593" y="398" type="line"/>
      <point x="366" y="398" type="line"/>
      <point x="366" y="306" type="line"/>
      <point x="489" y="306" type="line"/>
      <point x="489" y="129" type="line"/>
      <point x="462" y="104"/>
      <point x="414" y="80"/>
      <point x="348" y="80" type="curve" smooth="yes"/>
      <point x="340" y="80" type="line" smooth="yes"/>
      <point x="207" y="80"/>
      <point x="156" y="172"/>
      <point x="156" y="370" type="curve" smooth="yes"/>
      <point x="156" y="410" type="line" smooth="yes"/>
      <point x="156" y="608"/>
      <point x="209" y="700"/>
      <point x="332" y="700" type="curve" smooth="yes"/>
      <point x="340" y="700" type="line" smooth="yes"/>
      <point x="448" y="700"/>
      <point x="488" y="633"/>
      <point x="488" y="491" type="curve"/>
      <point x="593" y="491" type="line"/>
      <point x="593" y="522" type="line" smooth="yes"/>
      <point x="593" y="706"/>
      <point x="506" y="792"/>
      <point x="333" y="792" type="curve" smooth="yes"/>
      <point x="146" y="792"/>
      <point x="50" y="680"/>
      <point x="50" y="410" type="curve" smooth="yes"/>
      <point x="50" y="370" type="line" smooth="yes"/>
      <point x="50" y="100"/>
      <point x="146" y="-12"/>
    </contour>
    <contour>
      <point x="333" y="827" type="curve" smooth="yes"/>
      <point x="453" y="827"/>
      <point x="492" y="881"/>
      <point x="492" y="950" type="curve"/>
      <point x="417" y="950" type="line"/>
      <point x="417" y="913"/>
      <point x="392" y="890"/>
      <point x="333" y="890" type="curve" smooth="yes"/>
      <point x="274" y="890"/>
      <point x="249" y="913"/>
      <point x="249" y="950" type="curve"/>
      <point x="174" y="950" type="line"/>
      <point x="174" y="881"/>
      <point x="213" y="827"/>
    </contour>
  </outline>
</glyph>
<glyph name="Gcommaaccent" format="1">
  <advance width="655"/>
  <unicode hex="0122"/>
  <outline>
    <contour>
      <point x="343" y="-12" type="curve" smooth="yes"/>
      <point x="471" y="-12"/>
      <point x="545" y="33"/>
      <point x="593" y="79" type="curve"/>
      <point x="593" y="398" type="line"/>
      <point x="366" y="398" type="line"/>
      <point x="366" y="306" type="line"/>
      <point x="489" y="306" type="line"/>
      <point x="489" y="129" type="line"/>
      <point x="462" y="104"/>
      <point x="414" y="80"/>
      <point x="348" y="80" type="curve" smooth="yes"/>
      <point x="340" y="80" type="line" smooth="yes"/>
      <point x="207" y="80"/>
      <point x="156" y="172"/>
      <point x="156" y="370" type="curve" smooth="yes"/>
      <point x="156" y="410" type="line" smooth="yes"/>
      <point x="156" y="608"/>
      <point x="209" y="700"/>
      <point x="332" y="700" type="curve" smooth="yes"/>
      <point x="340" y="700" type="line" smooth="yes"/>
      <point x="448" y="700"/>
      <point x="488" y="633"/>
      <point x="488" y="491" type="curve"/>
      <point x="593" y="491" type="line"/>
      <point x="593" y="522" type="line" smooth="yes"/>
      <point x="593" y="706"/>
      <point x="506" y="792"/>
      <point x="333" y="792" type="curve" smooth="yes"/>
      <point x="146" y="792"/>
      <point x="50" y="680"/>
      <point x="50" y="410" type="curve" smooth="yes"/>
      <point x="50" y="370" type="line" smooth="yes"/>
      <point x="50" y="100"/>
      <point x="146" y="-12"/>
    </contour>
    <contour>
      <point x="394" y="-51" type="line"/>
      <point x="292" y="-51" type="line"/>
      <point x="292" y="-129" type="line"/>
      <point x="349" y="-129" type="line"/>
      <point x="340" y="-164"/>
      <point x="313" y="-176"/>
      <point x="274" y="-176" type="curve"/>
      <point x="274" y="-219" type="line"/>
      <point x="353" y="-219"/>
      <point x="394" y="-181"/>
      <point x="394" y="-105" type="curve" smooth="yes"/>
    </contour>
  </outline>
</glyph>
<glyph name="gcommaaccent" format="1">
  <advance width="550"/>
  <unicode hex="0123"/>
  <outline>
    <contour>
      <point x="389" y="3" type="line" smooth="yes"/>
      <point x="389" y="-85"/>
      <point x="354" y="-128"/>
      <point x="267" y="-128" type="curve" smooth="yes"/>
      <point x="179" y="-128"/>
      <point x="148" y="-83"/>
      <point x="148" y="0" type="curve"/>
      <point x="52" y="0" type="line"/>
      <point x="52" y="-16" type="line" smooth="yes"/>
      <point x="52" y="-124"/>
      <point x="107" y="-212"/>
      <point x="268" y="-212" type="curve" smooth="yes"/>
      <point x="424" y="-212"/>
      <point x="489" y="-128"/>
      <point x="489" y="0" type="curve" smooth="yes"/>
      <point x="489" y="380" type="line"/>
      <point x="496" y="530" type="line"/>
      <point x="409" y="530" type="line"/>
      <point x="399" y="462" type="line"/>
      <point x="371" y="507"/>
      <point x="322" y="542"/>
      <point x="243" y="542" type="curve" smooth="yes"/>
      <point x="100" y="542"/>
      <point x="42" y="431"/>
      <point x="42" y="295" type="curve" smooth="yes"/>
      <point x="42" y="271" type="line" smooth="yes"/>
      <point x="42" y="130"/>
      <point x="100" y="24"/>
      <point x="243" y="24" type="curve" smooth="yes"/>
      <point x="313" y="24"/>
      <point x="360" y="52"/>
      <point x="389" y="90" type="curve"/>
    </contour>
    <contour>
      <point x="269" y="112" type="curve" smooth="yes"/>
      <point x="185" y="112"/>
      <point x="143" y="172"/>
      <point x="143" y="271" type="curve" smooth="yes"/>
      <point x="143" y="295" type="line" smooth="yes"/>
      <point x="143" y="390"/>
      <point x="185" y="454"/>
      <point x="269" y="454" type="curve" smooth="yes"/>
      <point x="333" y="454"/>
      <point x="370" y="412"/>
      <point x="389" y="383" type="curve"/>
      <point x="389" y="183" type="line"/>
      <point x="370" y="153"/>
      <point x="333" y="112"/>
    </contour>
    <contour>
      <point x="217" y="607" type="line"/>
      <point x="319" y="607" type="line"/>
      <point x="319" y="688" type="line"/>
      <point x="261" y="688" type="line"/>
      <point x="268" y="735"/>
      <point x="293" y="749"/>
      <point x="337" y="749" type="curve"/>
      <point x="337" y="792" type="line"/>
      <point x="256" y="792"/>
      <point x="217" y="752"/>
      <point x="217" y="665" type="curve" smooth="yes"/>
    </contour>
  </outline>
</glyph>
<glyph name="Hcircumflex" format="1">
  <advance width="647"/>
  <unicode hex="0124"/>
  <outline>
    <contour>
      <point x="476" y="780" type="line"/>
      <point x="476" y="444" type="line"/>
      <point x="171" y="444" type="line"/>
      <point x="171" y="780" type="line"/>
      <point x="67" y="780" type="line"/>
      <point x="67" y="0" type="line"/>
      <point x="171" y="0" type="line"/>
      <point x="171" y="352" type="line"/>
      <point x="476" y="352" type="line"/>
      <point x="476" y="0" type="line"/>
      <point x="580" y="0" type="line"/>
      <point x="580" y="780" type="line"/>
    </contour>
    <contour>
      <point x="258" y="840" type="line"/>
      <point x="324" y="897" type="line"/>
      <point x="390" y="840" type="line"/>
      <point x="486" y="840" type="line"/>
      <point x="373" y="950" type="line"/>
      <point x="275" y="950" type="line"/>
      <point x="162" y="840" type="line"/>
    </contour>
  </outline>
</glyph>
<glyph name="hcircumflex" format="1">
  <advance width="545"/>
  <unicode hex="0125"/>
  <outline>
    <contour>
      <point x="162" y="800" type="line"/>
      <point x="62" y="800" type="line"/>
      <point x="62" y="0" type="line"/>
      <point x="162" y="0" type="line"/>
      <point x="162" y="383" type="line"/>
      <point x="180" y="412"/>
      <point x="218" y="454"/>
      <point x="290" y="454" type="curve" smooth="yes"/>
      <point x="355" y="454"/>
      <point x="390" y="417"/>
      <point x="390" y="351" type="curve" smooth="yes"/>
      <point x="390" y="0" type="line"/>
      <point x="489" y="0" type="line"/>
      <point x="489" y="367" type="line" smooth="yes"/>
      <point x="489" y="465"/>
      <point x="438" y="542"/>
      <point x="327" y="542" type="curve" smooth="yes"/>
      <point x="248" y="542"/>
      <point x="195" y="512"/>
      <point x="162" y="471" type="curve"/>
    </contour>
    <contour>
      <point x="46" y="840" type="line"/>
      <point x="112" y="897" type="line"/>
      <point x="178" y="840" type="line"/>
      <point x="274" y="840" type="line"/>
      <point x="161" y="950" type="line"/>
      <point x="63" y="950" type="line"/>
      <point x="-50" y="840" type="line"/>
    </contour>
  </outline>
</glyph>
<glyph name="Hbar" format="1">
  <advance width="647"/>
  <unicode hex="0126"/>
  <outline>
    <contour>
      <point x="476" y="780" type="line"/>
      <point x="476" y="655" type="line"/>
      <point x="171" y="655" type="line"/>
      <point x="171" y="780" type="line"/>
      <point x="67" y="780" type="line"/>
      <point x="67" y="0" type="line"/>
      <point x="171" y="0" type="line"/>
      <point x="171" y="352" type="line"/>
      <point x="476" y="352" type="line"/>
      <point x="476" y="0" type="line"/>
      <point x="580" y="0" type="line"/>
      <point x="580" y="780" type="line"/>
    </contour>
    <contour>
      <point x="171" y="444" type="line"/>
      <point x="171" y="571" type="line"/>
      <point x="476" y="571" type="line"/>
      <point x="476" y="444" type="line"/>
    </contour>
  </outline>
</glyph>
<glyph name="hbar" format="1">
  <advance width="545"/>
  <unicode hex="0127"/>
  <outline>
    <contour>
      <point x="162" y="800" type="line"/>
      <point x="62" y="800" type="line"/>
      <point x="62" y="703" type="line"/>
      <point x="-22" y="703" type="line"/>
      <point x="-22" y="627" type="line"/>
      <point x="62" y="627" type="line"/>
      <point x="62" y="0" type="line"/>
      <point x="162" y="0" type="line"/>
      <point x="162" y="383" type="line"/>
      <point x="180" y="412"/>
      <point x="218" y="454"/>
      <point x="290" y="454" type="curve" smooth="yes"/>
      <point x="355" y="454"/>
      <point x="390" y="417"/>
      <point x="390" y="351" type="curve" smooth="yes"/>
      <point x="390" y="0" type="line"/>
      <point x="489" y="0" type="line"/>
      <point x="489" y="367" type="line" smooth="yes"/>
      <point x="489" y="465"/>
      <point x="438" y="542"/>
      <point x="327" y="542" type="curve" smooth="yes"/>
      <point x="248" y="542"/>
      <point x="195" y="512"/>
      <point x="162" y="471" type="curve"/>
      <point x="162" y="627" type="line"/>
      <point x="288" y="627" type="line"/>
      <point x="288" y="703" type="line"/>
      <point x="162" y="703" type="line"/>
    </contour>
  </outline>
</glyph>
